<?xml version="1.0" encoding="UTF-8" standalone="no"?>
<!-- Generator: Adobe Adobe Illustrator 24.2.0, SVG Export Plug-In . SVG Version: 6.00 Build 0)  -->

<svg
   version="1.1"
   id="Vector_layer_1_"
   x="0px"
   y="0px"
   width="70.027893"
   height="52.310413"
   viewBox="0 0 70.027895 52.310414"
   xml:space="preserve"
   sodipodi:docname="črne živali brez teksta 01 Artboard 1.svg"
   inkscape:export-filename="lev.png"
   inkscape:export-xdpi="96"
   inkscape:export-ydpi="96"
   xmlns:inkscape="http://www.inkscape.org/namespaces/inkscape"
   xmlns:sodipodi="http://sodipodi.sourceforge.net/DTD/sodipodi-0.dtd"
   xmlns="http://www.w3.org/2000/svg"
   xmlns:svg="http://www.w3.org/2000/svg"><defs
   id="defs54" /><sodipodi:namedview
   id="namedview54"
   pagecolor="#ffffff"
   bordercolor="#000000"
   borderopacity="0.25"
   inkscape:showpageshadow="2"
   inkscape:pageopacity="0.0"
   inkscape:pagecheckerboard="0"
   inkscape:deskcolor="#d1d1d1" />&#10;&#10;&#10;&#10;&#10;&#10;&#10;&#10;&#10;&#10;&#10;&#10;&#10;&#10;&#10;&#10;&#10;&#10;&#10;&#10;&#10;&#10;&#10;&#10;&#10;&#10;&#10;&#10;&#10;<path
   d="m 53.513258,52.310085 c -5.04,-0.62 -5.25,-4.65 -5.36,-8.79 -0.32,-4.71 -0.74,-9.45 -2.08,-14 0,-0.01 0,-0.02 0,-0.03 -1.43,0.27 -2.87,0.44 -4.33,0.38 -5.17,-0.07 -9.82,-2.62 -14.09,-5.3 -0.05,-0.04 -0.11,-0.07 -0.16,-0.1 -0.49,0.16 -0.95,0.32 -1.42,0.47 -0.28,4.76 0.83,8.74 -4.07,11.72 -2.33,1.55 -4.84,2.96 -6.77,5 -0.31,0.36 -0.61,0.72 -0.91,1.08 -0.09,0.41 -0.19,0.81 -0.21,1.21 -0.02,1.52 0.38,3.03 1.01,4.4 6.95,0.19 7.57,3.26 0.18,3.33 -0.87,-0.09 -1.62,-0.4 -2.25,-0.87 -0.04,-0.07 -0.08,-0.13 -0.12,-0.2 -0.15,-0.27 -0.3,-0.56 -0.44,-0.84 -0.14,-0.27 -0.26,-0.56 -0.37,-0.84 0,0.01 0.01,0.02 0.01,0.03 -0.09,-0.24 -0.18,-0.48 -0.27,-0.73 -0.09,-0.26 -0.17,-0.52 -0.25,-0.78 -0.08,-0.28 -0.16,-0.55 -0.26,-0.82 -0.1,-0.27 -0.19,-0.54 -0.26,-0.82 -0.1,-0.38 -0.21,-0.77 -0.3,-1.15 0,0 0,-0.01 0,-0.01 0,0 0,0 0,0 -0.15,-0.63 -0.27,-1.27 -0.42,-1.9 -0.08,-0.33 -0.16,-0.67 -0.22,-1.01 -0.03,-0.16 -0.06,-0.31 -0.09,-0.47 -0.03,-0.16 -0.07,-0.31 -0.09,-0.46 0,-0.01 0,-0.01 0,-0.02 0,-0.06 -0.01,-0.11 -0.01,-0.17 0,-0.06 0.01,-0.11 0.02,-0.17 v 0 c 0.03,-0.18 0.07,-0.36 0.1,-0.54 0.02,-0.14 0.05,-0.27 0.08,-0.41 0.01,-0.03 0.02,-0.06 0.04,-0.1 -0.01,0.01 -0.01,0.02 -0.02,0.03 0.03,-0.06 0.05,-0.12 0.09,-0.17 0.03,-0.04 0.06,-0.07 0.09,-0.11 0.23,-0.28 0.47,-0.54 0.71,-0.81 0.2,-0.22 0.41,-0.43 0.62,-0.64 0.45,-0.46 0.91,-0.92 1.35,-1.39 0.23,-0.25 0.45,-0.5 0.66,-0.75 0.2,-0.24 0.38,-0.49 0.57,-0.74 0.11,-0.14 0.21,-0.29 0.32,-0.43 0.07,-0.1 0.15,-0.2 0.21,-0.31 0.09,-0.14 0.18,-0.29 0.25,-0.45 0.07,-0.14 0.14,-0.29 0.21,-0.43 0.06,-0.12 0.12,-0.23 0.18,-0.36 0.01,-0.03 0.02,-0.06 0.03,-0.09 0.02,-0.05 0.03,-0.1 0.05,-0.14 0.04,-0.09 0.06,-0.19 0.08,-0.29 0.03,-0.12 0.05,-0.24 0.07,-0.36 0.02,-0.12 0.04,-0.24 0.05,-0.36 0.03,-0.23 0.04,-0.46 0.05,-0.7 0,-0.23 0.01,-0.47 0.01,-0.7 0,-0.25 0,-0.51 -0.04,-0.76 -0.04,-0.24 -0.09,-0.48 -0.14,-0.72 -0.05,-0.23 -0.1,-0.46 -0.16,-0.69 -0.06,-0.21 -0.12,-0.43 -0.18,-0.64 -0.06,-0.22 -0.12,-0.44 -0.19,-0.66 -0.07,-0.21 -0.15,-0.43 -0.23,-0.64 -0.08,-0.21 -0.17,-0.43 -0.27,-0.64 -0.09,-0.2 -0.2,-0.39 -0.3,-0.59 0,0.01 0.01,0.02 0.01,0.03 -0.11,-0.23 -0.21,-0.45 -0.33,-0.67 -0.12,-0.23 -0.26,-0.45 -0.39,-0.66 0,0 0,-0.01 -0.01,-0.02 0,0 0,-0.01 -0.01,-0.01 v 0 c -0.03,-0.04 -0.05,-0.09 -0.08,-0.13 v 0 c 0,-0.01 -0.01,-0.02 -0.02,-0.02 v 0 c -0.16,-0.27 -0.31,-0.54 -0.46,-0.8 -0.13,-0.23 -0.26,-0.45 -0.4,-0.68 -0.14,-0.22 -0.29,-0.43 -0.43,-0.64 -0.14,-0.22 -0.3,-0.43 -0.46,-0.64 -0.16,-0.21 -0.33,-0.43 -0.52,-0.61 -0.09,-0.08 -0.18,-0.16 -0.3,-0.13 -0.09,0.02 -0.17,0.06 -0.21,0.15 -0.03,0.06 -0.04,0.12 -0.02,0.2 0,0.01 0.01,0.02 0.01,0.04 -0.51,1.35 -0.9499998,2.75 -1.2899998,4.16 -0.51,5.67 0.49,12.76 -3.58,15.53 -0.93,0.84 -2.18,1.42 -3.82,1.62 -1.53000001,-0.33 -2.66000001,-2.73 -1.46000001,-3.94 0.46,-0.25 0.98000001,-0.2 1.50000001,-0.15 0.41,0.04 0.82,0.08 1.2,-0.03 0.46,-0.12 0.74,-0.51 1,-0.85 2.71,-5.36 2.27,-11.68 3.21,-17.48 0.13,-0.62 0.32,-1.23 0.56,-1.81 0.98,-4.98 6.3199998,-8.1599999 11.3799998,-7.7899999 0.02,0 0.04,0 0.05,0.01 5.5,-0.29 11.05,1.2899999 16.34,2.6699999 2.18,0.44 4.4,0.46 6.55,0.11 0.81,-0.27 1.63,-0.54 2.43,-0.84 0,0 0,0 0.01,0 2.22,-1.08 4.44,-2.1799999 6.59,-3.3799999 0.69,-0.54 1.36,-1.11 2.02,-1.69 0.01,0 0.02,-0.01 0.02,-0.02 0.31,-0.32 0.6,-0.66 0.88,-1.01 1.27,-1.35 2.31,-2.96 3.74,-4.14 0.3,-0.39999997 1.06,-0.90999997 1.47,-0.94999997 0.76,-0.26 1.64,-0.33 2.39,-0.27 1,0.12 2.05,0.04 2.95,0.55 1.47,0.70999997 2.09,2.28999997 3,3.51999997 0.43,0.67 1.19,1.04 1.75,1.58 0,0 -0.01,0 -0.01,0 -0.04,0 -0.08,0 -0.12,0 -0.09,0 -0.17,0 -0.26,0.02 -0.09,0.01 -0.19,0.02 -0.27,0.05 -0.08,0.04 -0.16,0.07 -0.21,0.14 -0.04,0.05 -0.07,0.12 -0.08,0.19 -0.01,0.05 0.01,0.12 0.02,0.18 0,0.02 0.01,0.04 0.02,0.06 0.05,0.11 0.09,0.2 0.14,0.3 0.02,0.04 0.05,0.09 0.08,0.13 0.21,0.32 0.42,0.65 0.7,0.91 0.01,0.01 0.01,0.01 0.02,0.02 -0.05,0.09 -0.1,0.18 -0.14,0.27 -0.18,0.36 -0.41,0.73 -0.71,0.98 -0.02,0 -0.03,-0.01 -0.05,-0.01 0,0 0,0 0,0 0,0 -0.01,0 -0.01,0 0,0 -0.01,0 -0.01,0 -0.04,-0.01 -0.07,-0.02 -0.11,-0.02 -0.32,-0.05 -0.63,-0.11 -0.95,-0.19 v 0 c 0,0 -0.01,0 -0.01,0 0,0 -0.01,0 -0.01,0 0,0 0.01,0 0.01,0 0,0 0,0 0,0 -0.01,0 -0.01,0 -0.02,0 0,0 0.01,0 0.01,0 -0.03,-0.01 -0.06,-0.02 -0.09,-0.03 0,0 -0.01,0 -0.01,0 -0.11,-0.04 -0.21,-0.07 -0.31,-0.12 0,-0.02 0.01,-0.04 0.01,-0.06 0,0 0,0.01 0,0.01 0,0 0,-0.01 0,-0.02 v 0 0 c 0,0 0,-0.01 0,-0.02 v 0 c 0.02,-0.06 0.03,-0.12 0.04,-0.18 v 0 c 0,0 0,0 0,0 0,0 0,0 0,-0.01 v 0 c 0.02,-0.07 0.05,-0.15 0.07,-0.23 0,0.01 0,0.01 0,0.02 0,-0.01 0,-0.01 0.01,-0.02 0.04,-0.11 0.07,-0.22 0.1,-0.33 0.03,-0.1 0.06,-0.19 0.09,-0.29 0.06,-0.22 0.11,-0.43 0.16,-0.65 0.03,-0.14 0.07,-0.28 0.1,-0.42 0.02,-0.07 0.03,-0.14 0.04,-0.21 0.01,-0.09 0.03,-0.18 0.03,-0.27 0,-0.14 -0.03,-0.31 -0.08,-0.45 -0.03,-0.08 -0.05,-0.11 -0.1,-0.18 -0.02,-0.04 -0.05,-0.07 -0.08,-0.09 -0.04,-0.04 -0.07,-0.07 -0.11,-0.11 -0.06,-0.07 -0.12,-0.15 -0.22,-0.17 -0.13,-0.02 -0.27,0.05 -0.3,0.19 -0.02,0.1 0.02,0.21 0.11,0.27 0.05,0.05 0.09,0.1 0.14,0.14 0.02,0.02 0.03,0.03 0.05,0.04 0,0 0,0 0,0 0,0 0,0 0,0 0.01,0.02 0.02,0.03 0.02,0.04 0.01,0.02 0.02,0.04 0.02,0.05 0,0 0,0 0,0.01 0,0.02 0.01,0.04 0.01,0.05 v 0 c 0.01,0.04 0.02,0.07 0.02,0.11 0,-0.01 0,-0.02 0,-0.03 0,0.01 0,0.02 0,0.04 0,0 0,0 0,-0.01 0,0 0,0 0,0.01 0,0.03 0,0.05 0,0.08 0,0.02 0,0.04 -0.01,0.05 -0.02,0.14 -0.04,0.29 -0.07,0.43 -0.07,0.27 -0.12,0.54 -0.2,0.8 0,0.01 -0.01,0.02 -0.01,0.02 0,0 0,-0.01 0.01,-0.02 0,0.01 0,0.02 -0.01,0.03 0,0 0,-0.01 0,-0.01 -0.04,0.14 -0.09,0.27 -0.12,0.41 -0.04,0.13 -0.07,0.26 -0.12,0.39 -0.02,0.07 -0.05,0.13 -0.07,0.2 -0.01,0.05 -0.02,0.09 -0.04,0.14 0,0 0,0 0,0 0,0 0,0 0,0 0,0 0,0.01 0,0.01 0,0 0,0 0,0 0,0 0,0 0,0 0,0 0,0 0,0 0,0 0,0 0,0 0,0.01 0,0.01 0,0.02 -0.21,-0.09 -0.41,-0.19 -0.61,-0.29 0,0 0.01,0 0.01,0 -0.1,-0.05 -0.21,-0.12 -0.32,-0.15 -0.05,-0.02 -0.1,-0.02 -0.15,0 -0.1,0.02 -0.18,0.11 -0.19,0.2 -0.01,0.09 0.02,0.17 0.09,0.23 0.04,0.03 0.09,0.05 0.14,0.06 0.03,0.02 0.06,0.03 0.09,0.04 0,0 0,0 0,0 0.22,0.12 0.44,0.23 0.67,0.34 0.11,0.05 0.23,0.09 0.34,0.13 0.1,0.04 0.2,0.09 0.31,0.13 0.21,0.09 0.44,0.15 0.67,0.2 0.21,0.04 0.41,0.09 0.62,0.12 0.1,0.2 0.12,0.41 -0.04,0.61 -0.35,0.4399999 -0.84,0.9799999 -1.44,0.9799999 -1.6,-0.56 -3.18,-1.4099999 -4.86,-1.5699999 -4.52,1.7999999 -4.22,7.1999999 -5.18,11.2099999 -0.72,3.2 -2.4,6.18 -4.65,8.55 0,0 0,0.01 0,0.01 -0.24,3.85 -0.4,7.7 -0.63,11.55 -0.01,1.21 -0.05,2.38 -0.04,3.58 0.51,1.11 1.04,2.19 1.44,3.36 1.48,-0.41 2.67,1.03 2.78,2.39 1.99,1.64 0.74,1.49 -1.01,1.61 v 0 c -0.22,0.38 -0.61,0.61 -1.03,0.61 -0.05,0.09 -0.1,0.08 -0.15,0.08 z m -0.43,-2.09 c -0.07,0.09 -0.07,0.23 0,0.31 0.02,0.09 0.07,0.17 0.12,0.24 0.05,0.08 0.11,0.17 0.19,0.22 0.04,0.03 0.09,0.05 0.14,0.05 0.04,0 0.07,-0.01 0.11,-0.03 0.07,-0.03 0.11,-0.09 0.14,-0.17 0.02,-0.06 0.01,-0.12 0,-0.18 -0.02,-0.07 -0.04,-0.15 -0.07,-0.23 -0.05,-0.12 -0.09,-0.23 -0.2,-0.3 -0.04,-0.03 -0.09,-0.04 -0.15,-0.04 -0.11,0 -0.21,0.05 -0.28,0.13 z m -34.34,0.63 c 0.05,0.06 0.12,0.1 0.2,0.1 0.05,0 0.11,-0.02 0.15,-0.05 0.11,-0.08 0.12,-0.24 0.04,-0.35 -0.09,-0.11 -0.18,-0.23 -0.28,-0.32 -0.08,-0.07 -0.17,-0.17 -0.27,-0.22 -0.12,-0.06 -0.24,-0.14 -0.38,-0.1 -0.12,0.04 -0.2,0.16 -0.18,0.29 0.02,0.12 0.12,0.21 0.25,0.21 0.02,0.01 0.04,0.02 0.06,0.03 0.03,0.02 0.05,0.04 0.08,0.06 0,0 0,0 0.01,0.01 0,0 0,0 0,0 0.06,0.05 0.12,0.11 0.17,0.17 -0.01,-0.01 -0.02,-0.02 -0.02,-0.02 0.06,0.05 0.12,0.12 0.17,0.19 z m 35.96,-1.4 v 0 c -0.08,0.11 -0.05,0.25 0.04,0.34 0.01,0.09 0.07,0.18 0.11,0.26 0.04,0.08 0.09,0.14 0.15,0.2 0.06,0.06 0.14,0.11 0.23,0.11 0.18,0 0.28,-0.17 0.27,-0.33 0,-0.2 -0.18,-0.36 -0.3,-0.5 -0.07,-0.07 -0.15,-0.14 -0.25,-0.18 -0.02,0 -0.03,-0.01 -0.05,-0.01 -0.07,0 -0.15,0.04 -0.2,0.11 z m -4.4,-4.47 c -0.09,0.02 -0.16,0.1 -0.18,0.19 -0.02,0.07 -0.01,0.14 0.01,0.21 0.04,0.12 0.08,0.23 0.13,0.34 0.04,0.08 0.1,0.16 0.19,0.19 0.03,0.01 0.06,0.02 0.1,0.02 0.07,0 0.13,-0.02 0.18,-0.07 0.03,-0.04 0.06,-0.07 0.07,-0.11 0.02,-0.04 0.03,-0.09 0.04,-0.14 0,-0.04 0,-0.08 0,-0.12 0,-0.04 -0.01,-0.09 -0.02,-0.13 -0.01,-0.05 -0.04,-0.09 -0.06,-0.14 -0.03,-0.06 -0.08,-0.11 -0.14,-0.13 -0.05,-0.03 -0.1,-0.06 -0.16,-0.08 -0.03,-0.01 -0.06,-0.02 -0.09,-0.02 -0.02,-0.02 -0.04,-0.02 -0.07,-0.01 z m -38.01,-0.76 c 0.01,0.04 0.03,0.07 0.04,0.11 0,0.04 0.02,0.07 0.03,0.11 0.05,0.12 0.07,0.15 0.14,0.25 0.03,0.04 0.06,0.08 0.09,0.12 0.11,0.14 0.23,0.26 0.37,0.37 0.03,0.03 0.06,0.05 0.1,0.07 0.02,0.01 0.05,0.02 0.07,0.03 0.02,0.01 0.05,0.01 0.08,0.01 0.06,0 0.12,-0.02 0.17,-0.06 0,0 0.01,-0.01 0.01,-0.01 0.07,-0.04 0.12,-0.11 0.13,-0.19 0,-0.04 0,-0.07 -0.01,-0.11 0,-0.01 0,-0.03 0,-0.04 -0.01,-0.04 -0.02,-0.07 -0.03,-0.11 -0.02,-0.08 -0.06,-0.16 -0.1,-0.22 -0.07,-0.12 -0.14,-0.24 -0.24,-0.33 -0.08,-0.07 -0.16,-0.14 -0.25,-0.2 -0.1,-0.06 -0.21,-0.13 -0.32,-0.16 -0.01,0 -0.02,0 -0.04,0 -0.17,0.02 -0.29,0.2 -0.24,0.36 z m 36.91,-0.49 c -0.01,0.01 -0.01,0.01 -0.02,0.02 -0.02,0.02 -0.04,0.05 -0.05,0.07 -0.05,0.05 -0.09,0.13 -0.09,0.2 -0.01,0.14 0.05,0.25 0.12,0.36 0.05,0.09 0.14,0.18 0.25,0.2 0.03,0 0.05,0.01 0.08,0.01 0.05,0 0.11,-0.02 0.15,-0.05 0.08,-0.05 0.11,-0.14 0.12,-0.23 0,-0.06 0,-0.13 -0.02,-0.19 -0.03,-0.09 -0.06,-0.18 -0.11,-0.26 -0.03,-0.06 -0.06,-0.12 -0.12,-0.16 -0.04,-0.03 -0.1,-0.04 -0.15,-0.04 -0.05,0.01 -0.11,0.03 -0.16,0.07 z m -35.9,-1.4 c 0,0 0,0 0,0 -0.04,0.02 -0.07,0.04 -0.09,0.06 -0.04,0.03 -0.07,0.06 -0.1,0.1 -0.05,0.09 -0.12,0.18 -0.13,0.28 0,0.06 0,0.12 0.02,0.18 0.03,0.07 0.09,0.11 0.16,0.15 0.04,0.02 0.08,0.03 0.12,0.03 0.02,0 0.03,0 0.04,0 0.05,-0.01 0.11,-0.01 0.16,-0.04 0.02,-0.01 0.04,-0.02 0.05,-0.03 0.11,-0.02 0.19,-0.11 0.21,-0.21 0,0 0,0 0,-0.01 0.01,-0.02 0.02,-0.04 0.03,-0.05 0.05,-0.13 0.09,-0.3 0.01,-0.43 -0.06,-0.1 -0.18,-0.13 -0.29,-0.13 -0.08,0 -0.15,0.04 -0.19,0.1 z m 0.9,-3.2 c -0.17,0.04 -0.3,0.14 -0.42,0.26 -0.08,0.07 -0.16,0.19 -0.21,0.28 -0.06,0.12 -0.12,0.23 -0.17,0.36 -0.04,0.09 -0.07,0.18 -0.09,0.28 -0.02,0.07 -0.03,0.14 -0.04,0.21 -0.01,0.07 0.02,0.14 0.03,0.21 0.04,0.13 0.16,0.17 0.27,0.23 0.04,0.02 0.08,0.02 0.12,0.02 0.03,0 0.05,0 0.07,0 0.05,0 0.11,-0.02 0.16,-0.03 0.1,-0.02 0.19,-0.09 0.28,-0.14 0.07,-0.05 0.12,-0.1 0.17,-0.16 0.06,-0.07 0.11,-0.14 0.16,-0.22 0.03,-0.05 0.06,-0.09 0.08,-0.14 0.05,-0.09 0.09,-0.18 0.11,-0.28 0.02,-0.07 0.04,-0.14 0.05,-0.21 0,-0.06 0,-0.12 0,-0.18 0,-0.07 -0.05,-0.14 -0.08,-0.2 -0.02,-0.04 -0.04,-0.06 -0.07,-0.08 -0.03,-0.05 -0.06,-0.09 -0.11,-0.13 -0.04,-0.03 -0.07,-0.05 -0.12,-0.05 -0.03,0 -0.07,-0.01 -0.1,-0.01 -0.03,0 -0.05,-0.03 -0.09,-0.02 z m -10.8399998,-0.92 c -0.04,0.01 -0.08,0.04 -0.11,0.07 -0.03,0.04 -0.08,0.09 -0.11,0.14 -0.08,0.15 -0.13,0.33 -0.13,0.5 0,0.07 0,0.12 0,0.19 -0.01,0.09 -0.01,0.17 0,0.26 0.02,0.16 0.06,0.32 0.12,0.47 0.04,0.09 0.07,0.18 0.12,0.26 0.03,0.04 0.07,0.1 0.11,0.14 0.07,0.06 0.14,0.12 0.24,0.12 0.07,0 0.17,-0.02 0.23,-0.07 0.07,-0.06 0.11,-0.15 0.14,-0.24 0.01,-0.02 0.02,-0.03 0.03,-0.05 0.03,-0.05 0.06,-0.12 0.07,-0.18 0.01,-0.09 0.02,-0.16 0.02,-0.25 0,-0.1 0,-0.2 -0.01,-0.29 -0.01,-0.09 -0.01,-0.18 -0.04,-0.27 -0.03,-0.12 -0.06,-0.23 -0.12,-0.34 -0.05,-0.12 -0.11,-0.24 -0.19,-0.35 -0.04,-0.06 -0.11,-0.1 -0.18,-0.12 -0.02,-0.01 -0.05,-0.02 -0.08,-0.02 -0.01,-0.01 -0.06,0.01 -0.11,0.03 z m 1.87,-1.2 c -0.09,0.02 -0.16,0.09 -0.19,0.18 -0.02,0.04 -0.02,0.09 -0.01,0.14 0,0.01 0.01,0.02 0.01,0.04 -0.01,0.07 0.01,0.15 0.03,0.21 0.02,0.06 0.05,0.11 0.08,0.17 0.03,0.05 0.07,0.09 0.11,0.14 0.04,0.05 0.09,0.08 0.13,0.12 0.12,0.14 0.25,0.29 0.39,0.41 0.07,0.06 0.15,0.13 0.24,0.18 0.07,0.04 0.12,0.07 0.19,0.09 0.05,0.01 0.1,0.02 0.14,0.03 0.02,0 0.04,0.01 0.06,0.01 0.02,0 0.05,0 0.07,-0.01 0.07,0.01 0.13,-0.02 0.18,-0.06 0,0 0.01,0 0.01,-0.01 0.11,-0.09 0.14,-0.23 0.06,-0.35 -0.01,-0.02 -0.02,-0.03 -0.04,-0.04 -0.02,-0.04 -0.04,-0.07 -0.06,-0.11 -0.03,-0.05 -0.07,-0.1 -0.11,-0.14 -0.06,-0.07 -0.12,-0.15 -0.2,-0.21 -0.13,-0.14 -0.29,-0.27 -0.43,-0.39 -0.14,-0.11 -0.28,-0.21 -0.42,-0.31 -0.06,-0.04 -0.12,-0.07 -0.2,-0.07 0,-0.02 -0.02,-0.02 -0.04,-0.02 z m 11.9299998,-0.63 c -0.09,0.03 -0.15,0.07 -0.22,0.14 -0.1,0.11 -0.2,0.22 -0.29,0.34 -0.11,0.15 -0.22,0.3 -0.32,0.46 -0.03,0.06 -0.06,0.11 -0.09,0.17 -0.02,0.05 -0.04,0.09 -0.05,0.14 -0.01,0.04 -0.04,0.12 -0.04,0.17 0,0.07 0.01,0.14 0.01,0.2 0.01,0.08 0.06,0.16 0.1,0.23 0.02,0.04 0.05,0.07 0.09,0.09 0.07,0.04 0.13,0.09 0.21,0.1 0.02,0 0.04,0 0.05,0 0.05,0 0.12,-0.01 0.16,-0.02 0.02,0 0.04,-0.01 0.06,-0.02 0.02,-0.01 0.04,-0.02 0.06,-0.03 0.04,-0.02 0.09,-0.05 0.12,-0.09 0.09,-0.09 0.16,-0.17 0.23,-0.27 0.12,-0.2 0.24,-0.41 0.35,-0.62 0.07,-0.12 0.12,-0.25 0.16,-0.39 0.02,-0.07 0.04,-0.15 0.04,-0.22 0,-0.09 -0.04,-0.21 -0.12,-0.27 -0.06,-0.05 -0.14,-0.07 -0.22,-0.07 -0.01,0 -0.02,0 -0.04,0 -0.05,-0.04 -0.11,-0.06 -0.17,-0.06 -0.02,0 -0.05,0.01 -0.08,0.02 z m -3.57,0.43 c -0.04,0.04 -0.07,0.07 -0.11,0.11 -0.04,0.05 -0.08,0.11 -0.11,0.17 -0.03,0.05 -0.05,0.1 -0.07,0.15 -0.04,0.11 -0.08,0.23 -0.08,0.34 0,0.05 0,0.17 0.01,0.24 0.02,0.09 0.07,0.21 0.16,0.27 0.06,0.04 0.14,0.06 0.21,0.07 0.02,0 0.03,0 0.04,0 0.03,0 0.06,0 0.09,-0.02 0.08,-0.03 0.17,-0.05 0.23,-0.11 0.06,-0.06 0.1,-0.09 0.16,-0.16 0.05,-0.06 0.09,-0.14 0.13,-0.21 0.04,-0.07 0.06,-0.14 0.07,-0.22 0.01,-0.06 0.01,-0.12 0.02,-0.18 0,-0.05 -0.01,-0.1 -0.02,-0.15 -0.01,-0.05 -0.03,-0.1 -0.05,-0.15 -0.04,-0.09 -0.12,-0.17 -0.21,-0.2 -0.05,-0.02 -0.11,-0.01 -0.17,-0.01 -0.01,0 -0.02,0 -0.02,0 -0.01,0 -0.02,0 -0.04,-0.01 -0.02,0 -0.04,0 -0.06,0 -0.06,0 -0.13,0.02 -0.18,0.07 z m 36.69,-0.26 c -0.04,0 -0.08,0.02 -0.12,0.04 -0.05,0.03 -0.09,0.08 -0.11,0.13 -0.02,0.04 -0.03,0.09 -0.03,0.13 -0.01,0.1 -0.02,0.21 -0.02,0.31 0.01,0.2 0.01,0.51 0.23,0.62 0.04,0.02 0.09,0.03 0.13,0.03 0.11,0 0.21,-0.06 0.28,-0.16 0.08,-0.13 0.1,-0.31 0.11,-0.46 0.01,-0.07 0.01,-0.15 0,-0.22 -0.01,-0.06 -0.02,-0.13 -0.04,-0.19 -0.04,-0.09 -0.07,-0.15 -0.15,-0.2 -0.04,-0.04 -0.11,-0.05 -0.16,-0.05 -0.04,-0.01 -0.08,0 -0.12,0.02 z m -43.9999998,-2.31 c -0.11,0.02 -0.2,0.1 -0.21,0.21 -0.02,0.09 -0.03,0.17 0.02,0.25 0,0 0,0 0,0.01 0.02,0.06 0.05,0.12 0.1,0.17 0.16,0.16 0.36,0.26 0.56,0.36 0.14,0.07 0.28,0.12 0.43,0.16 0.05,0.01 0.1,0.02 0.14,0.02 0.04,0 0.07,0 0.11,-0.02 0.06,-0.02 0.11,-0.05 0.15,-0.1 0.04,-0.04 0.06,-0.09 0.08,-0.14 0.03,-0.07 0.02,-0.14 0.02,-0.22 -0.01,-0.08 -0.07,-0.14 -0.11,-0.2 -0.04,-0.05 -0.09,-0.08 -0.15,-0.09 -0.01,-0.02 -0.03,-0.03 -0.04,-0.04 -0.11,-0.1 -0.22,-0.17 -0.34,-0.24 -0.12,-0.07 -0.26,-0.11 -0.39,-0.13 -0.07,-0.02 -0.15,-0.02 -0.23,-0.02 -0.06,0 -0.1,0.01 -0.14,0.02 z m 11.9299998,-0.87 c -0.05,0.01 -0.11,0.02 -0.16,0.06 -0.05,0.04 -0.09,0.07 -0.13,0.11 -0.03,0.03 -0.05,0.06 -0.08,0.09 -0.05,0.06 -0.1,0.16 -0.13,0.23 -0.07,0.2 -0.12,0.39 -0.11,0.61 0.01,0.12 0.01,0.24 0.09,0.33 0.06,0.06 0.16,0.09 0.24,0.09 0.05,0 0.09,-0.02 0.12,-0.04 0.05,-0.02 0.11,-0.05 0.16,-0.08 0.03,-0.03 0.06,-0.06 0.09,-0.1 0.06,-0.07 0.11,-0.15 0.15,-0.22 0.05,-0.1 0.11,-0.21 0.14,-0.32 0.04,-0.14 0.09,-0.3 0.03,-0.45 -0.02,-0.05 -0.05,-0.09 -0.1,-0.12 0,-0.01 0,-0.02 -0.01,-0.03 -0.03,-0.08 -0.1,-0.14 -0.18,-0.16 -0.02,-0.01 -0.05,-0.01 -0.07,-0.01 -0.01,0.01 -0.03,0.01 -0.05,0.01 z m 31.27,-0.66 c -0.06,0.01 -0.14,0.05 -0.18,0.1 -0.03,0.04 -0.07,0.08 -0.09,0.12 -0.04,0.07 -0.07,0.14 -0.09,0.21 -0.03,0.11 -0.05,0.22 -0.07,0.33 -0.02,0.11 -0.02,0.21 -0.03,0.33 0,0.09 0.01,0.19 0.05,0.27 0.04,0.06 0.1,0.12 0.17,0.15 0.04,0.02 0.09,0.02 0.13,0.02 0.01,0 0.03,0 0.04,0 0.04,0 0.07,-0.01 0.1,-0.02 0.07,-0.04 0.16,-0.1 0.2,-0.17 0.06,-0.12 0.08,-0.15 0.12,-0.27 0.02,-0.07 0.04,-0.16 0.05,-0.23 0.02,-0.12 0.03,-0.24 0.04,-0.36 0,-0.11 0.02,-0.22 -0.05,-0.31 -0.02,-0.03 -0.05,-0.05 -0.09,-0.07 -0.03,-0.03 -0.06,-0.05 -0.09,-0.06 -0.04,-0.02 -0.08,-0.03 -0.12,-0.04 -0.01,0 -0.02,0 -0.04,0 -0.01,0 -0.03,0 -0.05,0 z m -42.1399998,-0.3 c -0.02,0.05 -0.04,0.09 -0.04,0.14 -0.01,0.05 -0.01,0.09 0,0.14 0.03,0.13 0.09,0.26 0.16,0.38 0.06,0.1 0.13,0.21 0.22,0.29 0.12,0.1 0.22,0.16 0.37,0.2 0.02,0 0.04,0.01 0.05,0.01 0.05,0 0.11,-0.02 0.16,-0.03 0.05,-0.02 0.1,-0.05 0.13,-0.1 0.03,-0.04 0.05,-0.11 0.07,-0.15 0.01,-0.02 0.01,-0.04 0.02,-0.06 0,-0.03 0,-0.06 -0.01,-0.09 -0.01,-0.04 -0.02,-0.08 -0.04,-0.12 -0.07,-0.12 -0.13,-0.23 -0.22,-0.33 -0.11,-0.11 -0.21,-0.24 -0.34,-0.32 -0.05,-0.03 -0.1,-0.07 -0.15,-0.09 -0.03,-0.01 -0.06,-0.02 -0.09,-0.02 -0.01,0 -0.03,0 -0.04,0 -0.11,-0.01 -0.2,0.05 -0.25,0.15 z m 10.6299998,-1.9 c -0.07,0.01 -0.14,0.07 -0.2,0.12 -0.05,0.05 -0.09,0.1 -0.13,0.16 -0.03,0.02 -0.06,0.05 -0.08,0.08 -0.06,0.08 -0.12,0.15 -0.17,0.24 -0.08,0.14 -0.15,0.29 -0.19,0.46 -0.02,0.11 -0.05,0.2 -0.06,0.31 -0.01,0.04 -0.01,0.09 -0.01,0.13 0,0.09 0.01,0.17 0.05,0.25 0.02,0.04 0.06,0.09 0.09,0.12 0.04,0.04 0.09,0.06 0.14,0.06 0.03,0 0.06,0.01 0.09,0.01 0.03,0 0.05,0 0.08,-0.02 0.04,-0.01 0.1,-0.03 0.14,-0.05 0.04,-0.03 0.09,-0.06 0.13,-0.09 0.09,-0.08 0.16,-0.18 0.23,-0.28 0.07,-0.1 0.12,-0.22 0.17,-0.33 0.03,-0.06 0.05,-0.12 0.07,-0.19 0.04,-0.11 0.06,-0.2 0.09,-0.31 0.01,-0.07 0.02,-0.15 0.03,-0.22 0.02,-0.12 0,-0.29 -0.1,-0.37 -0.05,-0.04 -0.11,-0.09 -0.18,-0.1 -0.02,0 -0.03,0 -0.05,0 -0.02,0 -0.08,0.01 -0.14,0.02 z m 2.83,-1.31 c -0.06,0.01 -0.13,0.02 -0.18,0.07 -0.05,0.05 -0.11,0.1 -0.14,0.17 -0.04,0.12 -0.07,0.21 -0.07,0.34 0.01,0.16 0.02,0.31 0.06,0.46 0.03,0.11 0.05,0.22 0.1,0.32 0.03,0.08 0.06,0.15 0.1,0.22 0.03,0.05 0.07,0.11 0.11,0.15 0.01,0.02 0.03,0.04 0.04,0.05 0.06,0.05 0.14,0.07 0.21,0.08 0.02,0 0.04,0 0.05,0 0.05,0 0.1,-0.02 0.14,-0.04 0.05,-0.04 0.11,-0.09 0.14,-0.15 0.05,-0.09 0.06,-0.12 0.09,-0.23 0.02,-0.05 0.03,-0.11 0.03,-0.16 0.02,-0.16 0.03,-0.32 0.02,-0.48 0,-0.09 0,-0.18 -0.02,-0.27 0,-0.05 -0.01,-0.09 -0.03,-0.14 -0.03,-0.08 -0.05,-0.19 -0.12,-0.24 -0.06,-0.04 -0.12,-0.1 -0.2,-0.11 -0.02,0 -0.05,-0.01 -0.07,-0.01 -0.01,0 -0.02,-0.01 -0.03,-0.01 -0.05,-0.02 -0.12,-0.03 -0.18,-0.03 -0.02,0 -0.03,0 -0.05,0.01 z m -13.9599998,-0.11 c -0.01,0.04 -0.02,0.08 -0.02,0.12 -0.03,0.1 0.01,0.2 0.06,0.29 0,0 0.01,0.01 0.01,0.02 0.01,0.06 0.04,0.12 0.07,0.17 0.09,0.13 0.23,0.24 0.36,0.34 0.16,0.11 0.32,0.23 0.49,0.32 0.09,0.05 0.18,0.1 0.29,0.13 0.04,0.02 0.09,0.04 0.14,0.04 0.02,0 0.04,0 0.06,0 0.05,0 0.11,-0.01 0.16,-0.04 0.1,-0.07 0.19,-0.2 0.16,-0.33 -0.01,-0.04 -0.02,-0.11 -0.05,-0.15 -0.04,-0.06 -0.06,-0.11 -0.09,-0.15 -0.02,-0.04 -0.05,-0.08 -0.09,-0.11 -0.06,-0.07 -0.13,-0.14 -0.2,-0.2 -0.04,-0.04 -0.09,-0.09 -0.14,-0.12 -0.09,-0.07 -0.2,-0.15 -0.3,-0.21 -0.1,-0.06 -0.18,-0.1 -0.29,-0.15 -0.11,-0.05 -0.22,-0.08 -0.34,-0.1 -0.01,0 -0.02,0 -0.04,0 -0.09,-0.04 -0.2,0.02 -0.24,0.13 z m 42.2499998,-1.67 c -0.08,0.05 -0.12,0.14 -0.16,0.21 -0.07,0.13 -0.13,0.3 -0.14,0.44 -0.01,0.1 -0.01,0.17 -0.01,0.27 0,0.09 0.02,0.18 0.04,0.27 0.01,0.07 0.04,0.15 0.07,0.22 0.03,0.06 0.09,0.12 0.13,0.16 0.04,0.05 0.12,0.09 0.19,0.09 0.04,0 0.07,-0.01 0.11,-0.03 0.04,-0.02 0.09,-0.04 0.12,-0.08 0.02,-0.02 0.04,-0.05 0.06,-0.07 0.02,-0.04 0.04,-0.08 0.06,-0.12 0.02,-0.04 0.03,-0.09 0.04,-0.13 0.02,-0.05 0.03,-0.11 0.04,-0.16 0.02,-0.09 0.03,-0.17 0.04,-0.26 0.02,-0.11 0.04,-0.23 0.04,-0.34 0,-0.05 0,-0.11 -0.01,-0.16 -0.02,-0.08 -0.07,-0.16 -0.14,-0.21 -0.02,-0.01 -0.03,-0.02 -0.05,-0.02 -0.05,-0.04 -0.09,-0.09 -0.15,-0.11 -0.04,-0.01 -0.07,-0.02 -0.11,-0.02 -0.08,0.01 -0.12,0.02 -0.17,0.05 z m -25.68,-0.49 c -0.06,0.02 -0.1,0.05 -0.14,0.08 -0.04,0 -0.07,0.01 -0.11,0.03 -0.05,0.03 -0.1,0.09 -0.12,0.15 -0.02,0.07 -0.02,0.15 -0.02,0.23 0,0.07 0,0.15 0,0.22 0,0.16 0.01,0.34 0.04,0.5 0.02,0.11 0.04,0.23 0.1,0.32 0.03,0.05 0.05,0.11 0.09,0.15 0.05,0.05 0.1,0.09 0.16,0.13 0.03,0.03 0.07,0.04 0.11,0.05 0.05,0.01 0.11,0.03 0.16,0.03 0.02,0 0.04,0 0.06,-0.01 0.07,-0.02 0.14,-0.08 0.2,-0.12 0.07,-0.05 0.09,-0.12 0.12,-0.19 0.04,-0.08 0.05,-0.2 0.06,-0.29 0.01,-0.1 0.01,-0.21 0,-0.32 -0.01,-0.14 -0.02,-0.29 -0.07,-0.43 -0.04,-0.1 -0.07,-0.21 -0.14,-0.3 -0.05,-0.06 -0.11,-0.15 -0.18,-0.19 -0.06,-0.03 -0.12,-0.07 -0.2,-0.07 -0.01,0 -0.01,0 -0.02,0 -0.03,0.01 -0.06,0.01 -0.1,0.03 z m 20.72,-0.21 c -0.06,0.01 -0.1,0.03 -0.16,0.05 -0.14,0.05 -0.25,0.17 -0.36,0.27 -0.11,0.11 -0.21,0.22 -0.31,0.34 -0.07,0.08 -0.13,0.19 -0.15,0.29 -0.02,0.14 0.02,0.27 0.14,0.34 0.04,0.02 0.08,0.03 0.12,0.04 0.03,0 0.05,0.01 0.07,0.01 0.01,0 0.02,0 0.02,0 0.05,-0.01 0.14,-0.02 0.19,-0.04 0.07,-0.03 0.13,-0.06 0.2,-0.1 0.14,-0.08 0.27,-0.2 0.39,-0.3 0.06,-0.05 0.13,-0.11 0.19,-0.17 0.12,-0.11 0.28,-0.26 0.25,-0.44 -0.01,-0.07 -0.04,-0.13 -0.09,-0.18 -0.05,-0.05 -0.13,-0.09 -0.21,-0.1 0,0 0,0 -0.01,0 -0.02,-0.01 -0.04,-0.01 -0.06,-0.01 -0.03,0 -0.07,0 -0.1,0 -0.02,-0.01 -0.07,-0.01 -0.12,0 z m -36.9799998,-0.44 c -0.07,0.02 -0.14,0.08 -0.18,0.13 -0.07,0.09 -0.13,0.17 -0.17,0.29 -0.03,0.09 -0.03,0.19 -0.03,0.28 0,0.04 0.02,0.09 0.04,0.12 0.02,0.07 0.04,0.14 0.09,0.2 0.05,0.05 0.13,0.09 0.21,0.09 0.03,0 0.06,0 0.09,-0.01 0.18,-0.06 0.28,-0.24 0.34,-0.41 0.07,-0.21 0.09,-0.66 -0.21,-0.71 -0.01,0 -0.03,0 -0.04,0 -0.06,-0.01 -0.1,0 -0.14,0.02 z m 9.9799998,-3.22 c -0.04,0.01 -0.06,0.02 -0.09,0.04 0,0 -0.01,0.01 -0.01,0.01 -0.04,0 -0.08,0.01 -0.12,0.03 -0.09,0.04 -0.14,0.12 -0.2,0.21 -0.04,0.07 -0.07,0.14 -0.11,0.21 -0.03,0.08 -0.06,0.16 -0.08,0.25 -0.02,0.05 -0.03,0.11 -0.04,0.17 -0.02,0.09 -0.03,0.19 -0.03,0.29 -0.01,0.12 0,0.23 0.01,0.35 0,0.11 0.03,0.22 0.05,0.33 0.01,0.07 0.03,0.13 0.05,0.19 0.04,0.09 0.09,0.21 0.18,0.27 0.05,0.03 0.12,0.09 0.19,0.11 0.04,0.02 0.1,0.02 0.14,0.02 0.01,0 0.02,0 0.04,0 0.05,0 0.1,-0.01 0.15,-0.03 0.05,-0.02 0.11,-0.06 0.15,-0.09 0.04,-0.03 0.09,-0.09 0.12,-0.12 0.04,-0.04 0.09,-0.13 0.11,-0.18 0.05,-0.09 0.08,-0.21 0.11,-0.3 0.04,-0.1 0.05,-0.21 0.06,-0.31 0.03,-0.17 0.02,-0.36 -0.01,-0.53 -0.03,-0.15 -0.05,-0.31 -0.11,-0.46 -0.02,-0.05 -0.04,-0.1 -0.06,-0.14 -0.02,-0.04 -0.05,-0.08 -0.07,-0.12 -0.04,-0.07 -0.11,-0.13 -0.19,-0.17 -0.03,-0.01 -0.06,-0.02 -0.09,-0.02 -0.02,0 -0.05,0 -0.08,0 -0.02,-0.02 -0.05,-0.02 -0.07,-0.01 z m -8.4999998,0.35 c -0.07,0.02 -0.14,0.07 -0.2,0.12 -0.05,0.04 -0.1,0.09 -0.13,0.14 -0.07,0.1 -0.14,0.21 -0.18,0.33 -0.04,0.1 -0.09,0.21 -0.11,0.32 -0.02,0.07 -0.03,0.14 -0.04,0.21 0,0.01 0,0.02 0,0.02 0,0.03 -0.01,0.05 -0.01,0.08 -0.02,0.1 -0.01,0.19 -0.01,0.29 0,0.05 0.03,0.1 0.05,0.15 0.04,0.09 0.13,0.13 0.23,0.13 0.02,0 0.03,0 0.05,0 0.05,-0.01 0.1,-0.02 0.14,-0.04 0.05,-0.03 0.1,-0.06 0.14,-0.11 0.07,-0.05 0.14,-0.13 0.2,-0.2 0.14,-0.19 0.24,-0.41 0.27,-0.64 0.02,-0.12 0.04,-0.24 0.02,-0.37 -0.01,-0.05 -0.02,-0.11 -0.03,-0.16 0,-0.02 -0.01,-0.04 -0.02,-0.06 -0.03,-0.05 -0.05,-0.11 -0.1,-0.14 -0.04,-0.03 -0.07,-0.05 -0.12,-0.05 -0.04,-0.01 -0.07,-0.02 -0.11,-0.02 0,0 -0.02,0 -0.04,0 z m 30.8099998,-0.91 c -0.02,0 -0.05,0.01 -0.07,0.03 -0.05,0 -0.1,0.01 -0.14,0.03 -0.05,0.02 -0.1,0.05 -0.14,0.08 -0.08,0.06 -0.11,0.1 -0.18,0.17 -0.04,0.04 -0.07,0.08 -0.09,0.12 -0.04,0.06 -0.07,0.12 -0.1,0.19 -0.05,0.11 -0.09,0.21 -0.12,0.33 -0.03,0.12 -0.07,0.24 -0.09,0.36 -0.02,0.1 -0.03,0.2 -0.04,0.3 -0.01,0.07 0,0.14 0.01,0.2 0.01,0.05 0.02,0.11 0.05,0.16 0.02,0.04 0.05,0.1 0.08,0.14 0.03,0.03 0.06,0.06 0.1,0.09 0.09,0.07 0.2,0.1 0.31,0.12 0.02,0 0.04,0 0.05,0 0.04,0 0.07,0 0.12,-0.01 0.02,0 0.04,0 0.07,-0.01 0.11,-0.04 0.21,-0.09 0.3,-0.17 0.13,-0.12 0.21,-0.27 0.3,-0.43 0.08,-0.14 0.14,-0.3 0.19,-0.45 0.03,-0.09 0.04,-0.18 0.05,-0.27 0,-0.05 0,-0.11 -0.02,-0.16 0,-0.01 0,-0.02 0,-0.04 0,0 0,-0.01 0,-0.02 0,-0.07 0,-0.14 -0.02,-0.21 0,-0.03 -0.01,-0.06 -0.03,-0.09 -0.05,-0.11 -0.09,-0.19 -0.18,-0.28 -0.04,-0.04 -0.07,-0.07 -0.1,-0.1 -0.03,-0.02 -0.05,-0.04 -0.08,-0.06 -0.04,-0.02 -0.08,-0.04 -0.13,-0.04 -0.05,0.01 -0.07,0.02 -0.1,0.02 z m -17.94,0.73 c -0.1,0.04 -0.19,0.09 -0.25,0.17 -0.06,0.08 -0.11,0.17 -0.13,0.26 -0.02,0.09 -0.05,0.19 -0.04,0.28 0.02,0.1 0.03,0.19 0.08,0.28 0.04,0.06 0.08,0.12 0.14,0.17 0.01,0.01 0.02,0.02 0.02,0.04 0.05,0.06 0.1,0.12 0.17,0.15 0.07,0.04 0.15,0.08 0.23,0.08 0.02,0 0.04,0 0.06,-0.01 0.09,-0.02 0.18,-0.04 0.25,-0.1 0.14,-0.13 0.21,-0.33 0.21,-0.53 0,-0.16 0.01,-0.29 -0.05,-0.43 -0.02,-0.07 -0.09,-0.14 -0.12,-0.19 -0.01,-0.02 -0.03,-0.03 -0.05,-0.04 -0.05,-0.05 -0.12,-0.08 -0.18,-0.11 -0.02,-0.01 -0.04,-0.02 -0.06,-0.02 -0.05,0 -0.11,-0.02 -0.16,-0.02 -0.04,0 -0.08,0.01 -0.12,0.02 z m 31.43,0.43 c -0.01,0.01 -0.02,0.01 -0.03,0.02 -0.01,0 -0.02,0.01 -0.03,0.01 -0.09,0.04 -0.16,0.14 -0.19,0.24 -0.01,0.04 -0.02,0.08 -0.03,0.12 0,0.05 0,0.1 -0.01,0.15 0,0.04 0.01,0.09 0.02,0.13 0,0.02 0.01,0.05 0.02,0.07 0.04,0.1 0.12,0.19 0.23,0.21 0.02,0 0.04,0 0.06,0 0.08,0 0.15,-0.02 0.21,-0.08 0.04,-0.04 0.08,-0.1 0.09,-0.16 0.03,-0.09 0.05,-0.18 0.05,-0.27 0,-0.12 0,-0.25 -0.06,-0.36 -0.04,-0.08 -0.12,-0.12 -0.21,-0.12 -0.03,0 -0.08,0.01 -0.12,0.04 z m -28.93,-0.49 c -0.01,0.03 -0.02,0.07 -0.03,0.1 0,0.05 -0.01,0.11 -0.02,0.16 -0.02,0.07 -0.02,0.15 -0.02,0.21 0,0.09 0,0.19 0.04,0.27 0,0 0,0 0,0.01 0,0.05 0.01,0.09 0.02,0.14 0.02,0.09 0.04,0.14 0.07,0.23 0.02,0.07 0.07,0.14 0.12,0.19 0.02,0.02 0.05,0.04 0.08,0.06 0.05,0.02 0.12,0.05 0.19,0.05 0.02,0 0.03,0 0.05,0 0.05,-0.01 0.09,-0.03 0.12,-0.06 0.04,-0.04 0.1,-0.07 0.13,-0.12 0.07,-0.11 0.09,-0.24 0.11,-0.36 0.04,-0.18 0.02,-0.37 0,-0.55 -0.01,-0.07 -0.04,-0.14 -0.07,-0.21 -0.01,-0.03 -0.03,-0.06 -0.05,-0.09 -0.05,-0.05 -0.09,-0.12 -0.16,-0.15 -0.05,-0.02 -0.1,-0.05 -0.15,-0.05 -0.05,-0.01 -0.09,0 -0.14,0.01 -0.02,0 -0.04,-0.01 -0.06,-0.01 0,0 0,0 -0.01,0 -0.08,0 -0.19,0.07 -0.22,0.17 z m 23.2,-0.98 c -0.05,0 -0.11,0.03 -0.14,0.07 -0.01,0.01 -0.02,0.02 -0.03,0.03 -0.01,0 -0.02,0.01 -0.02,0.01 -0.08,0.04 -0.13,0.13 -0.13,0.22 0,0.03 0,0.06 0,0.09 0.01,0.06 0.03,0.11 0.05,0.17 0.02,0.07 0.05,0.13 0.1,0.19 0.09,0.12 0.18,0.24 0.3,0.33 0.08,0.06 0.16,0.13 0.26,0.17 0.1,0.04 0.2,0.09 0.3,0.09 0.03,0 0.06,0 0.09,-0.01 0.09,-0.02 0.17,-0.09 0.2,-0.18 0.02,-0.05 0.03,-0.12 0.02,-0.17 -0.01,-0.07 -0.03,-0.14 -0.06,-0.2 -0.01,-0.02 -0.02,-0.04 -0.02,-0.06 -0.07,-0.13 -0.15,-0.26 -0.25,-0.37 -0.09,-0.1 -0.17,-0.18 -0.27,-0.25 -0.06,-0.04 -0.13,-0.08 -0.2,-0.1 -0.02,-0.01 -0.04,-0.01 -0.07,-0.01 -0.06,-0.02 -0.09,-0.02 -0.13,-0.02 z m 4.6,-0.46 c -0.04,0.12 -0.04,0.26 -0.04,0.39 0,0.13 0.01,0.26 0.04,0.39 0.02,0.11 0.07,0.19 0.13,0.29 0.04,0.06 0.11,0.09 0.17,0.12 0.03,0.02 0.07,0.03 0.11,0.03 0.05,0 0.1,-0.01 0.14,-0.04 0.04,-0.03 0.1,-0.06 0.13,-0.1 0.05,-0.05 0.07,-0.13 0.1,-0.19 0.03,-0.05 0.05,-0.14 0.06,-0.2 0.01,-0.05 0.02,-0.11 0.02,-0.16 0,-0.07 0,-0.14 -0.01,-0.2 -0.02,-0.06 -0.04,-0.11 -0.07,-0.17 -0.05,-0.11 -0.12,-0.2 -0.2,-0.28 -0.07,-0.07 -0.18,-0.1 -0.27,-0.07 -0.02,0 -0.03,0.01 -0.04,0.02 -0.01,0 -0.02,0 -0.04,0 -0.1,0.01 -0.2,0.06 -0.23,0.17 z m -24.46,-0.9 c -0.06,0.02 -0.14,0.03 -0.19,0.08 -0.04,0.04 -0.09,0.08 -0.12,0.13 -0.05,0.07 -0.1,0.14 -0.14,0.21 -0.07,0.11 -0.12,0.25 -0.14,0.37 -0.01,0.06 -0.02,0.13 -0.02,0.19 0.01,0.11 0.09,0.2 0.18,0.23 0.04,0.01 0.07,0.02 0.11,0.02 0.04,0 0.08,-0.01 0.12,-0.02 0.12,-0.03 0.23,-0.09 0.34,-0.16 0.06,-0.04 0.12,-0.1 0.17,-0.15 0.03,-0.03 0.06,-0.06 0.09,-0.09 0.08,-0.11 0.16,-0.2 0.2,-0.32 0.02,-0.06 0.04,-0.13 0.02,-0.2 -0.01,-0.05 -0.04,-0.09 -0.07,-0.13 -0.06,-0.09 -0.16,-0.12 -0.26,-0.1 0,0 -0.01,0 -0.02,0 -0.03,-0.02 -0.05,-0.04 -0.09,-0.05 -0.03,-0.01 -0.08,-0.02 -0.12,-0.02 -0.02,0 -0.04,0 -0.06,0.01 z m -3.77,-1.64 c -0.07,0.02 -0.13,0.07 -0.16,0.14 -0.02,0.01 -0.04,0.02 -0.06,0.04 -0.07,0.05 -0.1,0.14 -0.09,0.23 0.01,0.07 0.02,0.12 0.04,0.18 0.04,0.09 0.07,0.18 0.11,0.27 0.07,0.15 0.14,0.3 0.22,0.45 0.12,0.21 0.26,0.46 0.53,0.52 0.02,0 0.04,0.01 0.05,0.01 0.07,0 0.14,-0.03 0.19,-0.09 0.03,-0.04 0.07,-0.08 0.07,-0.14 0.01,-0.11 0.03,-0.19 0.02,-0.3 -0.04,-0.26 -0.08,-0.53 -0.2,-0.76 -0.07,-0.12 -0.14,-0.23 -0.23,-0.35 -0.06,-0.08 -0.12,-0.13 -0.2,-0.18 -0.04,-0.02 -0.07,-0.04 -0.12,-0.05 -0.01,0 -0.02,0 -0.03,0 -0.05,0.01 -0.09,0.02 -0.14,0.03 z m -2.89,-0.26 c -0.06,0.01 -0.12,0.03 -0.16,0.08 -0.04,0.04 -0.06,0.09 -0.09,0.14 -0.01,0.02 -0.02,0.04 -0.02,0.06 -0.04,0.13 -0.03,0.27 -0.03,0.4 0,0.12 0.02,0.24 0.04,0.36 0.01,0.07 0.03,0.14 0.05,0.21 0.04,0.14 0.08,0.28 0.15,0.4 0.05,0.1 0.08,0.14 0.15,0.23 0.02,0.02 0.03,0.03 0.05,0.05 0.07,0.05 0.15,0.12 0.24,0.13 0.02,0 0.04,0.01 0.06,0.01 0.07,0 0.13,-0.02 0.19,-0.04 0.04,-0.02 0.07,-0.05 0.1,-0.08 0.06,-0.07 0.11,-0.14 0.13,-0.24 0.02,-0.12 0.04,-0.22 0.04,-0.34 0,-0.18 -0.01,-0.36 -0.05,-0.53 -0.02,-0.1 -0.05,-0.2 -0.1,-0.3 -0.02,-0.06 -0.05,-0.12 -0.08,-0.17 -0.04,-0.09 -0.11,-0.19 -0.18,-0.25 -0.06,-0.05 -0.13,-0.11 -0.21,-0.13 -0.05,-0.01 -0.1,0 -0.15,0.02 -0.02,-0.01 -0.05,-0.02 -0.07,-0.02 -0.01,0 -0.04,0.01 -0.06,0.01 z m 13.39,0.13 c -0.04,0 -0.07,0 -0.1,0.01 -0.06,0.02 -0.12,0.04 -0.18,0.07 -0.05,0.03 -0.1,0.06 -0.15,0.1 -0.05,0.04 -0.1,0.09 -0.13,0.14 -0.02,0.04 -0.04,0.07 -0.06,0.11 -0.02,0.04 -0.03,0.08 -0.04,0.12 -0.02,0.06 -0.02,0.13 -0.02,0.19 0.01,0.16 0.1,0.33 0.2,0.45 0.07,0.08 0.14,0.16 0.22,0.22 0.1,0.07 0.15,0.1 0.26,0.15 0.07,0.04 0.15,0.05 0.22,0.06 0.07,0 0.11,0.01 0.15,0.01 0.05,0 0.09,-0.01 0.18,-0.02 0.07,-0.01 0.15,-0.04 0.21,-0.06 0.07,-0.02 0.14,-0.06 0.2,-0.1 0.11,-0.08 0.21,-0.16 0.28,-0.28 0.03,-0.04 0.05,-0.09 0.07,-0.13 0.01,-0.04 0.02,-0.07 0.04,-0.11 0.02,-0.05 0.01,-0.12 0.02,-0.18 0.01,-0.15 -0.07,-0.3 -0.14,-0.43 -0.07,-0.12 -0.18,-0.22 -0.29,-0.3 -0.04,-0.04 -0.1,-0.06 -0.15,-0.08 -0.05,-0.02 -0.11,-0.04 -0.17,-0.04 -0.05,0 -0.12,-0.01 -0.18,0 -0.13,0.03 -0.17,0.04 -0.29,0.08 -0.02,0.01 -0.05,0.02 -0.08,0.03 0,0 -0.01,0 -0.02,0 -0.02,-0.01 -0.03,-0.01 -0.05,-0.01 z m -8.53,-0.78 c 0,0 0,0 0,0 -0.06,0.02 -0.11,0.05 -0.15,0.11 -0.04,0.07 -0.06,0.16 -0.06,0.24 -0.01,0.15 0,0.3 0.01,0.46 0,0.05 0,0.11 0.01,0.17 0.01,0.11 0.02,0.23 0.04,0.34 0.02,0.05 0.03,0.16 0.07,0.22 0.02,0.04 0.06,0.08 0.09,0.11 0.05,0.05 0.11,0.07 0.18,0.07 0.07,0 0.13,-0.02 0.18,-0.07 0.04,-0.04 0.09,-0.07 0.12,-0.12 0.03,-0.05 0.05,-0.11 0.07,-0.17 0.01,-0.05 0.02,-0.1 0.03,-0.15 0.01,-0.05 0.02,-0.1 0.02,-0.14 0.01,-0.11 0.02,-0.22 0.02,-0.32 -0.01,-0.16 -0.02,-0.34 -0.07,-0.5 -0.02,-0.07 -0.04,-0.15 -0.09,-0.21 -0.03,-0.04 -0.07,-0.07 -0.11,-0.09 -0.04,-0.03 -0.09,-0.05 -0.14,-0.05 -0.09,0 -0.17,0.04 -0.22,0.1 z m 18.37,0.99 c 0,0.04 0,0.07 0,0.1 0,0.06 0.03,0.11 0.06,0.15 0.07,0.18 0.2,0.32 0.36,0.4 0.05,0.02 0.1,0.04 0.15,0.04 0.07,0 0.14,-0.03 0.2,-0.09 0.05,-0.06 0.08,-0.15 0.07,-0.23 0,-0.05 0,-0.11 -0.02,-0.16 -0.04,-0.12 -0.05,-0.15 -0.11,-0.27 -0.04,-0.08 -0.11,-0.15 -0.16,-0.22 -0.02,-0.02 -0.05,-0.04 -0.08,-0.05 -0.07,-0.04 -0.13,-0.03 -0.2,-0.02 -0.06,0.01 -0.11,0.04 -0.15,0.09 -0.08,0.05 -0.12,0.14 -0.12,0.23 0,0 0,0 0,0 0,0.02 0,0.02 0,0.03 0,0 0,-0.01 0,-0.01 z m -12.86,-1.05 c -0.06,0.02 -0.12,0.06 -0.17,0.11 -0.02,0.02 -0.04,0.05 -0.05,0.09 -0.02,0.05 -0.05,0.12 -0.05,0.18 -0.01,0.16 0.01,0.31 0.04,0.47 0.01,0.06 0.03,0.12 0.05,0.18 0.03,0.08 0.06,0.16 0.1,0.23 0.06,0.09 0.13,0.19 0.23,0.26 0.04,0.03 0.11,0.05 0.15,0.06 0.03,0.01 0.07,0.02 0.1,0.02 0.06,0 0.11,-0.03 0.17,-0.05 0.02,0 0.04,-0.02 0.06,-0.03 0.03,-0.02 0.05,-0.04 0.07,-0.07 0.05,-0.06 0.1,-0.11 0.12,-0.18 0.03,-0.08 0.04,-0.12 0.06,-0.21 0,-0.05 0.01,-0.09 0.01,-0.14 0,-0.08 -0.01,-0.16 -0.02,-0.24 -0.01,-0.05 -0.02,-0.11 -0.03,-0.16 -0.04,-0.12 -0.07,-0.25 -0.16,-0.35 -0.04,-0.04 -0.08,-0.07 -0.12,-0.1 -0.03,-0.02 -0.06,-0.03 -0.09,-0.04 -0.07,-0.01 -0.15,-0.02 -0.22,0 -0.01,0 -0.03,0.01 -0.04,0.02 0,0 -0.01,0 -0.02,-0.01 -0.04,-0.02 -0.09,-0.03 -0.13,-0.03 -0.02,-0.02 -0.03,-0.02 -0.06,-0.01 z m 25.03,0.78 c -0.18,0.09 -0.18,0.28 -0.14,0.45 0.02,0.11 0.13,0.18 0.25,0.18 0.02,0 0.04,0 0.06,-0.01 0.13,-0.04 0.2,-0.18 0.17,-0.31 v 0 c 0,0.01 0,0.02 0.01,0.03 0,-0.02 -0.01,-0.04 -0.01,-0.06 0,0.01 0,0.02 0,0.03 0,-0.01 0,-0.03 0,-0.04 0,0.01 0,0.02 -0.01,0.03 0.02,-0.05 0.02,-0.11 -0.01,-0.16 -0.04,-0.09 -0.13,-0.15 -0.23,-0.15 -0.02,-0.01 -0.06,0 -0.09,0.01 z m -13.22,-1.43 c -0.06,0.02 -0.12,0.04 -0.17,0.07 -0.03,0.01 -0.05,0.03 -0.08,0.04 -0.1,0.05 -0.18,0.15 -0.27,0.23 -0.1,0.09 -0.18,0.2 -0.27,0.3 -0.06,0.07 -0.12,0.16 -0.17,0.24 -0.03,0.05 -0.05,0.09 -0.08,0.14 -0.05,0.09 -0.09,0.18 -0.12,0.28 -0.03,0.06 -0.04,0.13 -0.05,0.2 0,0.06 0.03,0.11 0.05,0.17 0.02,0.04 0.04,0.08 0.07,0.11 0.05,0.05 0.13,0.06 0.2,0.08 0.02,0 0.04,0.01 0.07,0.01 0.04,0 0.08,-0.01 0.12,-0.02 0.12,-0.02 0.25,-0.1 0.34,-0.18 0.23,-0.21 0.43,-0.44 0.61,-0.7 0.11,-0.16 0.2,-0.33 0.25,-0.52 0.02,-0.06 0.01,-0.14 0,-0.2 -0.01,-0.04 -0.02,-0.08 -0.05,-0.12 -0.06,-0.07 -0.13,-0.15 -0.23,-0.15 -0.04,0 -0.08,-0.01 -0.12,-0.01 -0.04,0.02 -0.07,0.03 -0.1,0.03 z m -3.11,-0.46 c -0.07,0.02 -0.14,0.08 -0.2,0.12 -0.04,0.03 -0.09,0.1 -0.11,0.14 -0.02,0.04 -0.05,0.08 -0.07,0.12 -0.03,0.06 -0.06,0.12 -0.09,0.18 -0.05,0.11 -0.09,0.22 -0.14,0.33 -0.06,0.16 -0.13,0.34 -0.16,0.51 0,0.07 0,0.14 0,0.2 0,0.02 0,0.05 0.01,0.07 0.02,0.08 0.09,0.14 0.14,0.2 0.03,0.03 0.06,0.06 0.1,0.07 0.09,0.04 0.16,0.06 0.26,0.06 0.09,0 0.17,-0.02 0.26,-0.05 0.08,-0.03 0.15,-0.07 0.21,-0.13 0.09,-0.07 0.16,-0.15 0.22,-0.25 0.06,-0.09 0.12,-0.19 0.17,-0.29 0.05,-0.09 0.08,-0.19 0.11,-0.29 0.04,-0.1 0.07,-0.22 0.07,-0.33 0.01,-0.11 0.02,-0.21 0,-0.32 -0.01,-0.06 -0.04,-0.11 -0.07,-0.16 -0.04,-0.06 -0.1,-0.11 -0.17,-0.12 -0.04,-0.07 -0.11,-0.11 -0.19,-0.11 0,0 -0.01,0 -0.02,0 -0.09,0.02 -0.21,0.02 -0.33,0.05 z m -28.06,0.4 c -0.04,0.01 -0.07,0.04 -0.1,0.08 -0.08,0.04 -0.13,0.11 -0.15,0.2 -0.01,0.07 0.01,0.14 0.05,0.2 0.12,0.16 0.29,0.29 0.46,0.39 0.15,0.08 0.31,0.17 0.48,0.2 0.02,0 0.05,0 0.07,0 0.04,0 0.09,-0.01 0.13,-0.02 0.12,-0.06 0.18,-0.2 0.13,-0.33 -0.02,-0.04 -0.03,-0.08 -0.06,-0.11 -0.06,-0.08 -0.12,-0.15 -0.2,-0.22 -0.06,-0.05 -0.11,-0.11 -0.17,-0.15 -0.09,-0.07 -0.15,-0.11 -0.24,-0.16 -0.07,-0.04 -0.16,-0.08 -0.25,-0.09 -0.01,0 -0.02,0 -0.03,0 -0.04,-0.02 -0.08,0 -0.12,0.01 z m 44.82,0.63 c -0.01,0.11 0.01,0.2 0.07,0.29 0.05,0.07 0.12,0.11 0.2,0.11 0.05,0 0.1,-0.02 0.14,-0.05 0.1,-0.07 0.12,-0.18 0.09,-0.29 v 0 c 0.01,-0.14 -0.1,-0.25 -0.24,-0.27 0,0 -0.01,0 -0.02,0 -0.11,0 -0.22,0.1 -0.24,0.21 z m -28.4,-1.72 c -0.03,0.03 -0.05,0.06 -0.06,0.11 -0.01,0.03 -0.02,0.06 -0.02,0.09 v 0 c -0.03,0.06 -0.03,0.12 -0.04,0.19 -0.01,0.1 0.02,0.21 0.04,0.31 0.02,0.06 0.03,0.12 0.05,0.17 0.02,0.07 0.05,0.13 0.08,0.2 0.04,0.1 0.09,0.2 0.15,0.29 0.03,0.05 0.06,0.09 0.1,0.14 0.02,0.04 0.05,0.08 0.07,0.12 0.04,0.05 0.09,0.11 0.15,0.15 0.06,0.04 0.12,0.07 0.19,0.07 0.01,0 0.02,0 0.03,0 0.1,-0.01 0.19,-0.07 0.22,-0.17 0.02,-0.05 0.04,-0.11 0.03,-0.16 0,-0.16 -0.02,-0.31 -0.05,-0.46 -0.04,-0.17 -0.09,-0.34 -0.16,-0.5 -0.04,-0.11 -0.09,-0.22 -0.16,-0.32 -0.07,-0.11 -0.17,-0.25 -0.31,-0.28 -0.01,0 -0.02,0 -0.03,0 -0.03,-0.02 -0.06,-0.02 -0.1,-0.02 -0.05,-0.01 -0.13,0.02 -0.18,0.07 z m 3.98,0.29 c -0.05,0.05 -0.08,0.14 -0.08,0.21 0,0.05 0,0.1 0.02,0.14 0.01,0.04 0.03,0.07 0.05,0.11 0.04,0.07 0.1,0.11 0.17,0.12 0.06,0.05 0.11,0.08 0.18,0.11 0.02,0.01 0.05,0.01 0.07,0.01 0.02,0 0.05,0 0.08,-0.01 0.04,0 0.09,-0.02 0.13,-0.04 0.07,-0.03 0.12,-0.11 0.14,-0.18 0.02,-0.07 0.04,-0.16 0,-0.23 -0.05,-0.1 -0.09,-0.2 -0.18,-0.27 -0.07,-0.05 -0.14,-0.11 -0.22,-0.14 -0.02,-0.01 -0.05,-0.01 -0.07,-0.01 -0.11,0.02 -0.22,0.09 -0.29,0.18 z m 18.74,-1.18 c -0.03,0 -0.05,0.02 -0.08,0.03 -0.02,0.01 -0.04,0.02 -0.06,0.03 -0.05,0.04 -0.08,0.09 -0.11,0.15 -0.02,0.03 -0.03,0.06 -0.04,0.09 -0.01,0.06 -0.02,0.12 -0.01,0.18 0.01,0.11 0.02,0.21 0.05,0.31 0.04,0.18 0.08,0.36 0.15,0.52 0.04,0.08 0.07,0.14 0.11,0.22 0.05,0.08 0.11,0.14 0.19,0.19 0.04,0.02 0.08,0.04 0.12,0.04 0.09,0 0.17,-0.05 0.22,-0.12 0.02,-0.04 0.04,-0.07 0.05,-0.1 0.02,-0.07 0.04,-0.14 0.04,-0.21 0.01,-0.06 0.02,-0.12 0.02,-0.19 0,-0.19 0,-0.39 -0.07,-0.57 -0.03,-0.09 -0.06,-0.16 -0.1,-0.25 -0.02,-0.05 -0.05,-0.1 -0.09,-0.14 -0.07,-0.07 -0.13,-0.15 -0.23,-0.17 -0.03,-0.01 -0.06,-0.01 -0.09,-0.01 -0.03,0 -0.04,-0.01 -0.07,0 z m 5.3,0.19 c -0.06,0.02 -0.12,0.05 -0.16,0.11 -0.07,0.11 -0.11,0.21 -0.12,0.34 0,0.07 0,0.13 0,0.19 0,0.05 0.02,0.11 0.04,0.16 0.01,0.04 0.03,0.09 0.05,0.12 0.03,0.05 0.06,0.09 0.11,0.13 0,0 0,0 0.01,0 0.03,0.03 0.06,0.05 0.1,0.06 0.03,0.01 0.06,0.02 0.09,0.02 0.1,0 0.19,-0.05 0.24,-0.14 0.06,-0.12 0.11,-0.25 0.11,-0.39 0,-0.12 0.01,-0.25 -0.04,-0.36 -0.03,-0.06 -0.05,-0.11 -0.1,-0.16 -0.03,-0.03 -0.06,-0.05 -0.09,-0.07 -0.04,-0.02 -0.07,-0.02 -0.11,-0.02 -0.04,0 -0.08,0 -0.13,0.01 z m -21.79,-0.4 c -0.07,0.03 -0.13,0.09 -0.18,0.14 -0.06,0.05 -0.1,0.14 -0.13,0.21 -0.01,0.02 -0.01,0.03 -0.02,0.05 -0.02,0.02 -0.04,0.05 -0.05,0.09 -0.03,0.06 -0.07,0.12 -0.07,0.19 0,0.07 -0.02,0.15 0.01,0.22 0.02,0.06 0.05,0.12 0.07,0.18 0.04,0.05 0.07,0.11 0.11,0.15 0.04,0.06 0.1,0.11 0.16,0.15 0.05,0.03 0.12,0.05 0.19,0.06 0.01,0 0.02,0 0.03,0 0.03,0 0.06,0 0.09,-0.01 0.06,-0.03 0.14,-0.05 0.2,-0.1 0.05,-0.04 0.09,-0.09 0.14,-0.13 0.02,-0.03 0.05,-0.07 0.07,-0.1 0.05,-0.07 0.07,-0.15 0.09,-0.23 0.02,-0.06 0.02,-0.13 0.02,-0.19 0,-0.04 -0.01,-0.09 -0.02,-0.13 -0.01,-0.04 -0.02,-0.08 -0.04,-0.12 -0.03,-0.09 -0.07,-0.18 -0.13,-0.24 -0.05,-0.06 -0.09,-0.12 -0.16,-0.15 -0.06,-0.03 -0.11,-0.06 -0.18,-0.06 0,0 -0.01,0 -0.02,0 -0.06,-0.01 -0.12,0 -0.18,0.02 z m 9.56,-0.62 c -0.04,0.05 -0.07,0.15 -0.09,0.2 -0.02,0.05 -0.03,0.11 -0.04,0.16 -0.04,0.19 -0.02,0.39 0,0.57 0.01,0.15 0.05,0.3 0.09,0.45 0.03,0.11 0.09,0.2 0.14,0.29 0.02,0.03 0.04,0.05 0.07,0.07 0.05,0.04 0.1,0.08 0.15,0.11 0.04,0.02 0.07,0.03 0.11,0.03 0.05,0 0.09,-0.01 0.14,-0.02 0.14,-0.02 0.23,-0.14 0.29,-0.25 0.05,-0.09 0.07,-0.21 0.07,-0.31 0,-0.04 0,-0.07 0,-0.11 0,-0.02 0.01,-0.05 0.01,-0.07 0,-0.1 0.02,-0.21 0,-0.31 -0.02,-0.11 -0.04,-0.21 -0.08,-0.32 -0.03,-0.07 -0.06,-0.14 -0.11,-0.2 -0.03,-0.08 -0.05,-0.15 -0.09,-0.23 -0.02,-0.04 -0.04,-0.09 -0.07,-0.12 -0.05,-0.07 -0.12,-0.13 -0.21,-0.14 -0.02,0 -0.04,0 -0.05,0 -0.02,0 -0.05,-0.01 -0.07,-0.01 -0.12,0.02 -0.19,0.12 -0.26,0.21 z m -32.92,0.44 c -0.07,0.02 -0.12,0.07 -0.17,0.12 -0.02,0.01 -0.05,0.02 -0.07,0.03 -0.06,0.04 -0.12,0.09 -0.15,0.15 -0.02,0.04 -0.06,0.1 -0.07,0.14 -0.01,0.06 -0.04,0.14 -0.04,0.2 0,0.12 0,0.19 0.02,0.31 0.01,0.05 0.02,0.11 0.04,0.16 0.02,0.04 0.04,0.08 0.06,0.11 0.03,0.03 0.05,0.05 0.09,0.08 0.05,0.04 0.1,0.05 0.15,0.05 0.03,0 0.07,0 0.1,-0.01 0.09,-0.01 0.16,-0.08 0.22,-0.14 0.09,-0.09 0.14,-0.25 0.18,-0.37 0.02,-0.09 0.06,-0.21 0.07,-0.3 0,-0.07 0.01,-0.14 0.01,-0.21 0,-0.14 -0.08,-0.27 -0.21,-0.33 -0.03,-0.01 -0.06,-0.02 -0.1,-0.02 -0.05,0.01 -0.09,0.02 -0.13,0.03 z m 42.17,-0.14 c -0.05,0.02 -0.09,0.05 -0.14,0.08 -0.01,0.01 -0.02,0.02 -0.03,0.03 -0.11,0.05 -0.19,0.17 -0.26,0.26 -0.09,0.11 -0.16,0.27 -0.2,0.4 -0.02,0.06 -0.02,0.12 -0.03,0.18 0,0.02 0,0.05 0,0.07 0.02,0.08 0.02,0.17 0.07,0.23 0.04,0.06 0.09,0.12 0.16,0.14 0.05,0.02 0.11,0.03 0.16,0.03 0.02,0 0.04,0 0.06,0 0.04,-0.01 0.09,-0.02 0.12,-0.05 0.1,-0.08 0.19,-0.14 0.25,-0.26 0.05,-0.09 0.09,-0.18 0.12,-0.27 0.04,-0.12 0.09,-0.26 0.1,-0.39 0.01,-0.05 0.01,-0.11 0.01,-0.17 -0.01,-0.03 -0.02,-0.07 -0.02,-0.1 -0.02,-0.1 -0.11,-0.16 -0.21,-0.18 -0.04,0 -0.07,-0.01 -0.1,-0.01 -0.02,0.01 -0.04,0.01 -0.06,0.01 z m -32.81,-0.45 c -0.02,0.04 -0.04,0.07 -0.04,0.11 -0.02,0.1 -0.03,0.19 -0.04,0.29 -0.04,0.27 -0.07,0.55 -0.05,0.82 0.01,0.11 0.02,0.22 0.06,0.32 0.02,0.05 0.05,0.1 0.09,0.15 0.01,0.02 0.03,0.04 0.04,0.05 0.07,0.07 0.18,0.09 0.28,0.09 0.04,0 0.09,-0.01 0.13,-0.04 0.05,-0.04 0.1,-0.06 0.14,-0.11 0.03,-0.03 0.05,-0.05 0.07,-0.09 0.02,-0.04 0.04,-0.09 0.05,-0.13 0.02,-0.05 0.04,-0.12 0.04,-0.18 0.02,-0.14 0.04,-0.29 0.04,-0.43 -0.01,-0.15 -0.02,-0.29 -0.05,-0.44 -0.02,-0.12 -0.07,-0.23 -0.11,-0.34 -0.01,-0.05 -0.04,-0.08 -0.06,-0.11 -0.06,-0.09 -0.15,-0.12 -0.25,-0.11 -0.02,0 -0.04,0.01 -0.07,0.01 -0.02,0 -0.04,0.01 -0.05,0.02 0,0 0,0 -0.01,0 -0.09,0 -0.16,0.05 -0.21,0.12 z m -7.44,-0.2 c -0.01,0.01 -0.02,0.02 -0.02,0.03 -0.02,0 -0.03,0.01 -0.04,0.02 -0.05,0.03 -0.1,0.05 -0.14,0.1 -0.04,0.05 -0.08,0.11 -0.09,0.18 -0.02,0.11 -0.05,0.21 -0.06,0.32 -0.01,0.17 -0.02,0.34 0.01,0.5 0.02,0.11 0.03,0.23 0.06,0.34 0.04,0.11 0.08,0.21 0.14,0.31 0.03,0.06 0.07,0.12 0.14,0.16 0.04,0.03 0.09,0.04 0.14,0.04 0.04,0 0.07,-0.01 0.11,-0.03 0.04,-0.02 0.07,-0.04 0.1,-0.06 0.05,-0.04 0.09,-0.1 0.13,-0.16 0.07,-0.11 0.1,-0.24 0.13,-0.36 0,-0.02 0.01,-0.04 0.02,-0.06 0,0 0,-0.01 0.01,-0.01 0.05,-0.09 0.04,-0.19 0.05,-0.29 0,0 0,-0.01 0,-0.01 0.01,-0.05 0.02,-0.11 0.02,-0.16 0,-0.12 0.01,-0.26 -0.02,-0.38 -0.02,-0.07 -0.04,-0.16 -0.07,-0.22 -0.04,-0.08 -0.06,-0.13 -0.11,-0.2 -0.03,-0.05 -0.08,-0.09 -0.13,-0.12 -0.04,-0.02 -0.08,-0.03 -0.12,-0.03 -0.12,0 -0.21,0.03 -0.26,0.09 z m 2.07,0.9 c -0.04,0.04 -0.06,0.09 -0.07,0.14 -0.02,0.02 -0.03,0.04 -0.04,0.05 -0.05,0.09 -0.04,0.19 -0.03,0.29 0.02,0.1 0.03,0.21 0.07,0.3 0.03,0.05 0.05,0.11 0.09,0.15 0.06,0.06 0.13,0.09 0.2,0.09 0.04,0 0.09,-0.01 0.14,-0.03 0.08,-0.03 0.12,-0.1 0.16,-0.18 0.04,-0.07 0.05,-0.17 0.05,-0.25 0,-0.13 -0.05,-0.25 -0.09,-0.37 -0.03,-0.08 -0.08,-0.14 -0.13,-0.2 -0.05,-0.05 -0.11,-0.07 -0.18,-0.07 -0.06,0 -0.12,0.03 -0.17,0.08 z m 9.96,-0.61 c -0.01,0.01 -0.02,0.02 -0.03,0.04 -0.07,0.02 -0.13,0.05 -0.16,0.12 -0.03,0.05 -0.05,0.1 -0.06,0.16 -0.02,0.12 -0.03,0.23 -0.02,0.36 0.01,0.23 0.05,0.48 0.18,0.69 0.05,0.09 0.13,0.18 0.23,0.23 0.04,0.02 0.07,0.02 0.11,0.02 0.02,0 0.03,0 0.05,0 0.05,0 0.09,-0.02 0.13,-0.04 0.02,0 0.04,-0.01 0.06,-0.02 0.05,-0.02 0.09,-0.05 0.13,-0.08 0.05,-0.04 0.07,-0.09 0.11,-0.14 0.03,-0.05 0.05,-0.11 0.05,-0.17 0.02,-0.12 0.02,-0.19 0.03,-0.3 0,-0.04 -0.01,-0.08 -0.03,-0.12 0,-0.03 0,-0.05 0,-0.08 -0.01,-0.1 -0.02,-0.2 -0.05,-0.29 -0.03,-0.09 -0.05,-0.13 -0.1,-0.21 -0.04,-0.07 -0.11,-0.12 -0.18,-0.17 -0.03,-0.03 -0.07,-0.05 -0.12,-0.05 -0.04,0 -0.09,-0.01 -0.13,-0.01 -0.07,-0.01 -0.14,0 -0.2,0.06 z m 11.65,0.82 c 0,0.14 0.12,0.25 0.25,0.25 0.13,0 0.25,-0.12 0.25,-0.25 0,-0.14 -0.12,-0.25 -0.25,-0.25 -0.13,0 -0.25,0.11 -0.25,0.25 z m 11.66,-1.49 c -0.08,0.03 -0.14,0.11 -0.17,0.19 -0.05,0.11 -0.04,0.22 -0.02,0.32 0,0.02 0,0.05 0,0.07 0,0.05 0.01,0.11 0.02,0.16 0.04,0.15 0.12,0.32 0.23,0.43 0.08,0.08 0.18,0.16 0.29,0.19 0.04,0.01 0.08,0.02 0.12,0.02 0.02,0 0.04,0 0.05,-0.01 0.04,-0.01 0.08,-0.02 0.12,-0.04 0.08,-0.02 0.15,-0.08 0.18,-0.16 0,0 0,0 0,0 0.01,-0.02 0.03,-0.05 0.04,-0.07 0.06,-0.13 0.06,-0.28 0.05,-0.41 0,-0.09 -0.04,-0.18 -0.07,-0.27 -0.02,-0.05 -0.05,-0.1 -0.08,-0.14 -0.04,-0.05 -0.07,-0.1 -0.13,-0.14 -0.06,-0.04 -0.13,-0.1 -0.2,-0.12 -0.07,-0.02 -0.15,-0.06 -0.23,-0.06 -0.01,0 -0.02,0 -0.02,0 -0.06,0.01 -0.12,0.01 -0.18,0.04 z m -9.7,0.4 c -0.04,0.02 -0.07,0.04 -0.11,0.07 -0.03,0.02 -0.05,0.04 -0.07,0.07 -0.05,0.04 -0.1,0.09 -0.14,0.14 -0.08,0.11 -0.09,0.27 0.02,0.36 0.04,0.04 0.08,0.04 0.13,0.06 0.16,0.06 0.32,0.11 0.48,0.14 0.07,0.01 0.14,0.02 0.22,0.02 0.06,0 0.12,0 0.18,-0.01 0.06,-0.01 0.1,-0.02 0.15,-0.05 0.08,-0.04 0.14,-0.12 0.14,-0.21 0,-0.09 0.01,-0.18 -0.06,-0.26 -0.03,-0.04 -0.06,-0.07 -0.1,-0.1 -0.09,-0.06 -0.15,-0.09 -0.25,-0.14 -0.07,-0.04 -0.14,-0.07 -0.22,-0.08 -0.03,-0.01 -0.12,-0.03 -0.19,-0.03 -0.01,0 -0.02,0 -0.03,0 -0.03,0 -0.1,0 -0.15,0.02 z m 12.28,-0.82 c -0.05,0.04 -0.09,0.06 -0.12,0.12 -0.02,0.04 -0.04,0.09 -0.05,0.13 -0.04,0.13 -0.02,0.27 -0.01,0.41 0.01,0.1 0.04,0.19 0.07,0.28 0.02,0.06 0.04,0.11 0.07,0.16 0.02,0.04 0.05,0.11 0.09,0.14 0.04,0.03 0.09,0.1 0.15,0.13 0.05,0.03 0.1,0.04 0.16,0.04 0.05,0 0.09,-0.01 0.13,-0.02 0.08,-0.02 0.12,-0.08 0.18,-0.14 0.03,-0.04 0.05,-0.08 0.06,-0.12 0.02,-0.05 0.04,-0.11 0.04,-0.16 0.01,-0.08 0.02,-0.16 0.02,-0.25 0,-0.09 -0.01,-0.15 -0.03,-0.24 -0.02,-0.11 -0.07,-0.21 -0.12,-0.31 -0.03,-0.05 -0.07,-0.09 -0.11,-0.13 -0.04,-0.05 -0.11,-0.07 -0.17,-0.08 -0.03,0 -0.06,-0.01 -0.09,0 -0.03,-0.01 -0.05,-0.02 -0.08,-0.02 -0.08,0.01 -0.13,0.02 -0.19,0.06 z m -34.82,-1 c -0.09,0.04 -0.16,0.11 -0.22,0.2 -0.02,0.02 -0.05,0.04 -0.07,0.06 -0.06,0.09 -0.09,0.21 -0.11,0.32 -0.02,0.02 -0.03,0.04 -0.05,0.06 -0.02,0.03 -0.03,0.06 -0.04,0.09 -0.02,0.04 -0.03,0.08 -0.03,0.12 -0.01,0.12 -0.02,0.25 -0.01,0.37 0,0.05 0.01,0.1 0.01,0.14 0.01,0.11 0.03,0.22 0.07,0.32 0.02,0.05 0.04,0.09 0.06,0.14 0.01,0.02 0.02,0.04 0.04,0.05 0.04,0.05 0.11,0.11 0.18,0.13 0.03,0.01 0.06,0.02 0.09,0.02 0.01,0 0.02,0 0.04,0 0.13,-0.02 0.27,-0.1 0.35,-0.21 0.06,-0.09 0.11,-0.18 0.15,-0.29 0.04,-0.14 0.08,-0.28 0.08,-0.43 0,-0.12 0.01,-0.23 0,-0.34 -0.01,-0.08 -0.02,-0.16 -0.04,-0.24 -0.02,-0.07 -0.04,-0.14 -0.07,-0.2 -0.02,-0.05 -0.05,-0.11 -0.07,-0.16 -0.01,-0.03 -0.03,-0.05 -0.04,-0.07 -0.02,-0.03 -0.05,-0.06 -0.09,-0.08 -0.04,-0.02 -0.09,-0.04 -0.13,-0.04 -0.02,0.02 -0.06,0.02 -0.1,0.04 z m 11.91,0.84 c -0.02,0.01 -0.05,0.02 -0.07,0.04 -0.02,0 -0.03,0.01 -0.05,0.01 -0.13,0.04 -0.27,0.1 -0.38,0.19 -0.1,0.09 -0.12,0.12 -0.22,0.23 -0.02,0.02 -0.04,0.05 -0.05,0.08 -0.02,0.05 -0.06,0.12 -0.06,0.19 0,0.05 0.01,0.12 0.02,0.17 0.01,0.07 0.05,0.12 0.1,0.16 0.08,0.05 0.15,0.09 0.25,0.1 0.02,0 0.03,0 0.04,0 0.1,0 0.21,-0.02 0.3,-0.07 0.1,-0.04 0.15,-0.07 0.24,-0.13 0.07,-0.05 0.14,-0.12 0.21,-0.18 0.04,-0.04 0.09,-0.08 0.12,-0.12 0,0 0,0 0,-0.01 0.05,-0.05 0.09,-0.12 0.13,-0.18 0.03,-0.07 0.05,-0.15 0.04,-0.22 -0.01,-0.07 -0.05,-0.15 -0.11,-0.2 -0.07,-0.05 -0.14,-0.08 -0.23,-0.1 -0.02,0 -0.04,-0.01 -0.07,-0.01 -0.05,0.01 -0.13,0.03 -0.21,0.05 z m 16.7,-1.04 c -0.03,0.01 -0.05,0.03 -0.08,0.05 -0.04,0.03 -0.07,0.06 -0.1,0.09 -0.04,0.05 -0.09,0.11 -0.12,0.16 -0.02,0.04 -0.04,0.08 -0.05,0.12 -0.01,0.02 -0.02,0.04 -0.04,0.06 -0.07,0.15 -0.08,0.17 -0.12,0.34 -0.01,0.04 -0.02,0.09 -0.02,0.13 0,0.05 -0.01,0.11 0,0.16 0,0.04 0,0.16 0.03,0.22 0.04,0.07 0.06,0.16 0.12,0.21 0.04,0.04 0.09,0.06 0.14,0.09 0.02,0.01 0.04,0.02 0.06,0.02 0.02,0 0.03,0 0.05,0 0.07,0 0.14,-0.02 0.2,-0.04 0.08,-0.03 0.14,-0.1 0.2,-0.16 0.03,-0.02 0.05,-0.04 0.08,-0.06 0.06,-0.05 0.12,-0.14 0.15,-0.22 0.04,-0.08 0.05,-0.14 0.08,-0.22 0.01,-0.04 0.02,-0.09 0.03,-0.13 0.01,-0.05 0.02,-0.11 0.01,-0.17 0,-0.06 0,-0.16 -0.03,-0.23 -0.02,-0.05 -0.05,-0.12 -0.09,-0.17 0,0 0,0 0,-0.01 -0.02,-0.07 -0.06,-0.14 -0.12,-0.19 -0.05,-0.04 -0.11,-0.06 -0.17,-0.07 -0.01,0 -0.02,0 -0.04,0 -0.06,-0.02 -0.11,0 -0.17,0.02 z m 7.97,0.01 c -0.04,0.03 -0.09,0.05 -0.11,0.1 -0.03,0.04 -0.06,0.08 -0.08,0.13 -0.05,0.11 -0.1,0.23 -0.12,0.36 -0.02,0.11 -0.02,0.17 -0.02,0.28 0,0.05 0.01,0.09 0.02,0.14 0.01,0.12 0.06,0.19 0.12,0.29 0.04,0.07 0.12,0.12 0.2,0.12 0.01,0 0.01,0 0.02,0 0.06,0 0.12,0 0.18,-0.03 0.05,-0.02 0.09,-0.07 0.12,-0.11 0.03,-0.04 0.07,-0.1 0.09,-0.15 0.03,-0.07 0.05,-0.14 0.07,-0.21 0.03,-0.17 0.06,-0.36 0.02,-0.52 -0.02,-0.07 -0.04,-0.16 -0.09,-0.22 -0.01,-0.03 -0.03,-0.06 -0.04,-0.09 -0.04,-0.08 -0.12,-0.12 -0.21,-0.12 -0.06,-0.02 -0.12,0 -0.17,0.03 z m -21.62,1.14 c 0.13,0.02 0.22,0.03 0.35,0.04 0.07,0 0.14,0 0.21,-0.01 0.05,0 0.11,-0.03 0.16,-0.05 0.1,-0.05 0.14,-0.15 0.14,-0.25 0,-0.05 -0.01,-0.11 -0.04,-0.15 -0.03,-0.05 -0.07,-0.1 -0.12,-0.12 -0.11,-0.07 -0.22,-0.13 -0.34,-0.18 -0.09,-0.04 -0.16,-0.05 -0.26,-0.08 -0.05,-0.01 -0.1,-0.01 -0.14,-0.02 -0.09,-0.01 -0.2,0.01 -0.29,0.04 -0.04,0 -0.07,0 -0.1,0 -0.09,0 -0.17,0.01 -0.25,0.03 -0.08,0.02 -0.14,0.05 -0.19,0.12 -0.07,0.11 -0.04,0.25 0.05,0.32 0.08,0.07 0.16,0.11 0.26,0.15 0.02,0.01 0.05,0.02 0.07,0.03 0.02,0.02 0.04,0.03 0.06,0.04 0.05,0.03 0.11,0.04 0.16,0.04 0.09,0.02 0.18,0.04 0.27,0.05 z m -12.42,-1.46 c -0.02,0.02 -0.04,0.04 -0.06,0.07 -0.04,0.02 -0.09,0.04 -0.12,0.07 -0.03,0.02 -0.05,0.04 -0.07,0.07 -0.03,0.05 -0.08,0.12 -0.11,0.18 -0.02,0.05 -0.02,0.1 -0.03,0.15 -0.01,0.12 0.02,0.22 0.05,0.34 0.02,0.08 0.06,0.14 0.11,0.22 0.04,0.07 0.08,0.11 0.13,0.17 0.04,0.04 0.09,0.07 0.13,0.11 0.05,0.04 0.11,0.05 0.17,0.05 0.04,0 0.08,-0.01 0.12,-0.02 0.07,-0.01 0.12,-0.05 0.16,-0.1 0.05,-0.07 0.11,-0.12 0.13,-0.2 0.02,-0.08 0.04,-0.14 0.04,-0.23 0.01,-0.07 0.02,-0.16 0.01,-0.23 0,-0.07 -0.01,-0.14 -0.02,-0.21 -0.01,-0.05 -0.02,-0.09 -0.03,-0.14 -0.03,-0.16 -0.16,-0.36 -0.35,-0.36 0,0 -0.01,0 -0.01,0 -0.09,-0.03 -0.19,-0.01 -0.25,0.06 z m 3.13,-0.34 c -0.03,0.02 -0.06,0.04 -0.08,0.06 -0.03,0.03 -0.06,0.07 -0.09,0.11 -0.04,0.07 -0.08,0.14 -0.12,0.2 -0.1,0.18 -0.2,0.35 -0.28,0.54 -0.02,0.04 -0.03,0.09 -0.04,0.13 -0.01,0.02 -0.01,0.04 -0.01,0.07 0,0.07 0,0.15 0.02,0.21 0.02,0.04 0.04,0.07 0.07,0.1 0.04,0.04 0.08,0.07 0.13,0.09 0.04,0.02 0.08,0.03 0.12,0.03 0.08,0 0.16,-0.03 0.22,-0.06 0.14,-0.06 0.25,-0.19 0.34,-0.3 0.13,-0.16 0.22,-0.36 0.29,-0.56 0.05,-0.14 0.05,-0.3 0.02,-0.44 -0.04,-0.14 -0.18,-0.21 -0.31,-0.18 -0.04,-0.03 -0.09,-0.05 -0.14,-0.05 -0.05,0 -0.09,0.02 -0.14,0.05 z m 33.77,0.09 c -0.07,0.05 -0.15,0.12 -0.18,0.21 -0.05,0.14 -0.02,0.32 0.04,0.45 0.05,0.13 0.11,0.26 0.18,0.38 0.03,0.05 0.06,0.08 0.1,0.12 0.05,0.05 0.11,0.07 0.18,0.07 0.07,0 0.14,-0.03 0.2,-0.09 0.07,-0.08 0.08,-0.15 0.1,-0.26 0.02,-0.09 0.03,-0.17 0.02,-0.26 0,-0.09 0,-0.17 -0.02,-0.25 -0.03,-0.12 -0.05,-0.24 -0.14,-0.33 -0.04,-0.05 -0.1,-0.07 -0.16,-0.09 -0.05,-0.02 -0.11,-0.02 -0.16,0 -0.01,0 -0.02,0 -0.03,0 -0.04,0 -0.09,0.02 -0.13,0.05 z m -29.53,0.37 c -0.1,0 -0.2,0.02 -0.29,0.05 -0.08,0.02 -0.17,0.05 -0.24,0.09 -0.05,0.02 -0.12,0.05 -0.17,0.09 -0.04,0.03 -0.05,0.06 -0.07,0.09 -0.07,0.11 -0.06,0.24 0.04,0.33 0,0 0.01,0 0.01,0.01 0.02,0.03 0.04,0.05 0.07,0.07 0.06,0.04 0.14,0.06 0.22,0.06 0.02,0 0.04,0 0.07,0 0.17,-0.03 0.34,-0.06 0.5,-0.09 0.16,-0.03 0.32,-0.05 0.46,-0.12 0.14,-0.07 0.18,-0.23 0.11,-0.36 -0.05,-0.09 -0.14,-0.12 -0.23,-0.16 -0.12,-0.05 -0.24,-0.06 -0.36,-0.06 -0.04,0 -0.08,0 -0.12,0 z m 23.95,-0.63 c -0.05,0.01 -0.1,0.01 -0.14,0.03 -0.03,0.02 -0.06,0.04 -0.09,0.06 -0.02,0.01 -0.04,0.02 -0.07,0.02 -0.02,0.01 -0.04,0.02 -0.06,0.03 -0.06,0.04 -0.12,0.07 -0.17,0.12 -0.06,0.04 -0.11,0.09 -0.15,0.15 -0.03,0.04 -0.06,0.09 -0.09,0.13 -0.02,0.03 -0.03,0.06 -0.04,0.09 -0.01,0.05 -0.04,0.11 -0.03,0.16 0,0.09 0.06,0.15 0.11,0.22 0.04,0.04 0.09,0.07 0.14,0.08 0.03,0.01 0.07,0.01 0.11,0.01 0.04,0 0.07,0 0.1,0 0.03,0 0.07,-0.01 0.09,-0.02 0.06,-0.03 0.15,-0.07 0.21,-0.11 0.07,-0.05 0.11,-0.09 0.17,-0.15 0.05,-0.05 0.09,-0.11 0.13,-0.17 0.08,-0.05 0.13,-0.15 0.11,-0.25 0,-0.01 0,-0.02 -0.01,-0.03 0.01,-0.04 0.01,-0.08 0.01,-0.12 -0.02,-0.12 -0.11,-0.23 -0.23,-0.25 -0.02,0 -0.04,-0.01 -0.05,-0.01 -0.02,0.01 -0.03,0.01 -0.05,0.01 z m -2.72,-0.37 c -0.02,0 -0.04,0.01 -0.06,0.01 -0.05,0.02 -0.09,0.04 -0.14,0.05 -0.23,0.07 -0.46,0.18 -0.62,0.36 -0.07,0.08 -0.11,0.17 -0.15,0.27 -0.02,0.04 -0.02,0.09 -0.02,0.12 0,0.05 0.02,0.1 0.05,0.14 0.04,0.06 0.11,0.09 0.17,0.12 0.03,0.02 0.06,0.02 0.1,0.03 0.06,0.01 0.12,0.01 0.18,0.01 0.12,-0.01 0.21,-0.04 0.32,-0.08 0.11,-0.04 0.22,-0.11 0.32,-0.18 0.13,-0.09 0.25,-0.2 0.35,-0.32 0.07,-0.08 0.11,-0.2 0.07,-0.3 -0.02,-0.06 -0.05,-0.12 -0.1,-0.16 -0.06,-0.05 -0.14,-0.06 -0.22,-0.08 -0.02,0 -0.03,-0.01 -0.05,-0.01 -0.08,0 -0.16,0.02 -0.2,0.02 z m -18.94,-0.13 c 0.01,0 0.02,0 0.03,0 -0.1,0 -0.21,0.01 -0.3,0.06 -0.05,0.03 -0.08,0.07 -0.11,0.12 -0.13,0.08 -0.14,0.27 -0.04,0.38 0.04,0.05 0.07,0.09 0.12,0.11 0.09,0.04 0.17,0.05 0.26,0.07 0.22,0.02 0.43,0.03 0.65,0.03 0.11,0 0.22,-0.01 0.33,-0.02 0.03,0 0.07,0 0.1,-0.01 0.03,-0.01 0.06,-0.02 0.09,-0.03 0.09,-0.03 0.13,-0.11 0.16,-0.18 0.05,-0.11 0.02,-0.25 -0.1,-0.31 -0.12,-0.07 -0.21,-0.12 -0.35,-0.16 -0.12,-0.02 -0.2,-0.04 -0.32,-0.06 -0.07,-0.01 -0.16,-0.02 -0.23,-0.02 -0.1,0.01 -0.2,0.02 -0.29,0.02 z m 26.33,-0.72 c -0.05,0.04 -0.09,0.07 -0.12,0.11 -0.02,0.01 -0.04,0.02 -0.05,0.04 -0.06,0.05 -0.08,0.12 -0.08,0.2 0,0.02 0,0.04 0,0.06 0,0.14 0,0.22 0.01,0.36 0.01,0.09 0.04,0.2 0.08,0.28 0.05,0.09 0.15,0.15 0.25,0.15 0.01,0 0.03,0 0.04,0 0.07,-0.01 0.12,-0.04 0.17,-0.09 0.03,-0.04 0.06,-0.09 0.09,-0.13 0.02,-0.07 0.05,-0.13 0.07,-0.2 0.02,-0.07 0.03,-0.14 0.04,-0.21 0,-0.01 0,-0.02 0,-0.04 0,-0.05 0.01,-0.16 -0.01,-0.23 -0.02,-0.05 -0.03,-0.12 -0.06,-0.18 -0.02,-0.03 -0.04,-0.05 -0.06,-0.08 -0.05,-0.06 -0.12,-0.09 -0.2,-0.09 -0.07,0 -0.12,0.02 -0.17,0.05 z m -30.19,-0.01 c -0.07,0.02 -0.16,0.02 -0.23,0.07 -0.08,0.06 -0.13,0.16 -0.11,0.26 0.02,0.09 0.08,0.16 0.16,0.19 0.03,0.01 0.06,0.02 0.09,0.03 0.01,0.01 0.02,0.02 0.03,0.02 0.06,0.04 0.12,0.07 0.19,0.1 0.1,0.05 0.21,0.07 0.32,0.1 0.11,0.03 0.23,0.05 0.35,0.07 0.2,0.03 0.41,0.06 0.61,0.06 0.03,0 0.07,0 0.1,0 0.11,-0.01 0.21,-0.01 0.31,-0.06 0.1,-0.05 0.16,-0.17 0.13,-0.28 -0.01,-0.05 -0.02,-0.09 -0.05,-0.13 -0.04,-0.05 -0.09,-0.1 -0.14,-0.13 -0.12,-0.07 -0.25,-0.12 -0.38,-0.18 -0.12,-0.05 -0.26,-0.09 -0.39,-0.11 -0.19,-0.03 -0.38,-0.05 -0.57,-0.05 -0.15,0 -0.29,0.01 -0.42,0.04 z m -6.76,-0.15 c -0.12,0.04 -0.22,0.17 -0.18,0.3 0.02,0.05 0.04,0.11 0.09,0.14 0.01,0.02 0.02,0.03 0.03,0.05 0,0 0,0.01 0.01,0.01 0.01,0.02 0.02,0.04 0.04,0.05 0.04,0.04 0.09,0.07 0.14,0.1 0.05,0.04 0.12,0.05 0.18,0.07 0.06,0.02 0.12,0.03 0.19,0.04 0.14,0.02 0.27,0.03 0.41,0.03 0.14,0 0.27,0 0.41,-0.02 0.18,-0.02 0.38,-0.05 0.55,-0.12 0.12,-0.05 0.18,-0.15 0.17,-0.27 0,-0.01 0.01,-0.03 0.01,-0.04 0.02,-0.09 -0.01,-0.2 -0.09,-0.26 -0.04,-0.03 -0.09,-0.07 -0.14,-0.09 -0.04,-0.02 -0.09,-0.03 -0.14,-0.05 -0.19,-0.05 -0.38,-0.08 -0.57,-0.08 -0.02,0 -0.05,0 -0.07,0 -0.36,0.01 -0.71,0.04 -1.04,0.14 z m 35.22,-0.7899999 c -0.04,0.04 -0.09,0.08 -0.11,0.13 -0.07,0.12 -0.1,0.18 -0.15,0.3 -0.05,0.14 -0.08,0.2899999 -0.1,0.4399999 -0.01,0.08 -0.01,0.17 0.01,0.25 0.01,0.05 0.04,0.11 0.06,0.16 0.04,0.08 0.11,0.12 0.18,0.16 0.04,0.02 0.07,0.02 0.11,0.02 0.05,0 0.09,-0.01 0.14,-0.02 0.09,-0.02 0.14,-0.09 0.21,-0.14 0.05,-0.05 0.09,-0.14 0.12,-0.2 0.03,-0.05 0.05,-0.1 0.07,-0.16 0.02,-0.06 0.05,-0.13 0.06,-0.2 0.01,-0.04 0.02,-0.09 0.02,-0.1399999 0,-0.06 0.01,-0.12 0.01,-0.18 0.01,-0.09 -0.01,-0.18 -0.05,-0.26 -0.04,-0.06 -0.06,-0.09 -0.12,-0.13 -0.01,-0.01 -0.02,-0.02 -0.04,-0.02 -0.02,-0.03 -0.05,-0.05 -0.09,-0.07 -0.04,-0.02 -0.09,-0.03 -0.14,-0.03 -0.06,0.01 -0.13,0.03 -0.19,0.09 z m -31.09,0.9199999 c 0,0 0,0 0,0 -0.02,0.13 0.06,0.24 0.18,0.28 0.1,0.03 0.2,0.05 0.3,0.05 0.14,0 0.25,-0.11 0.25,-0.25 0,-0.09 -0.04,-0.16 -0.11,-0.21 -0.03,-0.02 -0.06,-0.04 -0.1,-0.05 -0.03,-0.01 -0.05,-0.01 -0.08,-0.01 -0.06,0 -0.11,-0.01 -0.17,-0.02 -0.01,0 -0.02,0 -0.04,0 -0.1,-0.01 -0.21,0.09 -0.23,0.21 z m 34.66,-1.3599999 c -0.05,0.03 -0.09,0.07 -0.11,0.12 0,0 0,0 -0.01,0.01 -0.04,0.04 -0.07,0.07 -0.1,0.11 -0.08,0.11 -0.16,0.23 -0.2,0.35 -0.02,0.09 -0.05,0.16 -0.04,0.25 0.01,0.06 0.04,0.11 0.07,0.16 0.04,0.07 0.13,0.1099999 0.21,0.1099999 0,0 0.01,0 0.01,0 0.06,0 0.11,0 0.16,-0.03 0.05,-0.03 0.1,-0.06 0.14,-0.09 0.06,-0.05 0.11,-0.11 0.14,-0.18 0.04,-0.05 0.06,-0.1 0.08,-0.15 0.02,-0.04 0.03,-0.07 0.04,-0.11 0.05,-0.13 0.05,-0.29 -0.04,-0.39 0,-0.02 -0.01,-0.04 -0.02,-0.05 -0.05,-0.08 -0.13,-0.13 -0.22,-0.13 -0.03,-0.01 -0.07,0 -0.11,0.02 z m 1.37,-0.88 c -0.05,0.02 -0.11,0.05 -0.14,0.1 -0.04,0.04 -0.05,0.08 -0.08,0.12 -0.03,0.06 -0.04,0.12 -0.04,0.18 -0.01,0.07 0.02,0.13 0.03,0.2 0,0.02 0.02,0.04 0.03,0.06 0.02,0.04 0.04,0.08 0.06,0.11 0.03,0.04 0.07,0.08 0.11,0.11 0.08,0.05 0.16,0.1 0.26,0.1 0,0 0,0 0.01,0 0.09,0 0.17,-0.02 0.24,-0.07 0.11,-0.07 0.18,-0.18 0.19,-0.3 0.04,-0.05 0.05,-0.12 0.05,-0.19 -0.01,-0.09 -0.07,-0.18 -0.12,-0.25 -0.06,-0.08 -0.17,-0.15 -0.27,-0.18 -0.05,-0.02 -0.1,-0.02 -0.16,-0.02 -0.07,0 -0.12,0.01 -0.17,0.03 z m -5.65,-0.1 c -0.1,0.04 -0.2,0.11 -0.27,0.18 -0.09,0.08 -0.18,0.16 -0.24,0.27 -0.05,0.09 -0.07,0.2 -0.02,0.29 0.03,0.05 0.07,0.09 0.12,0.11 0.03,0.02 0.06,0.03 0.1,0.04 0.04,0 0.08,0 0.12,0 0.08,0 0.16,-0.04 0.23,-0.07 0.05,-0.03 0.11,-0.09 0.16,-0.12 0.04,-0.04 0.07,-0.08 0.11,-0.12 0.04,-0.05 0.08,-0.11 0.11,-0.17 0.02,-0.04 0.04,-0.07 0.04,-0.11 0.02,-0.14 -0.08,-0.29 -0.23,-0.29 -0.04,-0.02 -0.08,-0.03 -0.12,-0.03 -0.05,0 -0.08,0 -0.11,0.02 z m 8.2,-0.23 c -0.07,0.04 -0.14,0.07 -0.21,0.12 -0.05,0.03 -0.09,0.08 -0.13,0.12 -0.04,0.04 -0.07,0.09 -0.09,0.13 -0.02,0.04 -0.03,0.07 -0.05,0.11 -0.05,0.12 0,0.25 0.11,0.32 0.05,0.03 0.09,0.04 0.14,0.04 0.04,0 0.07,-0.01 0.11,-0.01 0.06,-0.01 0.12,-0.05 0.16,-0.07 0.06,-0.04 0.1,-0.08 0.15,-0.12 0.08,-0.07 0.15,-0.17 0.21,-0.25 0.02,-0.04 0.04,-0.08 0.05,-0.12 0.04,-0.18 -0.14,-0.35 -0.33,-0.29 -0.01,0 -0.02,0 -0.03,0 -0.02,0 -0.06,0 -0.09,0.02 z m -6.3,-0.35 c -0.05,0.03 -0.1,0.05 -0.15,0.08 -0.02,0.01 -0.05,0.02 -0.06,0.04 -0.04,0.03 -0.08,0.06 -0.11,0.1 -0.05,0.07 -0.07,0.18 -0.04,0.26 0.04,0.11 0.15,0.18 0.26,0.18 0.02,0 0.04,0 0.05,0 0.12,-0.02 0.23,-0.1 0.3,-0.2 0.01,-0.02 0.02,-0.04 0.03,-0.06 0.07,-0.07 0.1,-0.18 0.05,-0.29 -0.04,-0.09 -0.13,-0.14 -0.23,-0.14 -0.03,0 -0.07,0.01 -0.1,0.03 z m 2.04,0.29 c 0,0.14 0.12,0.25 0.25,0.25 0.13,0 0.25,-0.12 0.25,-0.25 0,-0.13 -0.12,-0.25 -0.25,-0.25 -0.14,-0.01 -0.25,0.11 -0.25,0.25 z m 5.1,-0.97 c -0.01,0.13 0.1,0.26 0.24,0.26 0.14,0 0.25,-0.1 0.26,-0.24 0.01,-0.13 -0.1,-0.26 -0.24,-0.26 -0.14,0 -0.26,0.1 -0.26,0.24 z m -1.67,-0.86 c -0.06,0.02 -0.1,0.05 -0.14,0.09 -0.04,0.03 -0.06,0.06 -0.08,0.1 -0.02,0.04 -0.04,0.08 -0.05,0.12 -0.01,0.05 -0.02,0.09 -0.02,0.14 -0.01,0.05 0,0.12 0,0.17 0.02,0.11 0.05,0.21 0.11,0.31 0.03,0.05 0.08,0.1 0.13,0.12 0.04,0.02 0.09,0.03 0.13,0.03 0.04,0 0.09,-0.01 0.12,-0.03 0.08,-0.04 0.16,-0.09 0.21,-0.18 0.04,-0.07 0.07,-0.14 0.09,-0.22 0,-0.02 0.01,-0.03 0.01,-0.05 0.02,-0.04 0.02,-0.09 0.01,-0.14 0,-0.01 0,-0.02 0,-0.04 0,-0.05 -0.02,-0.11 -0.04,-0.16 -0.01,-0.02 -0.02,-0.05 -0.04,-0.07 -0.02,-0.03 -0.04,-0.05 -0.07,-0.07 -0.01,-0.01 -0.01,-0.02 -0.02,-0.02 -0.03,-0.04 -0.07,-0.06 -0.11,-0.09 -0.04,-0.02 -0.08,-0.03 -0.13,-0.03 -0.03,0 -0.07,0 -0.11,0.02 z m 5.49,0.28 c -0.11,0.07 -0.13,0.25 -0.05,0.35 0.02,0.03 0.05,0.05 0.07,0.06 0.04,0.05 0.09,0.09 0.14,0.11 0.04,0.02 0.07,0.02 0.11,0.02 0.09,0 0.18,-0.05 0.22,-0.14 0.06,-0.11 0.02,-0.26 -0.09,-0.32 -0.02,-0.03 -0.03,-0.05 -0.05,-0.07 -0.04,-0.04 -0.09,-0.06 -0.15,-0.07 -0.01,0 -0.02,0 -0.04,0 -0.05,-0.01 -0.11,0.02 -0.16,0.06 z m -7.41,-0.22 c -0.09,0.1 -0.18,0.2 -0.25,0.31 -0.04,0.06 -0.06,0.13 -0.05,0.2 0.02,0.13 0.13,0.22 0.25,0.22 0.01,0 0.02,0 0.02,0 0.06,0 0.11,-0.03 0.16,-0.06 0.09,-0.06 0.17,-0.14 0.24,-0.23 0.05,-0.06 0.09,-0.13 0.1,-0.21 0.02,-0.12 -0.07,-0.25 -0.2,-0.28 -0.03,-0.01 -0.07,-0.02 -0.11,-0.02 -0.05,0 -0.12,0.02 -0.16,0.07 z m 5.43,0.63 c 0.02,0.02 0.04,0.04 0.06,0.05 0.06,0.04 0.13,0.05 0.2,0.05 0,0 0,0 0.01,0 0.13,0 0.24,-0.12 0.24,-0.25 0,-0.13 -0.1,-0.23 -0.22,-0.25 -0.11,-0.06 -0.24,-0.04 -0.32,0.06 -0.07,0.08 -0.07,0.22 0,0.31 0,0 0,0 0,0 0,0 0,0 0,0 0.01,0.01 0.02,0.02 0.03,0.03 z m -7.68,-0.17 c 0,0.13 0.11,0.26 0.24,0.26 0.13,0 0.25,-0.1 0.26,-0.24 0,-0.13 -0.11,-0.26 -0.24,-0.26 -0.13,0 -0.25,0.1 -0.26,0.24 z m 8.7,-0.68 c 0,0.14 0.12,0.24 0.26,0.24 0.14,0 0.25,-0.12 0.24,-0.26 0,-0.14 -0.12,-0.24 -0.26,-0.24 -0.14,0 -0.25,0.13 -0.24,0.26 z m 1.71,-0.15 c 0,0.13 0.11,0.26 0.24,0.26 0.13,0 0.25,-0.1 0.26,-0.24 0,-0.13 -0.11,-0.26 -0.24,-0.26 -0.13,0 -0.26,0.1 -0.26,0.24 z m -8.42,-0.97 c -0.12,0.07 -0.2,0.24 -0.19,0.38 0,0.15 0.12,0.27 0.26,0.27 0.04,0 0.07,-0.01 0.11,-0.02 0.09,-0.04 0.15,-0.12 0.2,-0.2 0.03,-0.05 0.05,-0.1 0.06,-0.16 0.02,-0.12 -0.07,-0.24 -0.18,-0.27 -0.04,-0.02 -0.08,-0.04 -0.13,-0.04 -0.05,0 -0.09,0.01 -0.13,0.04 z m 4.64,-0.05 c -0.03,0.09 -0.01,0.19 0.04,0.27 0.03,0.06 0.06,0.11 0.11,0.16 0.02,0.02 0.04,0.05 0.07,0.07 0.02,0.01 0.04,0.03 0.05,0.04 0.07,0.04 0.15,0.07 0.23,0.07 0.04,0 0.09,-0.01 0.13,-0.03 0.12,-0.06 0.18,-0.2 0.12,-0.33 -0.01,-0.03 -0.03,-0.05 -0.05,-0.07 0,-0.02 -0.01,-0.04 -0.02,-0.06 -0.03,-0.06 -0.08,-0.11 -0.14,-0.13 -0.02,-0.03 -0.05,-0.07 -0.07,-0.09 -0.05,-0.04 -0.11,-0.07 -0.17,-0.07 -0.01,0 -0.02,0 -0.02,0 -0.12,0 -0.24,0.06 -0.28,0.17 z m -1.84,-0.03 c 0.02,0.04 0.04,0.08 0.05,0.12 0.02,0.04 0.04,0.08 0.08,0.11 0.05,0.04 0.11,0.07 0.18,0.07 0.03,0 0.06,0 0.09,-0.02 0.1,-0.04 0.18,-0.16 0.16,-0.27 -0.01,-0.05 -0.04,-0.11 -0.07,-0.15 -0.11,-0.24 -0.24,-0.47 -0.38,-0.7 -0.13,-0.22 -0.25,-0.45 -0.37,-0.67 0,0.01 0.01,0.02 0.01,0.03 -0.03,-0.06 -0.06,-0.12 -0.09,-0.18 0,0.01 0.01,0.02 0.01,0.03 -0.16,-0.39 -0.29,-0.8 -0.36,-1.21 0,0.01 0,0.02 0,0.03 -0.01,-0.07 -0.02,-0.15 -0.03,-0.23 0,-0.05 0,-0.1 0,-0.15 0,-0.04 0.01,-0.07 0.01,-0.11 0,-0.02 0.01,-0.05 0.01,-0.07 0.01,-0.02 0.02,-0.03 0.02,-0.04 0.01,-0.01 0.02,-0.01 0.02,-0.02 0.02,-0.01 0.04,-0.02 0.06,-0.03 0.03,0 0.06,-0.01 0.1,-0.01 0.05,0.01 0.11,0.02 0.16,0.04 -0.01,0 -0.02,0 -0.03,-0.01 0.04,0.01 0.07,0.03 0.11,0.04 0.13,0.07 0.26,0.14 0.39,0.21 -0.01,-0.01 -0.02,-0.01 -0.03,-0.02 0.15,0.1 0.3,0.2 0.45,0.31 0.12,0.09 0.25,0.19 0.37,0.29 0.09,0.09 0.19,0.18 0.28,0.27 0.05,0.05 0.09,0.09 0.14,0.14 0,0 -0.01,0 -0.01,0 0.04,0.04 0.09,0.08 0.14,0.12 -0.01,-0.01 -0.02,-0.02 -0.02,-0.02 0.06,0.05 0.11,0.1 0.19,0.12 0.13,0.04 0.27,-0.04 0.31,-0.17 0.03,-0.12 -0.02,-0.23 -0.12,-0.29 0,0 -0.01,0 -0.01,0 0,0 0,0 0,-0.01 0,0 0,0 -0.01,0 v 0 0 c 0,0 0,0 0,0 0,0 -0.01,0 -0.01,-0.01 0,0 0,0 0,0 -0.02,-0.01 -0.03,-0.02 -0.05,-0.04 0.01,0.01 0.02,0.02 0.02,0.02 -0.03,-0.03 -0.05,-0.05 -0.07,-0.07 0,-0.01 -0.01,-0.01 -0.02,-0.02 -0.01,-0.01 -0.02,-0.02 -0.04,-0.03 0.01,0.01 0.02,0.02 0.02,0.02 -0.17,-0.17 -0.34,-0.34 -0.52,-0.49 -0.19,-0.16 -0.39,-0.31 -0.59,-0.44999997 -0.19,-0.12 -0.38,-0.24 -0.59,-0.34 -0.13,-0.07 -0.28,-0.12 -0.42,-0.13 -0.08,-0.01 -0.16,0 -0.24,0.02 -0.06,0.01 -0.14,0.05 -0.2,0.08 -0.05,0.02 -0.12,0.09 -0.15,0.12 -0.02,0.02 -0.04,0.05 -0.06,0.07 -0.03,0.05 -0.05,0.09 -0.07,0.14 -0.01,0.04 -0.02,0.08 -0.03,0.11999997 -0.01,0.07 -0.02,0.14 -0.02,0.21 0,0.11 0,0.21 0.02,0.32 0.01,0.04 0.01,0.09 0.02,0.12 0.02,0.11 0.04,0.21 0.07,0.32 0.03,0.11 0.05,0.21 0.09,0.32 0.05,0.17 0.1,0.35 0.17,0.52 0.12,0.29 0.27,0.56 0.43,0.84 0.12,0.22 0.25,0.44 0.38,0.66 0,-0.01 -0.01,-0.02 -0.01,-0.03 0.01,0.07 0.03,0.11 0.06,0.16 z m -1.73,-0.53 c -0.09,0.02 -0.16,0.07 -0.21,0.15 -0.05,0.08 -0.09,0.17 -0.11,0.26 -0.02,0.12 0.04,0.25 0.16,0.3 0.03,0.02 0.07,0.02 0.1,0.02 0.05,0 0.1,-0.02 0.15,-0.04 0.08,-0.04 0.13,-0.1 0.18,-0.17 0.08,-0.12 0.13,-0.27 0.05,-0.4 -0.05,-0.08 -0.13,-0.12 -0.22,-0.12 -0.02,-0.01 -0.05,-0.02 -0.07,-0.02 0,0.01 -0.02,0.01 -0.03,0.02 z m 4.33,0.12 c -0.04,0.07 -0.05,0.15 -0.03,0.22 0.01,0.09 0.06,0.18 0.14,0.21 0.04,0.02 0.07,0.02 0.11,0.02 0.11,0 0.21,-0.07 0.26,-0.17 0.05,-0.11 0.04,-0.25 -0.05,-0.34 -0.05,-0.05 -0.12,-0.08 -0.19,-0.08 -0.09,0.01 -0.19,0.06 -0.24,0.14 z m 3.13,0.03 c 0,0 0.01,0 0.02,0 0.04,0 0.08,-0.01 0.12,-0.02 0.1,-0.02 0.18,-0.12 0.21,-0.22 0.05,-0.16 -0.03,-0.33 -0.07,-0.49 -0.03,-0.1 -0.05,-0.2 -0.11,-0.29 -0.08,-0.11 -0.24,-0.13 -0.35,-0.05 -0.11,0.08 -0.13,0.23 -0.06,0.35 0,0 0,0 0,0.01 0.02,0.05 0.03,0.1 0.04,0.15 -0.08,0 -0.16,0.04 -0.21,0.1 -0.01,0.01 -0.02,0.03 -0.03,0.04 -0.06,0.1 -0.04,0.23 0.04,0.32 0.06,0.06 0.16,0.09 0.25,0.07 0.05,0.01 0.1,0.02 0.15,0.03 z m -5.1,-0.6 c 0,0.03 0.01,0.06 0.01,0.09 0,0.02 0.01,0.04 0.01,0.07 0.01,0.03 0.02,0.07 0.02,0.1 0.01,0.04 0.03,0.07 0.05,0.1 0.04,0.06 0.12,0.09 0.2,0.09 0.01,0 0.02,0 0.03,0 0.1,-0.01 0.17,-0.08 0.21,-0.16 0.03,-0.03 0.05,-0.07 0.05,-0.12 0,0 0,0 0,0 0.01,-0.01 0.02,-0.03 0.02,-0.05 0.02,-0.08 0.05,-0.16 0.04,-0.25 -0.01,-0.09 -0.02,-0.18 -0.06,-0.27 -0.05,-0.11 -0.1,-0.21 -0.18,-0.3 -0.05,-0.07 -0.12,-0.14 -0.17,-0.21 -0.03,-0.04 -0.05,-0.07 -0.08,-0.1 -0.01,-0.02 -0.02,-0.04 -0.04,-0.06 -0.03,-0.04 -0.06,-0.07 -0.1,-0.11 -0.02,-0.02 -0.04,-0.05 -0.06,-0.07 -0.02,-0.02 -0.03,-0.03 -0.05,-0.04 -0.05,-0.07 -0.15,-0.11 -0.25,-0.09 -0.04,0.01 -0.09,0.03 -0.12,0.06 -0.06,0.04 -0.1,0.09 -0.12,0.16 -0.03,0.09 0,0.19 0.03,0.28 0.03,0.08 0.08,0.16 0.13,0.24 0.04,0.06 0.07,0.11 0.11,0.17 0.09,0.12 0.18,0.25 0.26,0.38 -0.01,-0.01 -0.01,-0.02 -0.02,-0.03 0.03,0.03 0.05,0.07 0.08,0.12 z m 1.94,-1.32 c -0.04,0.08 -0.02,0.17 0.02,0.25 0.04,0.08 0.1,0.16 0.16,0.23 0.05,0.05 0.12,0.07 0.18,0.07 0.06,0 0.12,-0.02 0.17,-0.07 0.05,-0.05 0.07,-0.11 0.08,-0.18 0.03,-0.09 0,-0.21 -0.08,-0.28 -0.01,-0.01 -0.02,-0.02 -0.03,-0.03 0.01,0.01 0.02,0.02 0.02,0.02 -0.07,-0.06 -0.13,-0.12 -0.22,-0.16 -0.02,-0.01 -0.05,-0.01 -0.07,-0.01 -0.1,0.01 -0.19,0.08 -0.23,0.16 z m 2.14,-0.43 c -0.08,0.11 -0.06,0.27 0.05,0.35 0.04,0.03 0.09,0.07 0.13,0.09 0.04,0.02 0.09,0.04 0.14,0.05 0.02,0.01 0.03,0.01 0.05,0.01 0.11,0 0.22,-0.09 0.24,-0.2 0.02,-0.13 -0.05,-0.25 -0.17,-0.29 0,0 0,0 0,0 0,0 0,0 0,0 0,0 0,0 0,0 v 0 c -0.03,-0.02 -0.05,-0.04 -0.09,-0.07 -0.04,-0.04 -0.1,-0.05 -0.15,-0.05 -0.08,0.01 -0.15,0.04 -0.2,0.11 z m -1.49,-0.43 c 0,0.05 0.01,0.1 0.03,0.14 v 0 c 0.02,0.13 0.13,0.22 0.25,0.22 0,0 0.01,0 0.02,0 0.09,0 0.18,-0.07 0.22,-0.15 0.03,-0.06 0.03,-0.14 0,-0.2 -0.01,-0.02 -0.02,-0.04 -0.03,-0.07 -0.02,-0.11 -0.12,-0.19 -0.24,-0.2 0,0 0,0 -0.01,0 -0.13,0.02 -0.23,0.13 -0.24,0.26 z m 1.28,-0.27 c 0,0.14 0.12,0.24 0.26,0.24 0.14,0 0.25,-0.12 0.24,-0.26 0,-0.13999997 -0.12,-0.23999997 -0.26,-0.23999997 -0.14,0 -0.25,0.13 -0.24,0.25999997 z m -2.21,-0.40999997 c 0.01,0.14 0.13,0.23 0.27,0.23 0.13,0 0.24,-0.13 0.23,-0.27 -0.01,-0.14 -0.13,-0.23 -0.27,-0.23 -0.13,0 -0.24,0.14 -0.23,0.27 z"
   id="path29" />&#10;<path
   d="m 69.743258,7.2300851 c -0.19,-0.23 -0.36,-0.48 -0.52,-0.73 0.01,0.01 0.01,0.02 0.02,0.02 -0.04,-0.06 -0.08,-0.13 -0.12,-0.19 0,0 0,-0.01 -0.01,-0.01 -0.01,-0.02 -0.02,-0.04 -0.03,-0.07 0.01,0 0.02,0 0.02,0 v 0 c 0.07,-0.01 0.13,-0.02 0.2,-0.02 -0.01,0 -0.02,0 -0.03,0 0.11,0 0.21,-0.01 0.32,-0.01 0.04,0 0.08,0.01 0.12,0.01 0.04,0.01 0.07,0.02 0.1,0.02 0.05,0.02 0.11,0.04 0.16,0.07 0,0 0,0 -0.01,0 0,0 0,0 -0.01,0 0,0 0,0 0.01,0 0,0 0.01,0.01 0.01,0.01 0.02,0.03 0.03,0.06 0.05,0.1 0.03,0.3 -0.09,0.58 -0.23,0.85 -0.01,-0.02 -0.03,-0.03 -0.05,-0.05 z"
   id="path30" />&#10;<path
   d="m 10.553258,50.060085 c -3.2899998,-0.36 -2.6899998,-8.02 -2.5099998,-10.47 0.56,-1.64 2.2999998,-2.52 3.1099998,-3.98 2.1,-4.74 1.36,-10.23 -0.03,-15.08 0.16,0.17 0.3,0.35 0.44,0.54 0.14,0.2 0.29,0.41 0.43,0.62 0.12,0.18 0.24,0.35 0.35,0.52 0.25,0.39 0.47,0.8 0.7,1.2 0.12,0.21 0.24,0.42 0.36,0.63 0.1,0.18 0.21,0.35 0.31,0.53 0.1,0.18 0.18,0.37 0.27,0.56 0.1,0.2 0.2,0.4 0.3,0.6 0,-0.01 -0.01,-0.02 -0.02,-0.03 0.11,0.25 0.22,0.51 0.32,0.77 0.07,0.18 0.12,0.35 0.18,0.53 0.05,0.15 0.09,0.3 0.13,0.45 0.09,0.34 0.2,0.68 0.28,1.02 0,-0.01 0,-0.02 -0.01,-0.03 0.05,0.19 0.09,0.38 0.13,0.57 0.04,0.19 0.08,0.39 0.11,0.58 0.01,0.11 0.02,0.23 0.02,0.34 0,0.12 0,0.24 0,0.36 0,0.22 0,0.44 -0.01,0.66 -0.01,0.21 -0.02,0.41 -0.04,0.62 -0.02,0.12 -0.03,0.25 -0.05,0.37 -0.02,0.11 -0.04,0.22 -0.06,0.33 0,0 0,0 0,0.01 0,0 0,0 0,0.01 0,0.01 0,0.01 0,0.02 0,0 0,0 0,-0.01 -0.06,0.2 -0.11,0.38 -0.2,0.57 -0.11,0.21 -0.21,0.42 -0.32,0.62 0,-0.01 0.01,-0.02 0.01,-0.03 -0.04,0.07 -0.07,0.16 -0.12,0.23 -0.05,0.07 -0.09,0.14 -0.13,0.21 0,0 0.01,-0.01 0.02,-0.02 -0.01,0.01 -0.02,0.02 -0.02,0.03 0,0 0,-0.01 0,-0.01 0,0 0,0.01 0,0.01 -0.21,0.3 -0.44,0.59 -0.66,0.88 -0.12,0.16 -0.24,0.32 -0.37,0.48 -0.13,0.16 -0.27,0.31 -0.4,0.46 0.01,-0.01 0.02,-0.02 0.02,-0.02 -0.6,0.65 -1.23,1.27 -1.84,1.91 -0.32,0.33 -0.62,0.66 -0.92,1 -0.17,0.2 -0.3699998,0.4 -0.4599998,0.65 -0.05,0.14 -0.09,0.29 -0.11,0.43 -0.02,0.09 -0.04,0.18 -0.05,0.28 -0.02,0.14 -0.06,0.29 -0.08,0.43 -0.02,0.16 -0.03,0.32 0,0.48 0.04,0.24 0.09,0.48 0.14,0.72 0.05,0.25 0.09,0.5 0.15,0.75 0.05,0.24 0.1099998,0.47 0.1599998,0.71 0.11,0.48 0.21,0.96 0.32,1.44 0.09,0.42 0.21,0.82 0.32,1.23 0,0 0,0 0,0 0,0.01 0,0.01 0,0.02 v 0 c 0,-0.01 0,-0.01 0,-0.01 0,0 0,0.01 0,0.01 0,0 0,0 0,0 0,0 0,0 0,0.01 0,0 0,0 0,-0.01 0,0 0,0 0,0.01 0.03,0.14 0.07,0.27 0.11,0.41 0.04,0.16 0.1,0.31 0.16,0.47 0.05,0.16 0.11,0.32 0.17,0.47 0.04,0.12 0.08,0.25 0.12,0.38 0.09,0.3 0.17,0.6 0.28,0.89 0.09,0.26 0.18,0.51 0.28,0.76 0.1,0.25 0.2,0.51 0.32,0.75 0.02,0.04 0.04,0.08 0.06,0.12 -0.3,0.06 -0.6,0.08 -0.91,0.08 -0.26,-0.02 -0.51,-0.03 -0.76,-0.04 z"
   id="path31" />&#10;<path
   d="m 8.2832582,31.260085 c 0,-0.18 0,-0.36 0,-0.54 -0.23,-0.01 -0.27,-0.18 -0.27,-0.38 0.08,0.04 0.16,0.09 0.25,0.11 0.04,0.02 0.09,0.04 0.14,0.04 0.02,0 0.04,0 0.06,0 0.05,0 0.11,-0.01 0.16,-0.04 0.1,-0.07 0.19,-0.2 0.16,-0.33 -0.01,-0.04 -0.02,-0.11 -0.05,-0.15 -0.04,-0.06 -0.06,-0.11 -0.09,-0.15 -0.02,-0.04 -0.05,-0.09 -0.09,-0.11 -0.06,-0.07 -0.13,-0.14 -0.2,-0.2 -0.04,-0.04 -0.09,-0.09 -0.14,-0.12 -0.02,-0.02 -0.04,-0.03 -0.06,-0.05 0.06,-0.05 0.15,-0.07 0.27,-0.03 0.54,-0.23 0.36,0.57 0.37,0.87 -0.02,0.25 0.19,0.57 0,0.78 0.06,0.34 -0.1,0.58 -0.27,0.58 -0.09,-0.02 -0.19,-0.1 -0.24,-0.28 z"
   id="path32" />&#10;<path
   d="m 10.193258,20.940085 c -0.07,-0.04 -0.11,-0.1 -0.12,-0.18 -0.4399998,-0.29 0.26,-0.84 0.38,-1.14 0.18,-0.23 0.29,-0.57 0.58,-0.68 0.08,-0.13 0.16,-0.26 0.28,-0.34 0.28,-0.17 0.54,0.27 0.26,0.43 -0.11,0.12 -0.12,0.23 -0.22,0.35 0,0 0,-0.01 0,0 0.03,0.44 -0.54,0.73 -0.64,1.17 -0.11,0.19 -0.25,0.54 -0.52,0.39 z"
   id="path33" />&#10;<path
   d="m 10.093258,20.610085 c 0,-0.02 0.01,-0.04 0.02,-0.06 -0.06,-0.14 0.03,-0.28 0.13,-0.37 0.22,-0.33 0.4,-0.95 0.84,-0.98 0.48,-0.5 0.76,0.12 0.32,0.5 -0.36,0.34 -0.62,0.74 -0.9,1.14 -0.17,0.14 -0.44,-0.01 -0.41,-0.23 z"
   id="path34" />&#10;&#10;&#10;&#10;&#10;&#10;&#10;&#10;&#10;&#10;&#10;&#10;&#10;&#10;&#10;&#10;&#10;&#10;&#10;&#10;&#10;</svg>
