<?xml version="1.0" encoding="UTF-8" standalone="no"?>
<!-- Generator: Adobe Adobe Illustrator 24.2.0, SVG Export Plug-In . SVG Version: 6.00 Build 0)  -->

<svg
   version="1.1"
   id="Vector_layer_1_"
   x="0px"
   y="0px"
   width="82.763725"
   height="53.547501"
   viewBox="0 0 82.763725 53.547501"
   xml:space="preserve"
   sodipodi:docname="črne živali brez teksta 01 Artboard 1.svg"
   xmlns:inkscape="http://www.inkscape.org/namespaces/inkscape"
   xmlns:sodipodi="http://sodipodi.sourceforge.net/DTD/sodipodi-0.dtd"
   xmlns="http://www.w3.org/2000/svg"
   xmlns:svg="http://www.w3.org/2000/svg"><defs
   id="defs54" /><sodipodi:namedview
   id="namedview54"
   pagecolor="#ffffff"
   bordercolor="#000000"
   borderopacity="0.25"
   inkscape:showpageshadow="2"
   inkscape:pageopacity="0.0"
   inkscape:pagecheckerboard="0"
   inkscape:deskcolor="#d1d1d1" />&#10;<path
   d="m 40.887667,47.877502 c 0.14,0.34 0.81,0.75 0.48,1.11 -0.02,0.02 -0.04,0.03 -0.06,0.04 0,0 0,0 0,0 -0.09,0.13 -0.46,0.18 -0.92,0.2 -0.04,-0.05 -0.07,-0.09 -0.11,-0.14 -0.08,-0.09 -0.16,-0.19 -0.24,-0.29 -0.08,-0.1 -0.18,-0.19 -0.26,-0.29 -0.09,-0.1 -0.19,-0.2 -0.28,-0.3 -0.09,-0.1 -0.25,-0.1 -0.35,-0.01 -0.1,0.1 -0.1,0.25 -0.01,0.36 0.17,0.18 0.34,0.37 0.51,0.55 0.04,0.04 0.07,0.08 0.1,0.12 -0.32,0 -0.64,-0.02 -0.93,-0.03 0,-0.01 0,-0.01 -0.01,-0.02 -0.08,-0.12 -0.17,-0.23 -0.26,-0.34 -0.11,-0.13 -0.22,-0.27 -0.33,-0.4 0,0 0,-0.01 0,-0.01 -0.02,-0.06 -0.06,-0.11 -0.12,-0.14 -0.12,-0.07 -0.27,-0.02 -0.34,0.1 0,0 0,0.01 -0.01,0.01 -0.04,0.07 -0.04,0.18 0.01,0.25 0.09,0.13 0.19,0.25 0.29,0.37 0.04,0.05 0.08,0.09 0.11,0.14 -0.14,-0.01 -0.25,-0.02 -0.3,-0.02 0,0 0,0 0,0 -0.6,-0.08 -1.24,-0.08 -1.82,-0.22 -0.07,0.03 -0.18,-0.01 -0.36,-0.11 -0.91,-1.71 -1.95,-3.38 -2.7,-5.16 -0.69,-1.44 -1.11,-3.02 -1.18,-4.6 0.06,-1.84 -0.05,-3.87 -1.11,-5.4 0.09,-0.02 0.18,-0.05 0.28,-0.07 0.29,-0.06 0.58,-0.1 0.88,-0.14 0.09,-0.01 0.19,-0.02 0.28,-0.03 0.11,-0.01 0.21,-0.01 0.31,-0.01 0.21,0 0.43,-0.01 0.64,-0.01 0.2,0 0.4,0.01 0.59,0.02 0.24,0.01 0.48,0.02 0.73,0.05 0.22,0.02 0.43,0.04 0.65,0.07 0,0 0,0 0,0 v 0 c 0,0 0,0 0.01,0 0.04,0 0.09,0.01 0.13,0.02 0.27,0.05 0.55,0.08 0.81,0.15 0.26,0.07 0.54,0.12 0.8,0.2 v 0 c 0,0 0,0 0.01,0 0,0 0.01,0 0.02,0 0.16,0.05 0.33,0.1 0.5,0.14 0,0 -0.01,0 -0.01,0 0.22,0.06 0.44,0.13 0.65,0.22 0.22,0.09 0.44,0.18 0.66,0.27 0.11,0.06 0.22,0.12 0.34,0.19 0.02,0.01 0.04,0.02 0.05,0.03 -0.14,0.34 -0.29,0.68 -0.43,0.99 -0.7,1.88 -1.29,3.82 -1.73,5.77 0.81,2.39 2.62,4.32 4.03,6.37 z"
   id="path1"
   inkscape:export-filename="lev.png"
   inkscape:export-xdpi="96"
   inkscape:export-ydpi="96" />&#10;<path
   d="m 76.337667,11.547502 c 0.33,-0.42 0.1,-1.02 -0.14,-1.41 -0.37,-0.6600002 -1.12,-0.8400002 -1.84,-0.7900002 -0.19,-0.01 -0.38,0.01 -0.56,0.03 -0.06,0.01 -0.12,0.02 -0.19,0.03 -0.07,0.02 -0.15,0.04 -0.22,0.05 -0.05,0.01 -0.09,0.02 -0.14,0.03 -0.05,0.01 -0.11,0.02 -0.16,0.03 -2.3,-1.25 -5.09,-1.55 -7.66,-1.27 -0.03,0 -0.05,0 -0.08,0 -0.13,0 -0.27,-0.01 -0.41,-0.01 0,0 0,0 0,0 v 0 c -0.04,-0.04 -0.07,-0.08 -0.12,-0.12 -0.05,-0.06 -0.11,-0.11 -0.17,-0.16 -0.07,-0.07 -0.15,-0.14 -0.23,-0.2 -1.09,-1.06 -4.34,-2.39 -3.28,0.21 0.22,0.37 0.44,0.71 0.75,1 0.05,0.05 0.07,0.12 0.07,0.18 0,0.01 -0.01,0.02 -0.02,0.03 -0.03,0.06 -0.06,0.11 -0.09,0.17 v 0 c -0.04,0.08 -0.09,0.17 -0.12,0.25 -0.09,0.2 -0.19,0.39 -0.27,0.5900002 -0.02,0.05 -0.04,0.1 -0.06,0.14 -1.32,3.03 0.61,6.52 1.62,9.4 0.74,1.17 2.25,1.59 3.34,2.36 0.57,0.28 1.25,0.77 1.82,0.91 3.81,-1.18 6.29,-5.34 6.79,-9.23 0.02,-0.06 0.03,-0.13 0.04,-0.2 0.02,-0.1 0.03,-0.19 0.04,-0.29 0.01,-0.08 0.01,-0.15 0.02,-0.23 0.01,-0.09 0.01,-0.19 0.02,-0.29 0,-0.01 0,-0.03 0.01,-0.04 v 0 c 0.02,-0.07 0.03,-0.14 0.04,-0.21 0.01,-0.03 0.01,-0.06 0.02,-0.09 0,-0.04 0.01,-0.07 0.01,-0.11 0.42,-0.17 0.88,-0.42 1.17,-0.76 z m 5.69,4.44 c 0.29,1.3 1.03,2.79 0.61,4.16 -0.39,0.77 -0.93,1.48 -1.54,2.1 -0.3,0.32 -0.75,0.64 -1.21,0.46 -0.1,0.51 0.09,1.18 -0.2,1.61 -0.32,0.18 -0.45,-0.27 -0.56,-0.48 -0.11,0.17 -0.29,0.3 -0.49,0.35 -0.45,1.17 -1.17,2.21 -1.72,3.34 0,0.01 -0.01,0.01 -0.01,0.02 -0.04,0.01 -0.08,0.02 -0.12,0.04 -0.02,0 -0.05,0.01 -0.07,0.01 -0.07,0.01 -0.15,0.01 -0.22,0 -0.11,-0.01 -0.22,-0.03 -0.32,-0.03 -0.09,0 -0.18,0 -0.26,0.04 -0.07,0.03 -0.14,0.06 -0.2,0.11 -0.04,0.04 -0.07,0.07 -0.11,0.12 -0.08,0.11 -0.11,0.26 -0.14,0.39 -0.02,0.09 -0.03,0.18 -0.04,0.28 -0.03,-0.04 -0.05,-0.07 -0.09,-0.11 -0.07,-0.07 -0.13,-0.14 -0.21,-0.2 -0.07,-0.04 -0.14,-0.09 -0.23,-0.1 -0.04,-0.01 -0.1,0 -0.14,0.02 -0.05,0.03 -0.11,0.06 -0.15,0.11 -0.08,0.09 -0.14,0.19 -0.2,0.29 -0.16,0.25 -0.36,0.46 -0.51,0.71 -0.13,0.22 -0.25,0.45 -0.36,0.68 -0.04,-0.11 -0.07,-0.21 -0.12,-0.32 -0.05,-0.12 -0.11,-0.25 -0.17,-0.36 -0.04,-0.07 -0.07,-0.12 -0.13,-0.16 -0.06,-0.04 -0.14,-0.04 -0.2,-0.02 -0.11,0.04 -0.18,0.12 -0.22,0.22 -0.12,0.25 -0.24,0.51 -0.36,0.76 -0.04,0.07 -0.07,0.14 -0.11,0.21 -0.04,0.06 -0.08,0.12 -0.11,0.18 0,0 -0.01,0.01 -0.01,0.02 0,0 0,0 0,0.01 v 0 c -0.07,0.09 -0.14,0.18 -0.21,0.27 -0.09,0.11 -0.18,0.23 -0.27,0.34 -0.12,0.17 -0.26,0.35 -0.38,0.53 0,0.01 -0.01,0.02 -0.02,0.02 -0.01,0.01 -0.02,0.02 -0.03,0.04 -0.01,0 -0.01,0 -0.02,0 -0.01,0 -0.02,-0.01 -0.04,-0.01 -0.02,-0.01 -0.04,-0.02 -0.05,-0.03 0.01,0 0.02,0.01 0.02,0.01 -0.02,-0.01 -0.04,-0.02 -0.05,-0.04 0,0 0.01,0 0.01,0 -0.13,-0.11 -0.26,-0.22 -0.41,-0.32 -0.09,-0.06 -0.21,-0.11 -0.32,-0.07 -0.21,0.08 -0.36,0.29 -0.5,0.45 0,0 0,0 0,0 -0.05,-0.07 -0.1,-0.15 -0.15,-0.22 -0.07,-0.11 -0.13,-0.23 -0.23,-0.32 -0.07,-0.07 -0.16,-0.1 -0.26,-0.11 -0.14,-0.01 -0.3,0.04 -0.41,0.11 -0.07,0.04 -0.14,0.09 -0.21,0.14 -0.11,0.08 -0.21,0.16 -0.32,0.23 -0.01,0 -0.02,0.01 -0.03,0.01 0,0 0,0 0,-0.01 0,-0.01 0,-0.01 0,-0.02 -0.02,-0.13 -0.03,-0.27 -0.03,-0.41 0,-0.03 0.01,-0.06 0.01,-0.08 0.02,-0.11 0.04,-0.21 0.05,-0.31 0,-0.07 0.02,-0.14 0,-0.2 -0.01,-0.04 -0.03,-0.07 -0.05,-0.11 -0.04,-0.06 -0.09,-0.11 -0.15,-0.13 -0.08,-0.03 -0.15,-0.01 -0.22,0.02 -0.17,0.08 -0.34,0.17 -0.5,0.26 -0.18,0.09 -0.36,0.18 -0.54,0.27 -0.16,0.08 -0.32,0.16 -0.46,0.27 -0.09,0.06 -0.18,0.13 -0.26,0.2 -0.02,-0.05 -0.04,-0.11 -0.06,-0.16 -0.05,-0.19 -0.1,-0.38 -0.14,-0.58 -0.01,-0.07 -0.02,-0.14 -0.02,-0.21 0,0.01 0,0.02 0,0.03 0,-0.04 0,-0.06 0,-0.09 0,0 0,-0.01 0,-0.01 0.03,-0.16 0.07,-0.34 0.07,-0.51 0,-0.05 -0.02,-0.11 -0.05,-0.16 -0.05,-0.09 -0.14,-0.16 -0.25,-0.16 -0.12,0 -0.25,0.01 -0.36,0.05 -0.08,0.02 -0.16,0.06 -0.24,0.09 -0.14,0.05 -0.27,0.13 -0.4,0.19 -0.06,0.02 -0.13,0.04 -0.19,0.07 -0.09,0.03 -0.15,0.06 -0.23,0.11 -0.07,0.04 -0.13,0.08 -0.19,0.12 -0.02,-0.02 -0.05,-0.03 -0.07,-0.05 -0.09,-0.07 -0.17,-0.15 -0.25,-0.23 0,0 0,0.01 0,0.01 0,0 -0.01,-0.01 -0.01,-0.01 v 0 c -0.14,-0.14 -0.27,-0.29 -0.4,-0.44 -0.08,-0.1 -0.16,-0.21 -0.3,-0.22 -0.22,-0.01 -0.32,0.24 -0.39,0.43 -0.09,-0.16 -0.18,-0.34 -0.25,-0.5 -0.04,-0.1 -0.07,-0.19 -0.1,-0.29 -0.04,-0.12 -0.1,-0.25 -0.16,-0.36 -0.06,-0.12 -0.11,-0.26 -0.21,-0.35 -0.07,-0.07 -0.15,-0.14 -0.25,-0.17 -0.09,-0.02 -0.17,-0.04 -0.26,-0.05 -0.01,0 -0.01,0 -0.02,0 0,0 -0.01,0 -0.01,0 -0.09,-0.01 -0.18,-0.03 -0.28,-0.04 -0.1,-0.01 -0.2,-0.01 -0.29,0.01 -0.07,0.01 -0.13,0.02 -0.19,0.04 -0.01,0 -0.02,-0.01 -0.02,-0.02 0,0 0,0 0,0 -0.01,0 -0.02,-0.01 -0.03,-0.02 -0.02,-0.01 -0.03,-0.03 -0.05,-0.04 -0.01,-0.01 -0.02,-0.02 -0.03,-0.03 -0.02,-0.02 -0.03,-0.04 -0.05,-0.06 -0.02,-0.02 -0.03,-0.05 -0.05,-0.07 -0.07,-0.13 -0.14,-0.27 -0.21,-0.4 -0.07,-0.13 -0.15,-0.26 -0.22,-0.39 -0.09,-0.16 -0.18,-0.32 -0.29,-0.47 -0.1,-0.15 -0.2,-0.3 -0.29,-0.45 -0.09,-0.16 -0.18,-0.33 -0.26,-0.5 -0.02,-0.04 -0.04,-0.09 -0.07,-0.12 -0.06,-0.09 -0.16,-0.12 -0.26,-0.12 -0.12,0 -0.25,0.02 -0.38,0.04 -0.11,0.01 -0.23,0.02 -0.34,0.03 -0.12,0.01 -0.25,0.02 -0.38,0.02 -0.01,0 -0.02,0 -0.04,0 -0.02,0 -0.04,0 -0.07,0 -0.02,0 -0.03,-0.01 -0.04,-0.02 -0.02,0 -0.03,-0.01 -0.05,-0.02 -0.04,-0.02 -0.07,-0.04 -0.11,-0.06 -0.02,-0.02 -0.04,-0.03 -0.06,-0.05 -0.03,-0.02 -0.05,-0.05 -0.08,-0.07 -0.02,-0.02 -0.03,-0.04 -0.05,-0.06 -0.08,-0.13 -0.15,-0.27 -0.23,-0.4 -0.05,-0.09 -0.13,-0.18 -0.23,-0.2 -0.09,-0.03 -0.18,-0.02 -0.26,0.03 -0.04,0.02 -0.07,0.04 -0.11,0.06 -0.15,-0.16 -0.29,-0.33 -0.43,-0.5 0,0 0,-0.01 -0.01,-0.01 0,0 0,0 0,-0.01 -0.01,-0.01 -0.02,-0.02 -0.02,-0.02 -0.06,-0.08 -0.11,-0.16 -0.16,-0.23 -0.05,-0.09 -0.09,-0.18 -0.14,-0.27 -0.05,-0.09 -0.12,-0.17 -0.21,-0.22 -0.08,-0.05 -0.18,-0.05 -0.27,-0.06 -0.07,0 -0.14,0 -0.22,0 0,0 0,0 0,0 v 0 c -0.09,-0.17 -0.18,-0.35 -0.26,-0.52 -0.11,-0.25 -0.21,-0.5 -0.31,-0.76 0,0.01 0.01,0.02 0.01,0.03 -0.08,-0.23 -0.15,-0.45 -0.24,-0.68 -0.03,-0.08 -0.07,-0.16 -0.11,-0.23 -0.03,-0.05 -0.06,-0.11 -0.11,-0.14 -0.03,-0.02 -0.06,-0.04 -0.09,-0.05 -0.06,-0.02 -0.12,-0.05 -0.18,-0.07 -0.21,-0.06 -0.42,-0.09 -0.63,-0.13 v 0 c 0,0 -0.01,-0.01 -0.02,-0.01 0,0 0,0 0,0 -0.05,-0.01 -0.1,-0.03 -0.14,-0.05 -0.01,0 -0.02,-0.01 -0.04,-0.02 0,0 -0.01,-0.01 -0.01,-0.01 -0.01,-0.02 -0.02,-0.03 -0.03,-0.05 -0.01,-0.03 -0.02,-0.05 -0.02,-0.08 0,0 0,0 0,0 -0.03,-0.13 -0.04,-0.25 -0.05,-0.38 0,-0.01 0,-0.02 0,-0.02 0,0 0,0 0,-0.01 -0.01,-0.07 -0.02,-0.13 -0.02,-0.19 0,0 0,-0.01 0,-0.01 0,-0.01 0,-0.01 0,-0.02 0,-0.03 -0.01,-0.05 -0.01,-0.09 -0.01,-0.12 -0.02,-0.23 -0.02,-0.35 0.01,-0.12 0.02,-0.25 0.04,-0.37 0,0 0,-0.01 0,-0.02 0.01,-0.06 0.02,-0.11 0.04,-0.17 0.02,-0.06 0.05,-0.13 0.04,-0.2 0,-0.05 -0.02,-0.1 -0.04,-0.14 -0.02,-0.04 -0.05,-0.07 -0.08,-0.09 -0.02,-0.01 -0.03,-0.02 -0.05,-0.03 -0.05,-0.04 -0.09,-0.07 -0.13,-0.11 -0.08,-0.06 -0.15,-0.11 -0.23,-0.17 -0.09,-0.06 -0.17,-0.11 -0.25,-0.17 -0.04,-0.03 -0.09,-0.05 -0.14,-0.07 0,-0.01 0,-0.02 0,-0.04 0.02,-0.16 0.07,-0.32 0.11,-0.48 0.04,-0.16 0.09,-0.32 0.12,-0.48 0,0 0,0.01 0,0.01 0.04,-0.15 0.09,-0.3 0.14,-0.45 0.04,-0.11 0.07,-0.21 0.11,-0.32 0.04,-0.14 0.09,-0.28 0.11,-0.43 0.02,-0.09 0.03,-0.2 -0.02,-0.29 -0.04,-0.07 -0.08,-0.12 -0.16,-0.15 -0.05,-0.02 -0.1,-0.02 -0.15,-0.01 -0.09,0.02 -0.17,0.06 -0.25,0.1 -0.04,0.01 -0.07,0.02 -0.11,0.04 -0.12,0.03 -0.24,0.05 -0.36,0.08 -0.13,0.03 -0.26,0.05 -0.4,0.07 -0.11,0.02 -0.23,0.03 -0.34,0.05 -0.11,0.02 -0.22,0.05 -0.34,0.07 0,0 0,0 -0.01,0 0,0 -0.01,0 -0.01,0 -0.02,0 -0.04,0 -0.07,0.01 -0.01,-0.03 -0.02,-0.06 -0.02,-0.09 0,0 0,-0.01 0,-0.01 v 0 c 0,0 0,0 0,-0.01 -0.03,-0.12 -0.05,-0.22 -0.08,-0.34 -0.02,-0.06 -0.03,-0.12 -0.05,-0.19 0.29,-1.25 1.35,-2.33 2.41,-3.03 -1.57,-0.44 1.29,-2.2500002 1.75,-2.7900002 -1.52,-0.46 1.55,-2.43 2.05,-2.86 -1.14,-1.29 0.92,-2.52 1.83,-3.21 -0.16,-0.25 -0.39,-0.74 0.01,-0.89 0.16,-0.04 0.45,-0.13 0.64,-0.09 0.32,-0.47 0.62,-0.96 0.89,-1.45999997 0.19,-0.32 0.61,-0.27 0.99,-0.22 0.18,0.02 0.35,0.04 0.5,0.03 1.38,0.09 2.64,0.77999997 3.93,1.10999997 0.33,-0.1 0.68,-0.37 0.99,-0.54999997 0.46,-0.29 0.87,-0.61 1.32,-0.87 0.09,-0.02 0.18,0 0.25,0.06 0.25,0.42 0.64,0.73 0.97,1.06999997 0.02,-0.01 0.03,-0.02 0.05,-0.03 0.98,-0.53999997 2.03,-0.83999997 3.15,-0.87999997 0.76,-0.04 1.6,-0.22 1.32,0.86999997 1.57,-0.30999997 2.88,1.08 4.22,1.68 0.83,0.72 1.39,1.69 2,2.58 0.64,0.61 0.86,1.44 1,2.29 0.18,0.56 0.29,1.18 0.51,1.72 0.24,0.52 0.43,1.1600002 -0.04,1.6100002 0.81,1.27 1.21,2.75 1.77,4.12 0.23,0.49 0,0.77 -0.48,0.89 z"
   id="path2" />&#10;<path
   d="m 77.597667,48.187502 c 1.37,0.53 2.5,1.41 1.05,1.6 -0.01,-0.02 -0.01,-0.04 -0.02,-0.05 -0.03,-0.05 -0.06,-0.1 -0.1,-0.15 -0.05,-0.07 -0.14,-0.12 -0.2,-0.17 -0.09,-0.07 -0.22,-0.11 -0.32,-0.15 -0.13,-0.05 -0.28,0.03 -0.32,0.15 -0.05,0.13 0.02,0.27 0.15,0.32 0.03,0.01 0.05,0.02 0.08,0.03 0.03,0.02 0.07,0.04 0.1,0.05 -0.08,0 -0.16,0 -0.25,0 -0.85,-0.06 -1.79,-0.06 -2.7,-0.16 -0.04,0.02 -0.08,0.03 -0.12,0.02 -1.07,-0.02 -2.27,-0.11 -3.14,-0.8 -0.23,-0.3 -0.41,-0.65 -0.56,-1.01 -0.06,-0.09 -0.12,-0.18 -0.18,-0.28 -1.66,-3.36 -2.32,-7.13 -3.41,-10.72 -0.7,0.18 -1.4,0.32 -2.1,0.49 -1.38,0.57 -2.74,1.26 -4.29,1.13 -0.12,-0.03 -0.37,-0.02 -0.64,-0.02 0.23,1.17 0.46,2.34 0.5,3.54 0.01,0.21 0.02,0.43 0.04,0.65 0.31,1.44 0.63,2.88 0.83,4.33 0.22,1.25 0.25,2.55 0.49,3.8 0.11,0.19 0.2,0.38 0.29,0.58 0.55,1.02 0.41,1.65 -0.15,1.96 -0.05,-0.09 -0.11,-0.18 -0.16,-0.26 -0.17,-0.25 -0.38,-0.49 -0.64,-0.64 -0.12,-0.07 -0.27,-0.04 -0.34,0.08 -0.07,0.11 -0.04,0.28 0.08,0.34 0.02,0.01 0.03,0.02 0.05,0.03 0,0 0,0 0,-0.01 0.03,0.02 0.05,0.04 0.08,0.06 0.07,0.05 0.13,0.12 0.18,0.18 0.05,0.07 0.11,0.14 0.16,0.2 0,0.01 0.01,0.01 0.02,0.02 0.04,0.05 0.07,0.11 0.1,0.16 -0.13,0.03 -0.27,0.05 -0.43,0.06 -0.07,-0.1 -0.15,-0.2 -0.23,-0.3 -0.1,-0.12 -0.2,-0.25 -0.3,-0.36 -0.08,-0.08 -0.21,-0.09 -0.3,-0.03 -0.1,0.06 -0.14,0.18 -0.11,0.29 0,0 0,0.01 0.01,0.02 0.02,0.05 0.05,0.1 0.09,0.13 0.07,0.09 0.14,0.17 0.21,0.25 -0.04,0 -0.07,0 -0.1,0 -1.41,-0.16 -2.83,-0.54 -4.06,-1.26 -0.2,-0.13 -0.23,-0.43 -0.27,-0.61 -1.29,-3.64 -2.01,-7.52 -3.9,-10.9 -0.04,-0.13 -0.08,-0.27 -0.13,-0.39 -0.09,-0.24 -0.18,-0.48 -0.28,-0.72 -0.1,-0.24 -0.19,-0.48 -0.28,-0.72 -0.08,-0.21 -0.15,-0.43 -0.23,-0.65 -0.17,-0.45 -0.32,-0.91 -0.5,-1.36 -0.1,-0.26 -0.2,-0.51 -0.3,-0.77 -0.09,-0.23 -0.19,-0.45 -0.28,-0.68 -0.02,-0.07 -0.05,-0.15 -0.07,-0.22 0,-0.02 -0.01,-0.03 -0.01,-0.05 -0.03,-0.13 -0.15,-0.23 -0.29,-0.21 -0.13,0.02 -0.23,0.15 -0.21,0.29 0.07,0.34 0.23,0.67 0.36,0.99 0.17,0.4 0.32,0.8 0.48,1.2 0.2,0.53 0.38,1.06 0.57,1.6 0.02,0.05 0.04,0.1 0.05,0.15 -4.06,-1.36 -7.94,-3.17 -11.95,-4.69 -0.08,-0.05 -0.16,-0.1 -0.24,-0.14 -0.12,-0.06 -0.25,-0.12 -0.37,-0.18 -0.12,-0.06 -0.23,-0.12 -0.36,-0.18 -0.26,-0.11 -0.51,-0.22 -0.77,-0.31 -0.26,-0.09 -0.52,-0.17 -0.79,-0.24 -0.14,-0.04 -0.28,-0.09 -0.43,-0.12 -0.15,-0.04 -0.3,-0.06 -0.45,-0.1 -0.14,-0.04 -0.29,-0.07 -0.44,-0.1 -0.14,-0.03 -0.29,-0.05 -0.43,-0.07 -0.27,-0.05 -0.54,-0.08 -0.82,-0.11 -0.14,-0.02 -0.29,-0.04 -0.43,-0.04 -0.15,-0.01 -0.3,-0.02 -0.46,-0.02 0.01,0 0.01,0 0.02,0 -0.18,-0.01 -0.37,-0.02 -0.56,-0.02 -0.2,0 -0.4,0 -0.6,0.01 -0.2,0.01 -0.39,0.01 -0.59,0.03 -0.15,0.02 -0.3,0.03 -0.45,0.05 -0.27,0.04 -0.53,0.08 -0.79,0.14 -0.12,0.03 -0.23,0.06 -0.35,0.1 0,0 -0.01,-0.01 -0.01,-0.01 -0.14,0.06 -0.27,0.12 -0.4,0.19 -2.84,2.99 -5.57,6.27 -7.52,9.9 -0.45,2.18 -0.41,4.44 -0.43,6.64 0.13,0.45 0.34,0.88 0.61,1.26 0.05,0.05 0.07,0.1 0.09,0.15 0.12,0.16 0.22,0.33 0.14,0.52 -0.06,0.09 -0.17,0.12 -0.27,0.11 0,0 0,0 0,0 -0.09,0.03 -0.2,0.03 -0.28,0.02 -0.51,0.02 -1.01,0.07 -1.52,0.12 -0.12,-0.12 -0.23,-0.25 -0.35,-0.38 -0.11,-0.12 -0.22,-0.24 -0.33,-0.36 -0.1,-0.1 -0.2,-0.19 -0.32,-0.25 -0.12,-0.06 -0.28,0 -0.33,0.11 -0.06,0.13 0,0.27 0.11,0.34 0,0 0,0 0,0 0.06,0.04 0.12,0.09 0.17,0.14 0.14,0.15 0.29,0.32 0.43,0.47 -0.22,0.03 -0.44,0.05 -0.65,0.08 -0.08,-0.12 -0.16,-0.24 -0.24,-0.36 -0.1,-0.15 -0.2,-0.29 -0.32,-0.42 -0.07,-0.09 -0.15,-0.17 -0.24,-0.24 -0.1,-0.07 -0.25,-0.06 -0.33,0.03 -0.08,0.08 -0.1,0.21 -0.04,0.3 0,0 0.01,0.01 0.01,0.02 0.02,0.04 0.05,0.07 0.09,0.09 0.01,0.01 0.02,0.02 0.04,0.03 0.12,0.14 0.24,0.28 0.35,0.43 0.04,0.06 0.09,0.12 0.13,0.18 -0.83,0.09 -1.66,0.16 -2.49,0.14 -0.11,-0.04 -0.16,-0.12 -0.17,-0.21 -0.02,-0.02 -0.03,-0.05 -0.03,-0.09 -0.54,-3.73 -0.34,-7.55 0.64,-11.19 1.39,-3.53 2.32,-7.03 2.21,-10.78 -0.42,0.5 -0.86,0.98 -1.38,1.39 -2.7,1.97 -6.26,1.81 -9.2099998,3.2 -1.3,0.75 -2.49,1.9 -3.25,3.25 -0.03,0.12 -0.07,0.25 -0.08,0.35 -0.34,1.82 -0.13,3.76 0.44,5.49 0.21,0.61 0.57,1.16 0.85,1.73 0.09,0.18 -0.1,0.42 -0.3,0.37 -0.29,-0.06 -1.27,-0.41 -1.97,-0.84 0.09,0.25 0.19,0.5 0.3,0.75 0.07,0.43 1.12,1.58 0.36,1.72 -1.25,-0.5 -2.46,-1.25 -3.38,-2.26 -0.05,0.23 -0.09,0.47 -0.12,0.71 0.01,0.14 -0.07,0.28 -0.18,0.35 -0.06,0.2 -0.39000004,0.26 -0.48000004,0.01 -2.11999996,-3.84 0.73000004,-5.85 3.49000004,-7.97 1.31,-2.32 3.11,-4.39 5.27,-5.95 2.4799998,-1.71 5.8699998,-2.06 7.7599998,-4.56 1.06,-1.18 1.51,-2.68 2,-4.15 0.67,-1.82 1.71,-3.52 3.05,-4.91 2.58,-2.73 6.25,-3.93 9.78,-4.89 5.79,-1.69 11.93,-0.86 17.52,1.2 0,0.03 0.01,0.05 0.02,0.08 0.04,0.16 0.07,0.34 0.14,0.5 0.05,0.11 0.13,0.18 0.25,0.19 0.1,0.01 0.21,-0.01 0.32,-0.02 0.18,-0.03 0.35,-0.07 0.52,-0.1 0.13,-0.02 0.27,-0.03 0.39,-0.05 0.12,-0.03 0.24,-0.04 0.36,-0.07 0.08,-0.02 0.16,-0.04 0.24,-0.05 -0.05,0.16 -0.11,0.32 -0.16,0.47 -0.08,0.23 -0.14,0.46 -0.2,0.7 -0.05,0.19 -0.11,0.38 -0.15,0.57 -0.02,0.12 -0.04,0.23 -0.04,0.35 0,0.09 0.03,0.19 0.11,0.26 0.05,0.04 0.11,0.07 0.16,0.1 0.05,0.03 0.11,0.06 0.15,0.09 0.07,0.04 0.14,0.09 0.21,0.14 v 0 0 c 0,0 0,0 0.01,0 0,0 0.01,0.01 0.02,0.01 0,0 -0.01,0 -0.01,0 0.06,0.04 0.13,0.09 0.19,0.14 0.02,0.02 0.04,0.04 0.06,0.05 -0.04,0.16 -0.07,0.33 -0.08,0.5 -0.01,0.16 0,0.32 0.01,0.48 0.01,0.09 0.02,0.2 0.03,0.29 0,0.01 0,0.02 0,0.02 v 0 c 0.02,0.17 0.03,0.34 0.07,0.51 0.02,0.09 0.05,0.18 0.09,0.27 0.02,0.04 0.04,0.07 0.06,0.1 0.03,0.04 0.05,0.06 0.09,0.09 0.1,0.09 0.24,0.12 0.37,0.16 0.18,0.04 0.36,0.07 0.53,0.11 v 0 c 0,0 0,0 0.01,0 0,0 0,0 0,0 0,0 0,0 0.01,0 0.05,0.02 0.1,0.03 0.14,0.05 0,0 -0.01,0 -0.01,-0.01 0.01,0 0.02,0 0.02,0.01 0,0 0,0 0,0 0,0 0.01,0 0.02,0.01 0.01,0.03 0.03,0.05 0.04,0.08 0.05,0.11 0.09,0.23 0.13,0.34 0,0.01 0,0.01 0.01,0.02 0,0 0,0 0,0 0.08,0.21 0.15,0.43 0.23,0.64 0.1,0.25 0.21,0.5 0.33,0.74 0.05,0.1 0.1,0.2 0.15,0.3 0.04,0.07 0.07,0.13 0.13,0.18 0.12,0.12 0.3,0.11 0.46,0.11 0.03,0 0.07,0.01 0.1,0.01 0.01,0 0.01,0 0.02,0 v 0 c 0.01,0.02 0.03,0.04 0.04,0.06 0.09,0.16 0.17,0.32 0.28,0.46 0.13,0.18 0.27,0.35 0.42,0.51 0.06,0.07 0.12,0.14 0.19,0.2 0.06,0.05 0.12,0.09 0.19,0.11 0.07,0.02 0.14,0.01 0.21,-0.02 0.04,-0.01 0.08,-0.04 0.11,-0.06 0.12,0.21 0.23,0.45 0.44,0.59 0.11,0.08 0.21,0.14 0.34,0.19 0.09,0.04 0.19,0.05 0.28,0.05 0.2,0.01 0.39,-0.02 0.59,-0.04 0.14,-0.01 0.27,-0.02 0.41,-0.05 0,0 0,0 0.01,0 0.01,0 0.01,0 0.02,0 v 0 c 0.01,0 0.02,0 0.02,0 0.03,0.05 0.05,0.11 0.08,0.16 0.11,0.21 0.22,0.42 0.36,0.62 0.13,0.21 0.27,0.42 0.39,0.64 0.09,0.16 0.18,0.32 0.27,0.48 0,0 0,0.01 0,0.01 0.04,0.08 0.08,0.16 0.12,0.23 0.04,0.06 0.07,0.13 0.12,0.19 0.08,0.09 0.16,0.19 0.27,0.26 0.09,0.06 0.18,0.11 0.29,0.11 0.08,0.01 0.15,-0.02 0.23,-0.05 0.02,0 0.04,-0.01 0.06,-0.01 0.02,0 0.04,0 0.05,0 0.05,0 0.11,0 0.16,0 0.09,0.02 0.18,0.03 0.26,0.04 0.01,0 0.01,0 0.02,0 0.03,0 0.06,0.01 0.09,0.02 0,0 0.01,0 0.01,0 v 0 c 0,0 0.01,0 0.02,0 0,0 0,0 0,0 0,0 0.01,0.01 0.01,0.01 v 0 0 c 0,0 0,0 0,0 v 0 c 0.01,0.01 0.02,0.02 0.04,0.03 0,0 0,0 0.01,0.01 0.07,0.11 0.12,0.23 0.18,0.35 0,0 0,0 0,0 0,0 0,0 0,0.01 0.05,0.12 0.09,0.26 0.14,0.38 0.05,0.12 0.1,0.23 0.16,0.34 0.05,0.1 0.1,0.2 0.16,0.29 0.04,0.08 0.09,0.17 0.15,0.24 0.05,0.07 0.12,0.15 0.21,0.18 0.07,0.02 0.14,0.02 0.21,-0.01 0.1,-0.04 0.15,-0.12 0.21,-0.21 0.04,-0.05 0.07,-0.11 0.09,-0.18 0.08,0.09 0.15,0.17 0.23,0.25 0.16,0.16 0.32,0.32 0.51,0.44 0.08,0.05 0.17,0.1 0.27,0.09 0.16,-0.02 0.28,-0.13 0.4,-0.21 0,0 0,0 0,0 v 0 c 0,0 0,0 0.01,0 v 0 0 c 0.02,-0.01 0.04,-0.02 0.05,-0.03 0,0 0,0 0.01,0 v 0 c 0,0 0,0 0,0 0.13,-0.05 0.27,-0.09 0.39,-0.15 0.08,-0.04 0.15,-0.08 0.23,-0.12 0,0 0,0 0,0 0,0 0,0 0,0 0.01,0 0.02,-0.01 0.02,-0.01 0,0 -0.01,0.01 -0.01,0.01 0.07,-0.03 0.15,-0.06 0.22,-0.09 0,0 0,0 0,0 0,0 0.01,0 0.01,0 -0.02,0.14 -0.05,0.27 -0.05,0.41 0,0.13 0.02,0.27 0.04,0.39 0.02,0.07 0.04,0.15 0.05,0.23 0.04,0.14 0.07,0.28 0.12,0.42 0.03,0.09 0.06,0.17 0.09,0.25 0.03,0.08 0.07,0.18 0.14,0.24 0.07,0.06 0.17,0.07 0.25,0.04 0.1,-0.04 0.18,-0.13 0.25,-0.21 0.05,-0.05 0.11,-0.09 0.16,-0.14 0.08,-0.07 0.17,-0.13 0.26,-0.19 0.23,-0.13 0.47,-0.25 0.71,-0.37 0.09,-0.04 0.17,-0.09 0.26,-0.13 -0.01,0.07 -0.02,0.13 -0.02,0.2 0,0.12 0.01,0.24 0.02,0.36 0.01,0.1 0.02,0.19 0.05,0.28 0.02,0.06 0.03,0.12 0.06,0.18 0.05,0.09 0.14,0.16 0.25,0.16 0.03,0 0.07,0 0.1,0 0.06,-0.02 0.11,-0.04 0.18,-0.06 0.09,-0.04 0.17,-0.09 0.26,-0.14 0.13,-0.08 0.25,-0.18 0.38,-0.27 0.03,-0.02 0.05,-0.03 0.08,-0.04 0.01,-0.01 0.03,-0.01 0.04,-0.02 0.01,0 0.02,0 0.02,0 v 0 c 0,0 0,0 0.01,0 0,0 0,0 0,0 0,0 0,0 0.01,0.01 0.1,0.15 0.19,0.31 0.3,0.46 0.06,0.07 0.12,0.15 0.2,0.2 0.05,0.02 0.09,0.03 0.14,0.03 0.06,0 0.12,-0.02 0.18,-0.04 0.18,-0.07 0.3,-0.25 0.43,-0.39 0,0 0.01,-0.01 0.02,-0.02 v 0 c 0.01,-0.01 0.02,-0.02 0.03,-0.03 0,0 0,0 0,0 0.1,0.07 0.2,0.16 0.29,0.24 0.11,0.09 0.24,0.15 0.38,0.18 0.11,0.02 0.23,-0.01 0.32,-0.06 0.12,-0.06 0.2,-0.19 0.27,-0.3 0.05,-0.07 0.11,-0.15 0.16,-0.23 0,0 0,0 0,0 0.2,-0.27 0.41,-0.53 0.61,-0.81 0.15,-0.21 0.27,-0.45 0.38,-0.69 0.04,-0.07 0.07,-0.14 0.1,-0.21 0.02,0.06 0.04,0.11 0.06,0.17 0.05,0.14 0.1,0.29 0.16,0.43 0.04,0.08 0.08,0.16 0.17,0.2 0.37,0.13 0.55,-0.36 0.67,-0.62 0.09,-0.18 0.18,-0.35 0.28,-0.52 0.1,-0.16 0.21,-0.31 0.32,-0.46 0.09,-0.11 0.17,-0.24 0.25,-0.37 0.02,0.02 0.05,0.05 0.07,0.07 0.07,0.08 0.14,0.16 0.21,0.25 0.05,0.06 0.09,0.12 0.16,0.16 0.04,0.03 0.1,0.05 0.15,0.06 0.06,0.01 0.11,-0.02 0.17,-0.04 0.07,-0.02 0.1,-0.08 0.14,-0.14 0.06,-0.09 0.08,-0.2 0.1,-0.3 0.03,-0.14 0.04,-0.28 0.07,-0.41 0.01,-0.05 0.02,-0.09 0.04,-0.14 0,-0.01 0.01,-0.02 0.01,-0.03 0,0 0,-0.01 0.01,-0.02 v 0 0 0 0 c 0.02,-0.01 0.03,-0.02 0.04,-0.03 0.01,0 0.02,-0.01 0.03,-0.01 0,0 0.01,0 0.01,0 0.02,0 0.03,0 0.05,0 0.08,0 0.16,0.01 0.24,0.02 0.07,0.01 0.16,0.02 0.23,0.02 0.07,-0.01 0.12,-0.01 0.18,-0.02 0.02,0.34 0.1,0.77 0,1.04 -0.07,3.2 -0.16,6.39 -0.17,9.58 -0.03,2.68 -0.29,5.37 -0.29,8.05 -0.06,0.23 0.04,0.61 0.02,0.91 0.44,0.14 0.85,0.32 1.27,0.5 z"
   id="path3" />&#10;<path
   d="m 70.557667,13.637502 c -0.35,-0.07 -1.67,-0.13 -1.31,-0.7 0.29,-0.19 0.74,0.17 1.06,0.16 0.62,0.1 1.21,-0.01 1.82,-0.11 0.13,-0.02 0.26,0.09 0.28,0.22 0.02,0.14 -0.08,0.25 -0.21,0.28 -0.55,0.09 -1.09,0.17 -1.64,0.15 z"
   id="path4" />&#10;<path
   d="m 65.417667,13.077502 c -0.64,-0.06 -1.27,-0.3 -1.7,-0.79 -0.1,-0.09 -0.1,-0.26 0,-0.35 0.1,-0.1 0.25,-0.1 0.35,0 0.59,0.67 1.58,0.73 2.39,0.65 0.14,-0.02 0.27,0.08 0.28,0.22 -0.04,0.52 -0.94,0.24 -1.32,0.27 z"
   id="path5" />&#10;<path
   d="m 74.837667,10.807502 c -0.71,-0.1 -0.44,-0.8200002 0.15,-0.78 0.93,0.03 0.74,1.08 -0.15,0.78 z"
   id="path6" />&#10;<path
   d="m 63.217667,8.7775018 c -0.61,-0.08 -1.83,-1.32 -0.65,-1.45 0.56,-0.01 2.15,0.58 1.5,1.3 -0.15,0.32 -0.57,0.23 -0.85,0.15 z"
   id="path7" />&#10;<path
   d="m 67.927667,18.227502 c -0.7,-0.37 -1.1,-1.25 -1.6,-1.86 -0.28,-0.03 -0.29,-0.46 -0.01,-0.5 0.88,0.04 1.79,-0.02 2.64,0.24 0.66,0.38 -0.57,1.97 -1.03,2.12 z m 0,-0.61 c 0.27,-0.34 0.6,-0.67 0.72,-1.1 -0.56,-0.11 -1.15,-0.14 -1.7,-0.16 0.32,0.44 0.62,0.87 0.98,1.26 z"
   id="path8" />&#10;<path
   d="m 67.607667,18.107502 c -0.55,-0.6 -1.08,-1.22 -1.59,-1.86 -0.06,-0.12 0,-0.28 0.12,-0.34 0.12,-0.06 0.27,-0.01 0.33,0.12 0.5,0.55 0.97,1.16 1.47,1.7 0.24,0.21 -0.08,0.59 -0.33,0.38 z"
   id="path9" />&#10;<path
   d="m 65.987667,20.697502 c -0.76,-0.09 -1.44,-0.51 -1.97,-1.05 -0.09,-0.1 -0.07,-0.27 0.02,-0.35 0.14,-0.12 0.32,-0.05 0.42,0.09 0.2,0.19 0.43,0.34 0.65,0.5 0.7,0.42 1.72,0.48 2.31,-0.14 0.09,-0.71 0.23,-1.42 0.31,-2.13 0.02,-0.14 0.13,-0.24 0.27,-0.23 0.13,0.01 0.25,0.13 0.23,0.27 -0.1,0.76 -0.21,1.52 -0.34,2.27 -0.36,0.61 -1.23,0.83 -1.9,0.77 z"
   id="path10" />&#10;<path
   d="m 69.277667,20.987502 c -0.46,0.04 -2.23,-1.01 -1.64,-1.48 0.12,-0.06 0.27,-0.01 0.34,0.11 0.24,0.33 0.59,0.58 0.94,0.76 0.6,0.26 1.29,0.04 1.83,-0.27 0.12,-0.07 0.28,0 0.34,0.11 0.06,0.13 0,0.27 -0.12,0.34 -0.51,0.3 -1.1,0.48 -1.69,0.43 z"
   id="path11" />&#10;<path
   d="m 66.107667,19.067502 c -0.01,-0.13 0.1,-0.26 0.24,-0.26 0.13,0 0.25,0.09 0.26,0.24 0.01,0.13 -0.1,0.26 -0.24,0.26 -0.14,-0.01 -0.26,-0.1 -0.26,-0.24 z"
   id="path12" />&#10;<path
   d="m 66.227667,18.157502 c -0.01,-0.13 0.1,-0.26 0.24,-0.26 0.13,0 0.25,0.09 0.26,0.24 0.01,0.13 -0.1,0.26 -0.24,0.26 -0.13,0 -0.25,-0.09 -0.26,-0.24 z"
   id="path13" />&#10;<path
   d="m 65.187667,18.617502 c -0.01,-0.13 0.1,-0.26 0.24,-0.26 0.13,0 0.25,0.09 0.26,0.24 0.01,0.13 -0.1,0.26 -0.24,0.26 -0.13,0 -0.25,-0.1 -0.26,-0.24 z"
   id="path14" />&#10;<path
   d="m 64.857667,17.827502 c -0.01,-0.13 0.1,-0.26 0.24,-0.26 0.13,0 0.25,0.09 0.26,0.24 0.01,0.13 -0.1,0.26 -0.24,0.26 -0.13,0 -0.25,-0.1 -0.26,-0.24 z"
   id="path15" />&#10;<path
   d="m 63.967667,18.507502 c -0.01,-0.13 0.1,-0.26 0.24,-0.26 0.13,0 0.25,0.09 0.26,0.24 0.01,0.13 -0.1,0.26 -0.24,0.26 -0.13,-0.01 -0.25,-0.1 -0.26,-0.24 z"
   id="path16" />&#10;<path
   d="m 68.807667,19.247502 c -0.01,-0.13 0.1,-0.26 0.24,-0.26 0.13,0 0.25,0.09 0.26,0.24 0.01,0.13 -0.1,0.26 -0.24,0.26 -0.13,0 -0.25,-0.1 -0.26,-0.24 z"
   id="path17" />&#10;<path
   d="m 69.627667,18.247502 c -0.01,-0.13 0.1,-0.26 0.24,-0.26 0.13,0 0.25,0.09 0.26,0.24 0.01,0.13 -0.1,0.26 -0.24,0.26 -0.13,0 -0.25,-0.09 -0.26,-0.24 z"
   id="path18" />&#10;<path
   d="m 69.607667,19.687502 c -0.01,-0.13 0.11,-0.27 0.25,-0.27 0.14,0 0.26,0.1 0.27,0.25 0.01,0.13 -0.11,0.27 -0.25,0.27 -0.14,-0.01 -0.26,-0.11 -0.27,-0.25 z"
   id="path19" />&#10;<path
   d="m 70.307667,19.287502 c -0.01,-0.13 0.1,-0.26 0.24,-0.26 0.13,0 0.25,0.09 0.26,0.24 0.01,0.13 -0.1,0.26 -0.24,0.26 -0.13,0 -0.25,-0.1 -0.26,-0.24 z"
   id="path20" />&#10;<path
   d="m 70.767667,18.437502 c -0.01,-0.13 0.1,-0.26 0.24,-0.26 0.13,0 0.25,0.09 0.26,0.24 0.01,0.13 -0.1,0.26 -0.24,0.26 -0.13,0 -0.25,-0.09 -0.26,-0.24 z"
   id="path21" />&#10;<path
   d="m 67.627667,17.727502 c -0.1,-0.07 -0.17,-0.17 -0.2,-0.29 -0.01,-0.06 -0.01,-0.12 0,-0.17 -0.17,-0.29 -0.5,-0.53 -0.56,-0.86 0.07,-0.38 0.46,-0.2 0.69,-0.1 0.32,-0.21 1.6,-0.22 1.26,0.41 0.49,0.55 -0.66,1.39 -1.19,1.01 z"
   id="path22" />&#10;&#10;&#10;&#10;&#10;&#10;&#10;&#10;&#10;&#10;&#10;&#10;&#10;&#10;&#10;&#10;&#10;&#10;&#10;&#10;&#10;&#10;&#10;&#10;&#10;&#10;&#10;&#10;&#10;&#10;&#10;&#10;&#10;</svg>
