<?xml version="1.0" encoding="UTF-8" standalone="no"?>
<!-- Generator: Adobe Adobe Illustrator 24.2.0, SVG Export Plug-In . SVG Version: 6.00 Build 0)  -->

<svg
   version="1.1"
   id="Vector_layer_1_"
   x="0px"
   y="0px"
   width="81.435745"
   height="10.25"
   viewBox="0 0 81.435745 10.25"
   xml:space="preserve"
   sodipodi:docname="napis.svg"
   xmlns:inkscape="http://www.inkscape.org/namespaces/inkscape"
   xmlns:sodipodi="http://sodipodi.sourceforge.net/DTD/sodipodi-0.dtd"
   xmlns="http://www.w3.org/2000/svg"
   xmlns:svg="http://www.w3.org/2000/svg"><defs
   id="defs11" /><sodipodi:namedview
   id="namedview11"
   pagecolor="#ffffff"
   bordercolor="#000000"
   borderopacity="0.25"
   inkscape:showpageshadow="2"
   inkscape:pageopacity="0.0"
   inkscape:pagecheckerboard="0"
   inkscape:deskcolor="#d1d1d1" />&#10;<path
   d="m 0.47574402,1.7800009 c 0.04,-0.18 0.09,-0.34 0.14,-0.52 0,0 0,0 0,0 0.01,-0.02 0.02,-0.05 0.02,-0.07 0.01,-0.04 0.02,-0.07 0.03,-0.11 0.01,-0.04 0.02,-0.07 0.03,-0.10999998 v 0 0 c 0,0 0.01,0 0.02,0 0.02,0 0.03,0 0.04,0 0.03,0 0.05,0 0.08,0 0.03,0 0.05,0 0.08,0 v 0 c 0.04,0 0.07,0 0.10999998,0 0.23,0.03 0.44,0.07 0.67,0.09 0.01,0 0.02,0 0.04,0 0.13,0.01 0.25,0.02 0.39,0.02 0,0 0.01,0 0.02,0 0,0.01 0,0.02 -0.01,0.04 0,0 0,0.01 0,0.01 0.01,0.03 0,0.06 0,0.09 -0.2,1.71 -0.73,3.5 -0.39,5.18 0.01,0.02 0.02,0.03 0.03,0.04 0.79,-1.65 1.21,-3.55 1.45,-5.34 0,-0.03 0,-0.07 0.02,-0.1 0,0 0,0 0,-0.01 0,-0.06 0.02,-0.13 0.06,-0.18 0.04,0 0.08,0 0.12,0 0.14,0 0.29,0.01 0.43,0.01 -0.01,0 -0.02,0 -0.03,0 0.21,0.01 0.43,0.02 0.64,0.04 v 0 c 0.04,0 0.09,0 0.12,0.01 0.04,0 0.09,0.01 0.12,0.01 0.05,0 0.1,0 0.14,0.01 0.01,0.03 0.01,0.06 0,0.1 -0.18,2.17999998 -1.14,8.87999998 -3.88999998,8.93999998 -1.66,-0.69 -0.7,-5.77 -0.48,-8.15 z"
   id="path1" />&#10;<path
   d="m 7.775744,9.1600009 c -2.27,-0.32 -1.53,-3.29 -1.18,-4.86 0.45,-1.91 1.6,-3.81999998 3.64,-4.27999998 0.01,0 0.01,0 0.02,-0.01 0.01,0 0.02,0 0.03,0 0.05,0 0.09,-0.0100000044727 0.14,-0.0100000044727 v 0 c 0.02,0 0.04,0 0.05,0 0,0.26000000447266 -0.01,0.52000000447266 -0.03,0.78000000447266 -0.01,0.16 -0.02,0.31999998 -0.03,0.48999998 v 0 c 0,0.04 0,0.07 0,0.11 v 0 c 0,0.01 0,0.02 0,0.03 -0.03,0.01 -0.06,0.02 -0.09,0.03 -0.03,0.01 -0.06,0.02 -0.09,0.04 -0.02,0.01 -0.04,0.02 -0.06,0.04 -1.01,0.51 -1.47,1.6 -1.91,2.57 -0.33,0.91 -0.77,1.88 -0.52,2.83 0.04,0.06 0.1,0.13 0.14,0.17 0.32,0.27 0.82,0.26 1.19,0.08 0.25,-0.23 0.43,-0.53 0.54,-0.85 -0.1,-0.01 -0.21,-0.02 -0.31,-0.04 -0.17,-0.02 -0.34,-0.05 -0.48,-0.05 -0.14,-0.01 -0.29,-0.02 -0.43,-0.04 -0.05,0 -0.1,-0.01 -0.15,-0.02 0,-0.01 0,-0.03 0.01,-0.04 0.01,-0.09 0.03,-0.17 0.04,-0.25 0,-0.02 0.01,-0.03 0.01,-0.05 v 0 c 0,0 0,-0.01 0,-0.02 0,-0.02 0.01,-0.04 0.01,-0.05 0.03,-0.11 0.05,-0.21 0.08,-0.32 0,0 0,0 -0.01,0 0.03,-0.11 0.05,-0.21 0.07,-0.31 0,0 0,0 0,0 0.04,0.02 0.08,0.02 0.12,0.02 0.04,0 0.08,0 0.12,0 v 0 c 0.03,0 0.06,0 0.09,0 0.11,0 0.22,0 0.34,0 0.33,-0.01 0.66,-0.01 0.98,0 0,0 0,0 0,0 0.34,0.01 0.67,0.03 1.01,0.04 0.02,0.02 0.04,0.05 0.05,0.09 -0.01,0.03 -0.02,0.07 -0.02,0.1 0,0.02 -0.01,0.04 -0.02,0.07 -0.01,0.07 -0.03,0.14 -0.05,0.21 -0.02,0.09 -0.05,0.18 -0.07,0.26 -0.02,0.07 -0.04,0.14 -0.06,0.21 -0.04,0.13 -0.08,0.26 -0.12,0.39 -0.13,0.27 -0.27,0.53 -0.41,0.79 -0.54,0.92 -1.47,1.84 -2.59,1.84 -0.01,0.01 -0.03,0.01 -0.05,0.01 z"
   id="path2" />&#10;<path
   d="m 13.455744,9.6800009 c 0.23,-2.79 1,-5.65 1.88,-8.33 0.01,-0.02 0.02,-0.03 0.02,-0.05 0.02,0 0.04,-0.01 0.05,-0.01 0.1,-0.02 0.21,-0.04 0.31,-0.06 0.07,-0.01 0.13,-0.02 0.2,-0.04 0.09,-0.02 0.17,-0.03 0.26,-0.05 0.04,-0.01 0.07,-0.02 0.1,-0.02 0.04,-0.01 0.09,-0.02 0.13,-0.02 0.57,1.36 0.66,3 1.11,4.46 0.23,1 0.47,1.99 0.72,2.98 0.01,0.03 0.01,0.06 0.01,0.09 0.02,0.05 0.03,0.11 0.03,0.16 0,0.03 0,0.05 -0.01,0.08 -0.04,0 -0.07,0.01 -0.11,0.01 -0.01,0 -0.03,0 -0.04,0 -0.12,0.02 -0.25,0.03 -0.38,0.04 -0.04,0 -0.07,0 -0.11,0.01 -0.18,0.02 -0.36,0.04 -0.55,0.05 0,0 0,0 -0.01,0 -0.03,0 -0.06,0 -0.09,0 0,0 -0.01,0 -0.01,0 -0.02,0 -0.04,0 -0.06,0 0,-0.01 0,-0.01 0,-0.02 0,0 -0.01,0 -0.01,0 -0.34,-0.93 -0.41,-1.97 -0.47,-2.99 -0.36,0.09 -0.72,0.23 -1.09,0.33 -0.04,0.17 -0.06,0.34 -0.09,0.52 -0.16,0.84 -0.29,1.64 -0.41,2.47 0,0.04 -0.02,0.07 -0.04,0.11 0,0 0,0 0,0 0,0.02 -0.01,0.03 -0.01,0.05 -0.02,0 -0.03,0.01 -0.04,0.01 v 0 c -0.05,0.01 -0.1,0.02 -0.15,0.03 0,0 -0.01,0 -0.01,0 -0.03,0.01 -0.06,0.01 -0.09,0.02 v 0 c -0.16,0.03 -0.31,0.06 -0.47,0.07 -0.11,0.01 -0.21,0.03 -0.32,0.04 -0.07,0.02 -0.16,0.04 -0.25,0.06 z m 2.4,-5.81 c -0.11,0.46 -0.21,0.92 -0.3,1.39 0.21,-0.04 0.41,-0.1 0.61,-0.15 -0.02,-0.11 -0.02,-0.23 -0.04,-0.34 0,-0.01 0,-0.02 0,-0.02 -0.04,-0.24 -0.07,-0.49 -0.09,-0.72 0,0 0,-0.01 0,-0.01 -0.01,-0.04 -0.02,-0.09 -0.03,-0.13 -0.05,0.01 -0.09,0 -0.14,-0.02 0,-0.01 0,0 -0.01,0 z"
   id="path3" />&#10;<path
   d="m 15.055744,6.0100009 c -0.14,-0.2 0.13,-0.64 0.37,-0.47 0.17,0 0.36,-0.16 0.51,-0.03 0.22,0.08 0.18,0.47 -0.06,0.49 -0.1,-0.02 -0.22,0.02 -0.34,0.05 -0.1,0.03 -0.2,0.05 -0.28,0.05 -0.09,0 -0.15,-0.02 -0.2,-0.09 z"
   id="path4" />&#10;<path
   d="m 22.545744,8.3500009 c -0.04,-0.21 -0.06,-0.44 -0.02,-0.66 v 0 c 0.01,-1.82 0.22,-3.62 0.52,-5.38 0,0 0.01,-0.01 0.02,-0.02 0.02,-0.05 0.05,-0.11 0.09,-0.14 0.21,-0.16 0.41,-0.15 0.62,-0.26 0.18,-0.09 0.48,-0.22 0.63,-0.1 0.03,-0.01 0.06,-0.01 0.1,0 0.86,1.14 1.59,2.48 2.51,3.61 0.02,0.04 0.05,0.08 0.09,0.12 0.05,-1.66 -0.03,-3.38 0.23,-4.96999998 0.05,-0.05 0.12,-0.09 0.19,-0.09 0.03,-0.03 0.07,-0.05 0.11,-0.05 0.26,0 0.68,-0.06 0.69,0.3 -0.07,2.02999998 -0.17,4.03999998 -0.3,6.04999998 0,0.12 0,0.24 0,0.36 0,0.05 -0.02,0.09 -0.04,0.12 -0.02,0.13 -0.02,0.27 -0.02,0.39 0,0.02 0.01,0.02 0.01,0.04 v 0 c 0.09,0.19 -0.03,0.39 -0.21,0.46 -0.08,0.07 -0.18,0.1 -0.3,0.05 -0.13,-0.01 -0.29,0 -0.42,-0.04 -0.06,0.02 -0.12,0.02 -0.18,0 0,0 0,0 -0.01,0 -0.02,0 -0.04,0 -0.05,-0.01 -0.09,-0.02 -0.14,-0.09 -0.17,-0.16 h -0.01 c -0.8,-1.05 -1.62,-2.14 -2.37,-3.22 -0.07,0.69 -0.14,1.38 -0.18,2.05 0,0.34 -0.04,0.73 -0.05,1.04 0,0.24 0.02,0.58 -0.28,0.62 -0.03,0.01 -0.07,0.01 -0.1,0 -0.03,0.01 -0.06,0.02 -0.09,0.02 -0.04,0.02 -0.08,0.03 -0.13,0.03 -0.09,-0.01 -0.17,-0.01 -0.25,-0.01 -0.08,0 -0.16,0.01 -0.24,0 -0.04,0.03 -0.09,0.04 -0.14,0.04 -0.12,-0.01 -0.22,-0.08 -0.25,-0.19 z"
   id="path5" />&#10;<path
   d="m 32.555744,9.8500009 c -0.17,-2.63 -0.22,-5.27 -0.3,-7.89 0.01,-0.04 0.02,-0.07 0.04,-0.11 0.01,0 0.02,0 0.03,0 0.1,0.01 0.2,0.01 0.3,0.02 0.27,0.01 0.55,0.01 0.82,0.03 0,0 0,0 0,0 h 0.01 c 0.07,0.01 0.15,0.01 0.21,0.02 0.01,0 0.01,0 0.01,0 0,0 0,0 0,0 0.09,0.01 0.18,0.01 0.28,0.02 0.11,0 0.21,0.01 0.32,0.01 0.51,0.11 1.01,0.23 1.49,0.42 0,0.01 0.01,0.01 0.01,0 0.2,0.03 0.38,0.17 0.55,0.26 0.49,0.23 0.79,0.71 0.93,1.21 0.58,1.42 -0.93,3.34 -2.1,4.51 -0.04,0.03 -0.07,0.05 -0.1,0.09 -0.16,0.13 -0.32,0.27 -0.48,0.4 -0.13,0.1 -0.26,0.21 -0.4,0.3 v 0 c 0,0 -0.01,0 -0.01,0 -0.14,0.09 -0.27,0.16 -0.4,0.25 0,0.01 -0.01,0.01 -0.02,0.01 0,0 0,0 0,0 -0.01,0 -0.02,0.01 -0.03,0.02 -0.21,0.12 -0.42,0.24 -0.63,0.35 v 0.02 c 0,0 0,0 -0.01,0 -0.07,0.05 -0.16,0.09 -0.23,0.13 -0.07,0.04 -0.13,0.08 -0.19,0.1200001 -0.06,-0.04 -0.09,-0.1000001 -0.1,-0.1900001 z m 1.3,-2.74 c 0,0.05 0,0.11 0.02,0.17 0.03,-0.04 0.06,-0.07 0.08,-0.1 0.5,-0.66 1.34,-1.24 1.14,-2.16 -0.2,-0.5 -0.79,-0.81 -1.28,-1.02 0.01,1.04 0.01,2.09 0.04,3.11 z"
   id="path6" />&#10;<path
   d="m 40.025744,10.240001 c -0.21,-0.02 -0.43,-0.02 -0.64,-0.05 -0.12,-0.01 -0.24,-0.03 -0.36,-0.05 -0.01,-0.03 -0.02,-0.07 -0.02,-0.11 0.4,-1.6200001 0.84,-3.2200001 1.23,-4.8400001 0.2,-0.8 0.43,-1.62 0.65,-2.43 0.03,-0.03 0.05,-0.07 0.07,-0.11 0.15,-0.52 0.3,-1.04 0.46,-1.55 0.03,-0.08 0.05,-0.16999998 0.08,-0.24999998 0.02,-0.04 0.03,-0.09 0.04,-0.13 0.04,-0.11 0.07,-0.21 0.1,-0.32 v 0 c 0.01,-0.04 0.02,-0.07 0.04,-0.11 0.06,-0.03 0.13,-0.06 0.2,-0.09 v 0 c 0.08,-0.04 0.16,-0.08 0.24,-0.11 0.02,-0.01 0.02,-0.01 0.04,-0.02 0.05,-0.02 0.1,-0.04 0.15,-0.06 0.58,0.73 0.69,1.86999998 1.12,2.72999998 0.15,0.38 0.3,0.75 0.46,1.12 0.02,0.03 0.03,0.05 0.04,0.08 0.31,0.64 0.61,1.27 0.92,1.88 0,0.03 0.01,0.05 0.02,0.08 0.13,0.27 0.24,0.54 0.36,0.81 0.03,0.06 0.06,0.12 0.09,0.19 v 0 c 0.03,0.07 0.06,0.14 0.09,0.22 0.01,0.02 0.02,0.04 0.03,0.05 -0.02,0.02 -0.03,0.04 -0.05,0.05 -0.19,0.08 -0.38,0.16 -0.58,0.23 -0.23,0.09 -0.47,0.19 -0.7,0.29 -0.09,0.03 -0.17,0.07 -0.26,0.11 -0.03,0.01 -0.05,0.02 -0.08,0.04 -0.09,0.04 -0.18,0.08 -0.27,0.12 -0.02,0.01 -0.04,0.02 -0.06,0.03 -0.01,0 -0.02,0.01 -0.03,0.01 0,0 0,-0.01 -0.01,-0.02 -0.02,-0.06 -0.05,-0.11 -0.07,-0.16 0,-0.02 -0.01,-0.03 -0.01,-0.04 v 0 c 0,0 -0.01,0 -0.01,-0.01 -0.02,-0.05 -0.04,-0.09 -0.06,-0.13 0,-0.02 -0.02,-0.04 -0.02,-0.05 v -0.01 c -0.07,-0.16 -0.14,-0.32 -0.21,-0.48 -0.06,-0.15 -0.13,-0.31 -0.18,-0.47 0,-0.01 -0.01,-0.02 -0.02,-0.03 -0.07,-0.22 -0.15,-0.44 -0.24,-0.66 -0.25,0.14 -0.5,0.26 -0.64,0.4 -0.2,0.15 -0.43,0.23 -0.62,0.36 -0.2,0.96 -0.43,1.9 -0.61,2.85 -0.02,0.08 -0.04,0.16 -0.06,0.23 -0.03,0.12 -0.06,0.2400001 -0.09,0.3600001 -0.01,0.02 -0.03,0.04 -0.05,0.06 -0.16,0 -0.32,-0.01 -0.48,-0.01 z m 1.38,-5.3100001 c -0.06,0.18 -0.12,0.37 -0.18,0.55 0.38,-0.12 0.75,-0.26 1.13,-0.38 -0.22,-0.4 -0.45,-0.84 -0.62,-1.23 -0.12,0.36 -0.22,0.71 -0.33,1.06 z"
   id="path7" />&#10;<path
   d="m 56.185744,8.8400009 c -0.08,-0.6 -0.38,-1.17 -0.23,-1.76 0.42,-1.19 1.38,-2.34 1.42,-3.62 -0.17,-0.3 -0.75,0.08 -0.97,0.17 -0.01,0 -0.02,0.01 -0.03,0.01 -0.15,0.06 -0.3,0.11 -0.45,0.18 v 0 c 0,0 0,0 -0.01,0 -0.04,0.02 -0.09,0.04 -0.13,0.06 -0.05,0.02 -0.1,0.05 -0.16,0.07 -0.02,0.01 -0.03,0.02 -0.05,0.03 -0.1,-0.26 -0.2,-0.52 -0.3,-0.78 0,-0.01 0,-0.02 -0.01,-0.03 -0.04,-0.12 -0.08,-0.24 -0.11,-0.37 0,-0.02 -0.01,-0.04 -0.01,-0.06 0.01,-0.02 0.03,-0.05 0.05,-0.06 0.15,-0.12 0.33,-0.29 0.51,-0.42 0.83,-0.53 1.87,-1.16 2.88,-0.81 1.5,0.73 0.27,2.66 -0.04,3.8 -0.29,0.68 -0.52,1.39 -0.8,2.08 0.63,-0.17 1.25,-0.39 1.89,-0.49 0.01,0.05 0.02,0.09 0.03,0.13 0.03,0.14 0.06,0.29 0.1,0.43 0.02,0.08 0.04,0.16 0.06,0.23 0,0.01 0,0.02 0,0.02 0.02,0.08 0.04,0.17 0.06,0.26 0.01,0.04 0.02,0.08 0.03,0.13 -0.05,0.01 -0.09,0.02 -0.14,0.03 -0.05,0.01 -0.09,0.02 -0.14,0.03 -0.01,0 -0.03,0.01 -0.05,0.01 -0.48,0.12 -0.96,0.23 -1.44,0.35 -0.27,0.07 -0.54,0.15 -0.81,0.23 -0.23,0.06 -0.47,0.13 -0.7,0.18 v 0 c -0.06,0.02 -0.12,0.03 -0.18,0.05 -0.05,0.01 -0.11,0.03 -0.16,0.04 -0.01,0 -0.02,0 -0.03,0.01 -0.03,-0.02 -0.06,-0.07 -0.08,-0.13 z"
   id="path8" />&#10;<path
   d="m 63.795744,4.6000009 c 0,-0.01 0,-0.02 0,-0.03 0.02,-0.19 0.05,-0.39 0.07,-0.58 0.03,-0.18 0.07,-0.37 0.11,-0.55 0.09,-0.23 0.19,-0.46 0.29,-0.68 v 0 c 0,0 0,0 0,-0.01 0,0 0,-0.01 0,-0.02 0,0 0,0.01 0,0.01 0.03,-0.05 0.06,-0.11 0.09,-0.16 0,0 0,0 0,0 0,0 0,0 0,0 v 0 c 0.01,-0.02 0.03,-0.04 0.04,-0.06 0.02,-0.02 0.03,-0.04 0.04,-0.06 0.01,-0.02 0.03,-0.03 0.05,-0.05 0.03,-0.04 0.07,-0.08 0.11,-0.12 0.07,-0.06 0.14,-0.14 0.21,-0.2 0.01,-0.01 0.03,-0.03 0.05,-0.04 0.15,0.09 0.26,0.36 0.36,0.62 0,-0.23 0,-0.49 0.03,-0.69 0.2,0 0.4,0.01 0.59,0.02 0.26,0.02 0.52,0.06 0.78,0.11 0.14,0.05 0.28,0.1 0.42,0.15 0.11,0.06 0.21,0.14 0.31,0.22 0.76,0.8 1.24,1.9 1.09,3.02 -0.19,1.11 -0.9,2.46 -2.02,2.81 -1.68,-0.33 -2.56,-2.05 -2.62,-3.71 z m 2.48,1.33 c 0.83,-0.43 0.7,-2.01 -0.23,-2.22 -0.06,-0.01 -0.11,-0.01 -0.17,-0.01 -1.1,0 -0.38,2.1 0.4,2.23 z"
   id="path9" />&#10;<path
   d="m 71.885744,5.7100009 c 0.4,-0.85 1.29,-2.52 -0.17,-2.41 -0.31,0.11 -0.6,0.38 -0.88,0.54 0,0 -0.01,0 -0.01,0 -0.1,-0.22 -0.2,-0.44 -0.3,-0.66 -0.06,-0.12 -0.11,-0.24 -0.16,-0.36 -0.06,-0.12 -0.11,-0.25 -0.16,-0.38 -0.01,-0.03 -0.02,-0.06 -0.04,-0.08 -0.01,-0.02 -0.01,-0.04 -0.02,-0.06 0.92,-1.09 3.29,-1.43999998 3.6,0.35 0.4,1.94 -0.32,3.86 -1.18,5.58 0,0 0,0.01 -0.01,0.02 -0.01,0.01 -0.02,0.03 -0.04,0.04 0.55,0.03 1.11,0.05 1.66,0.06 0,0.03 0,0.07 0,0.1 0,0.07 0,0.15 0,0.23 0,0.07 0,0.15 0,0.22 0,0.01 0,0.02 0,0.04 0,0.27 0.01,0.53 0.03,0.79 -0.11,0 -0.21,0 -0.32,0 -0.02,0 -0.05,0 -0.07,0 -0.08,0 -0.16,0 -0.23,0 -0.66,0 -1.31,0 -1.97,0 -0.25,0 -0.5,0 -0.74,0 v 0 c -0.07,0 -0.14,0 -0.22,0 -0.03,0 -0.07,0 -0.11,0 -0.04,-1.44 0.67,-2.75 1.34,-4.02 z"
   id="path10" />&#10;<path
   d="m 79.635744,9.4900009 c -0.05,-0.26 -0.24,-1.8 -0.34,-3.34 -0.79,0.18 -1.57,0.38 -2.32,0.61 -0.03,0.01 -0.06,0.01 -0.09,0.01 -0.05,0 -0.09,-0.01 -0.12,-0.03 0,-0.06 0,-0.12 0,-0.18 0,-0.02 0,-0.04 0,-0.06 0,-0.1 0,-0.2 0.01,-0.3 v 0 c 0.01,-0.27 0.03,-0.55 0.05,-0.82 0.03,-0.41 0.04,-0.82 0.05,-1.23 0,0.01 0,0.02 0,0.04 0,-0.05 0,-0.1 0,-0.15 0.05,-1 0.16,-2 0.26,-3 0.01,-0.08 0.02,-0.16999998 0.03,-0.24999998 0.06,-0.01 0.13,-0.02 0.19,-0.04 0.29,-0.06 0.58,-0.12 0.88,-0.18 0.09,0.56999998 0.11,1.14999998 0.21,1.72999998 0.12,0.85 0.13,1.7 0.24,2.54 0.19,-0.01 0.39,-0.02 0.53,-0.08 -0.01,-0.49 -0.03,-0.98 -0.03,-1.47 0.05,-0.01 0.09,-0.02 0.14,-0.03 0.06,-0.02 0.13,-0.03 0.19,-0.05 0.05,-0.01 0.11,-0.02 0.16,-0.03 0.13,-0.03 0.27,-0.06 0.4,-0.08 v 0 c 0.16,-0.03 0.32,-0.06 0.47,-0.09 0.01,0 0.01,0 0.02,0 0.08,0.47 0.11,0.96 0.17,1.43 0.02,0 0.04,-0.01 0.06,-0.01 0.09,-0.03 0.19,-0.07 0.29,-0.08 0.01,0.03 0.02,0.06 0.03,0.09 0,0 0,0 0,0 0,0 0,0 0,0 0,0 0,0 0,0 0.06,0.21 0.11,0.42 0.17,0.63 0.03,0.11 0.06,0.22 0.09,0.34 0.01,0.07 0.03,0.15 0.06,0.22 0,0 0,0 0,0.01 -0.01,0 -0.02,0 -0.03,0 -0.01,0 -0.01,0 -0.02,0 -0.18,0.05 -0.37,0.09 -0.55,0.14 0.07,0.64 0.15,1.28 0.24,1.92 0,0.07 0.01,0.15 0.02,0.22 0.02,0.16 0.04,0.31 0.06,0.47 0.02,0.12 0.03,0.24 0.05,0.37 0.01,0.05 0.01,0.1 0.02,0.15 0,0.06 0.01,0.11 0.02,0.16 -0.03,0.01 -0.06,0.02 -0.09,0.03 -0.1,0.02 -0.19,0.05 -0.28,0.08 -0.01,0 -0.02,0 -0.03,0.01 -0.14,0.04 -0.29,0.08 -0.43,0.12 -0.1,0.02 -0.19,0.05 -0.29,0.07 -0.07,0.02 -0.14,0.04 -0.21,0.06 -0.09,0.02 -0.17,0.05 -0.26,0.07 -0.01,0 -0.02,-0.01 -0.02,-0.02 z"
   id="path11" />&#10;</svg>
