<?xml version="1.0" encoding="UTF-8" standalone="no"?>
<!-- Generator: Adobe Adobe Illustrator 24.2.0, SVG Export Plug-In . SVG Version: 6.00 Build 0)  -->

<svg
   version="1.1"
   id="Vector_layer_1_"
   x="0px"
   y="0px"
   width="35.259552"
   height="66.540947"
   viewBox="0 0 35.259553 66.540948"
   xml:space="preserve"
   sodipodi:docname="črne živali brez teksta 01 Artboard 1.svg"
   inkscape:export-filename="lev.png"
   inkscape:export-xdpi="96"
   inkscape:export-ydpi="96"
   xmlns:inkscape="http://www.inkscape.org/namespaces/inkscape"
   xmlns:sodipodi="http://sodipodi.sourceforge.net/DTD/sodipodi-0.dtd"
   xmlns="http://www.w3.org/2000/svg"
   xmlns:svg="http://www.w3.org/2000/svg"><defs
   id="defs54" /><sodipodi:namedview
   id="namedview54"
   pagecolor="#ffffff"
   bordercolor="#000000"
   borderopacity="0.25"
   inkscape:showpageshadow="2"
   inkscape:pageopacity="0.0"
   inkscape:pagecheckerboard="0"
   inkscape:deskcolor="#d1d1d1" />&#10;&#10;&#10;&#10;&#10;&#10;&#10;&#10;&#10;&#10;&#10;&#10;&#10;&#10;&#10;&#10;&#10;&#10;&#10;&#10;&#10;&#10;&#10;<path
   d="m 13.147505,25.590281 c -0.56,-0.09 0.42,-2.32 0.79,-1.53 0.43,0.22 -0.41,1.7 -0.79,1.53 z"
   id="path23"
   inkscape:export-filename="./opica.png"
   inkscape:export-xdpi="96"
   inkscape:export-ydpi="96" />&#10;<path
   d="m 13.617505,24.120281 c 0,-0.14 0.11,-0.25 0.25,-0.25 0.14,0 0.25,0.11 0.25,0.25 0,0.14 -0.11,0.25 -0.25,0.25 -0.14,0 -0.25,-0.11 -0.25,-0.25 z"
   id="path24" />&#10;<path
   d="m 8.8575047,27.930281 c -0.16,-0.21 -0.47,-1.05 -0.02,-1.08 0.13,-0.11 0.38,-0.06 0.53,-0.03 0.21,0.01 0.48,0.07 0.47,0.34 -0.04,0.34 -0.6,1.08 -0.98,0.77 z"
   id="path25" />&#10;<path
   d="m 10.087505,25.740281 c 0,-0.14 0.11,-0.25 0.25,-0.25 0.14,0 0.25,0.11 0.25,0.25 0,0.14 -0.11,0.25 -0.25,0.25 -0.14,0 -0.25,-0.11 -0.25,-0.25 z"
   id="path26" />&#10;<path
   d="m 8.2175047,25.680281 c 0,-0.14 0.11,-0.25 0.25,-0.25 0.14,0 0.25,0.11 0.25,0.25 0,0.14 -0.11,0.25 -0.25,0.25 -0.13,0 -0.25,-0.11 -0.25,-0.25 z"
   id="path27" />&#10;<path
   d="m 8.6375047,30.500281 c 2.6200003,-0.13 2.8500003,-4.18 2.7200003,-6.16 -0.28,-1.18 -1.8500003,-1.11 -2.7900003,-1.02 -1.740003,1.49 -1.690003,4.13 -1.660003,6.25 0.13,0.82 1.030003,0.97 1.730003,0.93 z m 25.7500003,21.12 c 0.32,0.02 1.23,0.14 0.72,0.59 -0.33,0.08 -0.68,-0.09 -0.99,-0.09 0.28,0.13 0.61,0.21 0.85,0.41 0.2,0.28 -0.15,0.5 -0.41,0.41 0.2,0.14 0.38,0.21 0.57,0.34 0.21,0.21 -0.04,0.52 -0.3,0.42 -0.42,-0.08 -0.82,-0.21 -1.21,-0.32 v 0 c -0.54,-0.09 -1.09,-0.12 -1.59,0.13 0.39,0.03 2.4,1.07 1.28,1.25 -0.65,-0.22 -1.32,-0.47 -2.01,-0.43 -1.31,0.11 -2.46,1.06 -3.77,1.27 -0.09,-0.01 -0.18,-0.03 -0.26,-0.06 -0.05,0.02 -0.11,0.01 -0.16,-0.02 -0.36,-0.15 -0.52,-0.54 -0.66,-0.88 -0.3,-0.89 -0.73,-1.71 -1.03,-2.6 -0.93,-2.09 -2.14,-4.15 -2.07,-6.47 -2.12,0.96 -3.56,2.8 -5.16,4.43 -2.23,1.91 -4.7,4.23 -7.8,4.27 -0.22,0 -0.9000003,-0.09 -1.4900003,-0.25 -0.1,0.14 -0.19,0.26 -0.23,0.34 -2.090003,3.22 -3.300003,6.91 -5.260003,10.2 0.21,-0.05 0.42,-0.1 0.63,-0.15 0.22,-0.05 0.76,-0.23 1,-0.15 0.07,0 0.15,0.04 0.2,0.12 0.17,0.32 0.3,0.66 0.38,1.02 0.11,0.26 0.19,0.52 0.09,0.77 -0.16,0.18 -0.31,0.1 -0.43,-0.04 -0.05,-0.02 -0.09,-0.05 -0.11,-0.1 -0.02,-0.03 -0.03,-0.06 -0.03,-0.1 -0.01,-0.02 -0.02,-0.04 -0.04,-0.06 0.02,0.52 -0.45,0.35 -0.68,0.08 0.15,0.27 0.09,0.73 -0.31,0.55 -1.04,-0.62 -2.25,-0.3 -3.36999995,-0.53 -0.24,-0.07 -0.62,-0.05 -0.73,-0.31 -0.01,-0.04 -0.01,-0.08 0,-0.11 v 0 c 0,-0.02 0,-0.04 0,-0.05 0.09,-0.98 0.44,-1.91 0.74,-2.84 0.96999995,-3.08 1.87999995,-6.18 2.84999995,-9.25 0.33,-1.01 0.57,-2.05 0.87,-3.08 0,0 0,0 0,-0.01 -2.12,-6.45 -1.4,-13.29 -0.3,-19.85 -5.3,-6.8 -4.60999995,-20.54 -2.46,-28.55 0.19,-0.36 0.02,-1.14000001 0.51,-1.16000001 0.07,0.01 0.12,0.05 0.16,0.11 0.08,-0.28 0.1,-0.59 0.29,-0.81 0.39,-0.25 0.53,0.34 0.52,0.63 0.07,-0.27 0.29,-0.78 0.61,-0.44 0.16,0.33 0.04,0.73 0.04,1.09000001 0.55,0.1 0.07,0.98 0.09,1.36 -0.59,4.69 -1.07,9.44 -1.02,14.17 0.16,0.76 0.33,1.51 0.52,2.27 0.64,1.86 1.21,3.75 1.5,5.69 0,0.01 0.01,0.02 0.01,0.04 0.16,0.64 0.34,1.28 0.52,1.92 1,-1.24 0.84,-3.02 1.69,-4.35 1.800003,-2.62 4.7500033,-1.7 5.9800033,0.89 0.07,0.27 -0.02,0.55 -0.14,0.78 -0.32,0.6 -0.49,1.3 -0.5,1.96 -0.04,0.51 -0.05,1.02 -0.04,1.53 1.45,-1.5 6.74,-4.34 8.39,-4.58 -0.07,-2.08 0.22,-4.18 0.73,-6.19 0.44,-1.66 1.5,-3.08 1.87,-4.77 0.7,-2.75 1.72,-6.22 4.76,-6.97 0.04,0 0.07,-0.01 0.1,-0.01 0.02,0 0.05,0 0.07,-0.01 v 0 c 0.04,-0.01 0.07,-0.01 0.1,-0.01 0.05,0 0.1,0 0.14,0.01 0,0 0,0 0.01,0 0.05,0 0.09,0 0.14,0.01 0.04,0.01 0.07,0.02 0.11,0.02 0,0 0,0 0,0.01 0.14,0.02 0.29,0.06 0.43,0.1 0.03,0.01 0.05,0.02 0.09,0.02 0,0 0,0 0,0 0.14,0.04 0.28,0.08 0.42,0.14 0.07,0.02 0.12,0.05 0.18,0.09 0.08,0.07 0.16,0.15 0.23,0.22 0.01,0 0.01,0.01 0.02,0.02 0.01,0.01 0.02,0.02 0.02,0.02 0.09,0.09 0.18,0.18 0.27,0.27 0.09,0.1 0.19,0.2 0.29,0.29 0.01,0.01 0.01,0.02 0.02,0.02 0,0 0.01,0 0.01,0.01 0,0.01 0,0.01 0,0.02 0.22,0.29 0.38,0.6 0.48,0.91 0.21,0.46 -0.31,0.81 -0.51,0.26 0.09,0.57 0.59,1.6 0.38,2.1 -0.59,0.4 -0.67,-1.27 -0.91,-1.61 0.04,0.6 0.04,1.2 0.02,1.8 -0.01,0.12 -0.12,0.21 -0.25,0.21 -0.12,0 -0.23,-0.09 -0.25,-0.21 -0.07,-0.54 -0.09,-1.02 -0.15,-1.54 -0.11,0.49 0,1.14 -0.36,1.52 -0.67,0.18 -0.25,-0.98 -0.31,-1.36 -0.2,0.34 -0.33,1.79 -0.8,1.79 -0.06,0 -0.12,-0.02 -0.2,-0.07 -0.13,-0.91 0.25,-1.89 0.35,-2.83 -0.25,0.11 -0.5,0.21 -0.71,0.4 -0.12,0.23 -0.23,0.46 -0.33,0.7 -0.84,4.61 -1.02,9.34 -2.55,13.8 -0.35,0.9 -0.38,2.1 -1.27,2.65 -1.77,1.52 -3.92,2.43 -5.96,3.5 0,0 0,0 0,0 -0.28,0.16 -0.55,0.32 -0.81,0.5 -0.33,0.19 -0.66,0.4 -0.99,0.61 -0.25,1.3 -0.11,2.58 0.1,3.85 0,0.01 0,0.02 0,0.03 0.69,2.86 1.16,5.78 0.38,8.71 -0.29,1.37 -0.61,2.73 -1.04,4.06 0.11,-0.09 0.22,-0.18 0.32,-0.27 2,-1.64 4.23,-2.94 6.52,-4.13 0.69,-0.31 1.59,-0.95 2.34,-0.57 0.36,0.07 0.71,0.75 0.94,0.99 2.16,2.42 2.58,5.66 3.18,8.71 0.19,0.76 0.42,1.53 0.7,2.24 0.31,-0.21 0.64,-0.39 0.96,-0.57 1.25,-0.74 2.65,-1.12 4.05,-1.43 0.14,-0.04 0.29,-0.09 0.43,-0.12 0.28,-0.11 0.68,0.16 0.4,0.44 -0.22,0.07 -0.44,0.09 -0.61,0.22 z"
   id="path28" />&#10;&#10;&#10;&#10;&#10;&#10;&#10;&#10;&#10;&#10;&#10;&#10;&#10;&#10;&#10;&#10;&#10;&#10;&#10;&#10;&#10;&#10;&#10;&#10;&#10;&#10;&#10;</svg>
