<?xml version="1.0" encoding="UTF-8" standalone="no"?>
<!-- Generator: Adobe Adobe Illustrator 24.2.0, SVG Export Plug-In . SVG Version: 6.00 Build 0)  -->

<svg
   version="1.1"
   id="Vector_layer_1_"
   x="0px"
   y="0px"
   width="82.020004"
   height="57.42551"
   viewBox="0 0 82.020006 57.425511"
   xml:space="preserve"
   sodipodi:docname="slonček.svg"
   inkscape:export-filename="slonček-white.svg"
   inkscape:export-xdpi="96"
   inkscape:export-ydpi="96"
   xmlns:inkscape="http://www.inkscape.org/namespaces/inkscape"
   xmlns:sodipodi="http://sodipodi.sourceforge.net/DTD/sodipodi-0.dtd"
   xmlns="http://www.w3.org/2000/svg"
   xmlns:svg="http://www.w3.org/2000/svg"><defs
   id="defs54" /><sodipodi:namedview
   id="namedview54"
   pagecolor="#ffffff"
   bordercolor="#000000"
   borderopacity="0.25"
   inkscape:showpageshadow="2"
   inkscape:pageopacity="0.0"
   inkscape:pagecheckerboard="0"
   inkscape:deskcolor="#d1d1d1" />&#10;&#10;&#10;&#10;&#10;&#10;&#10;&#10;&#10;&#10;&#10;&#10;&#10;&#10;&#10;&#10;&#10;&#10;&#10;&#10;&#10;&#10;&#10;&#10;&#10;&#10;&#10;&#10;&#10;&#10;&#10;&#10;&#10;&#10;&#10;<path
   d="m 18.249999,57.417347 c -0.2,-0.01 -0.38,-0.02 -0.49,-0.01 -1.32,-0.11 -4.59,-0.33 -4.5,-2.12 -0.4,-4.03 -1.15,-8.15 -3.11,-11.74 -0.1,-0.16 -0.1999997,-0.32 -0.2899997,-0.49 -0.04,-0.09 -0.08,-0.19 -0.11,-0.29 -0.05,-0.15 -0.1,-0.3 -0.16,-0.45 -0.14,-0.34 -0.28,-0.67 -0.39,-1.02 -0.06,-0.17 -0.11,-0.34 -0.17,-0.51 -0.05,-0.14 -0.11,-0.27 -0.16,-0.41 0,0 0,0 0,0 0,0 0,0 0,-0.01 v 0 c -0.12,-0.35 -0.26,-0.69 -0.41,-1.02 -0.13,-0.29 -0.27,-0.56 -0.39,-0.84 0,0.01 0.01,0.02 0.01,0.03 -0.06,-0.14 -0.12,-0.29 -0.18,-0.43 -0.06,-0.14 -0.14,-0.28 -0.2,-0.41 -0.13,-0.26 -0.25,-0.53 -0.38,-0.79 0,0 0,0 0,0 0,0 0,0 0,0 -0.08,-0.16 -0.17,-0.32 -0.25,-0.48 -0.08,-0.16 -0.16,-0.33 -0.25,-0.49 -0.18,-0.35 -0.39,-0.68 -0.57,-1.02 0,-0.01 -0.01,-0.02 -0.02,-0.02 0,0.01 0.01,0.02 0.02,0.02 0,0 0,0 0,0.01 -0.11,-0.21 -0.21,-0.42 -0.32,-0.62 -0.11,-0.2 -0.23,-0.41 -0.33,-0.61 -0.09,-0.18 -0.18,-0.38 -0.27,-0.55 -0.11,-0.2 -0.22,-0.39 -0.34,-0.58 -0.13,-0.21 -0.24,-0.42 -0.36,-0.63 -0.11,-0.21 -0.23,-0.41 -0.36,-0.6 -0.07,-0.11 -0.14,-0.22 -0.22,-0.33 -0.04,-0.06 -0.08,-0.12 -0.13,-0.18 -0.02,-0.03 -0.05,-0.06 -0.07,-0.08 -0.77,-2.57 -0.61,-5.34 -0.87,-7.99 -0.02,-2.86 -0.16,-5.7 0.16,-8.53 -0.08,0.29 -0.16,0.58 -0.24,0.87 -0.65,2.41 -0.3,4.96 -0.29,7.43 0.08,2.9 0.42,5.78 0.16,8.65 0.01,2.11 -0.31,4.21 -0.29,6.32 -0.1,0.55 0.31,8.69 -0.82,6.89 -0.14,0.2 -0.25,0.6 -0.56,0.5 -0.11000001,-0.04 -0.17000001,-0.16 -0.19000001,-0.27 -0.01,-0.07 -0.02,-0.13 -0.03,-0.2 -0.06,0.01 -0.11,0.04 -0.17,0.07 -0.06,0.06 -0.15,0.11 -0.23,0.11 -0.01,0 -0.02,0 -0.03,0 -0.02,0 -0.05,0 -0.07,0 -0.14,0.08 -0.36,0.04 -0.37999999860915,-0.17 C 0.02999929,42.587347 0.54999929,40.767347 0.94999929,38.977347 c 0.01,-0.06 0.01,-0.13 0.02,-0.19 -0.1,-3.68 0.65000001,-7.35 0.54000001,-11.02 -0.52000001,-4.53 -1.45000001,-9.21 -0.16,-13.69 1.13,-3.99 3.52,-8.2900004 7.39,-10.0200004 0.01,0 0.02,-0.01 0.02,-0.01 0.12,-0.05 0.25,-0.11 0.38,-0.16 0.08,-0.03 0.16,-0.06 0.23,-0.09 0.12,-0.04 0.24,-0.09 0.36,-0.12 3.9699997,-1.29 8.3899997,-0.3 12.4899997,-0.27 6.21,0.12 12.19,-1.58 18.26,-2.62999999 -0.2,0.21 -0.39,0.41999999 -0.58,0.62999999 -0.32,0.37 -0.63,0.75 -0.97,1.1 -0.08,0.09 -0.16,0.17 -0.24,0.25 -0.08,0.09 -0.16,0.17 -0.24,0.26 -0.15,0.19 -0.3,0.38 -0.45,0.58 0,0 0,0.01 -0.01,0.01 v 0 c 0,0 0,0.01 -0.01,0.01 v 0 c -0.21,0.29 -0.44,0.57 -0.67,0.86 -0.1,0.12 -0.19,0.25 -0.29,0.38 -0.06,0.09 -0.12,0.17 -0.18,0.26 -0.04,0.08 -0.09,0.15 -0.14,0.23 -0.08,0.14 -0.15,0.29 -0.22,0.44 -0.07,0.17 -0.15,0.34 -0.2,0.51 -0.03,0.09 -0.06,0.19 -0.09,0.29 -0.02,0.09 -0.04,0.17 -0.06,0.25 -0.04,0.14 -0.05,0.29 -0.08,0.43 -0.02,0.18 -0.04,0.36 -0.06,0.54 -0.02,0.18 -0.04,0.37 -0.03,0.55 0.02,0.3 0.05,0.61 0.17,0.89 0.07,0.17 0.15,0.34 0.25,0.5 0.09,0.15 0.2,0.3000004 0.34,0.4100004 0.11,0.09 0.21,0.18 0.34,0.24 0.11,0.05 0.21,0.1 0.33,0.14 0.04,0.01 0.07,0.02 0.11,0.03 0.05,0.02 0.11,0.03 0.17,0.04 0.11,0.03 0.22,0.04 0.34,0.04 -0.03,0.05 -0.05,0.1 -0.08,0.14 -0.05,0.1 -0.09,0.2 -0.13,0.3 -0.08,0.19 -0.14,0.39 -0.2,0.58 -0.07,0.23 -0.14,0.47 -0.19,0.71 -0.05,0.23 -0.09,0.47 -0.13,0.7 -0.04,0.24 -0.08,0.49 -0.11,0.73 -0.02,0.1 -0.02,0.19 -0.04,0.29 -0.01,0.1 -0.02,0.21 -0.02,0.31 0,0.1 -0.01,0.21 -0.01,0.32 0,0.12 0.01,0.24 0.02,0.36 0.01,0.11 0.03,0.22 0.05,0.33 0.03,0.13 0.05,0.26 0.09,0.38 0.07,0.25 0.17,0.48 0.3,0.7 0.1,0.17 0.23,0.32 0.36,0.46 0.11,0.11 0.24,0.21 0.36,0.29 0.22,0.14 0.45,0.28 0.69,0.37 0.16,0.05 0.31,0.11 0.46,0.14 0.07,0.02 0.14,0.03 0.2,0.05 0.11,0.02 0.21,0.04 0.31,0.06 0.12,0.02 0.23,0.04 0.34,0.05 0.2,0.02 0.4,0.05 0.6,0.04 0.23,-0.02 0.46,-0.05 0.68,-0.1 0.1,-0.02 0.21,-0.04 0.31,-0.06 0.21,-0.05 0.42,-0.11 0.63,-0.19 0.13,-0.05 0.26,-0.11 0.39,-0.17 0,0.01 0,0.02 0,0.04 -0.01,0.12 -0.01,0.25 -0.01,0.38 0.01,0.28 0.02,0.55 0.03,0.83 0,0.13 0.01,0.26 0.02,0.39 0.01,0.15 0.03,0.3 0.05,0.45 0.04,0.29 0.1,0.57 0.16,0.86 0.05,0.25 0.1,0.5 0.16,0.74 0.04,0.13 0.07,0.27 0.12,0.4 0.08,0.23 0.16,0.46 0.27,0.68 0.12,0.25 0.29,0.51 0.48,0.71 0.16,0.17 0.32,0.34 0.51,0.48 0.18,0.14 0.38,0.29 0.59,0.37 0.2,0.08 0.4,0.15 0.62,0.18 0.21,0.04 0.42,0.06 0.64,0.07 0.12,0.01 0.23,0.02 0.35,0.03 0.08,0 0.18,0.01 0.27,0.01 0.04,0 0.08,0 0.12,0 0.12,-0.01 0.22,-0.02 0.34,-0.04 0.19,-0.03 0.37,-0.08 0.55,-0.14 0.24,-0.07 0.48,-0.14 0.7,-0.26 0.22,-0.12 0.44,-0.25 0.64,-0.41 0.35,-0.29 0.66,-0.63 0.9,-1.02 0.17,-0.28 0.33,-0.57 0.47,-0.87 0.06,-0.12 0.12,-0.25 0.17,-0.38 0.05,-0.1 0.08,-0.21 0.12,-0.31 0.04,-0.11 0.09,-0.22 0.12,-0.34 0.05,-0.16 0.1,-0.32 0.14,-0.48 0.07,-0.24 0.13,-0.49 0.19,-0.73 0.07,-0.27 0.13,-0.54 0.19,-0.81 0.03,-0.11 0.05,-0.22 0.07,-0.34 0.03,-0.15 0.07,-0.31 0.09,-0.46 0.05,-0.33 0.08,-0.66 0.1,-0.99 0.01,-0.15 0.01,-0.3 0.01,-0.46 0,-0.28 0.01,-0.55 0.01,-0.83 0,-0.25 0,-0.51 -0.01,-0.77 0,-0.21 -0.02,-0.41 -0.04,-0.62 -0.02,-0.27 -0.04,-0.54 -0.05,-0.8 0,-0.07 -0.01,-0.14 -0.01,-0.2 -0.01,-0.14 -0.01,-0.29 -0.03,-0.42 -0.01,-0.08 -0.02,-0.16 -0.04,-0.24 -0.01,-0.05 -0.03,-0.09 -0.04,-0.14 -0.05,-0.13 -0.18,-0.21 -0.31,-0.17 -0.13,0.04 -0.21,0.18 -0.17,0.31 0.01,0.04 0.02,0.07 0.04,0.11 0,0 0,0 0,0.01 v 0 0 c 0.01,0.03 0.01,0.05 0.02,0.07 0,-0.01 0,-0.01 0,-0.02 0,0.01 0,0.02 0,0.03 0,0 0,-0.01 0,-0.01 0,0 0,0.01 0,0.02 0.03,0.26 0.04,0.52 0.05,0.79 0,0.11 0.01,0.23 0.02,0.34 0.02,0.32 0.04,0.64 0.06,0.95 0,-0.01 0,-0.02 0,-0.03 0,0.27 0.01,0.52 0.01,0.79 0,0.68 0,1.36 -0.09,2.03 0,0 0,0 0,0 -0.06,0.42 -0.16,0.83 -0.25,1.24 -0.09,0.36 -0.18,0.73 -0.27,1.09 0,0 0,0 0,-0.01 -0.04,0.12 -0.07,0.24 -0.11,0.36 -0.03,0.09 -0.05,0.2 -0.08,0.29 -0.07,0.19 -0.14,0.38 -0.21,0.56 0,-0.01 0.01,-0.02 0.02,-0.03 -0.05,0.1 -0.09,0.2 -0.14,0.29 -0.04,0.07 -0.07,0.15 -0.11,0.23 -0.07,0.12 -0.13,0.25 -0.2,0.37 -0.06,0.11 -0.12,0.22 -0.19,0.32 0,0 0,0 0,0.01 0,0 0,0 0,-0.01 0,0 0,0 0.01,-0.01 -0.11,0.17 -0.23,0.32 -0.36,0.48 0.01,-0.01 0.02,-0.02 0.02,-0.02 -0.04,0.04 -0.08,0.08 -0.12,0.12 0.01,-0.01 0.02,-0.02 0.02,-0.02 -0.12,0.12 -0.24,0.23 -0.36,0.34 0,0 -0.01,0 -0.01,0.01 -0.12,0.09 -0.25,0.18 -0.39,0.27 0,0 -0.01,0 -0.01,0.01 v 0 c -0.15,0.07 -0.3,0.14 -0.45,0.2 0,0 0.01,0 0.02,0 -0.27,0.09 -0.54,0.16 -0.82,0.22 0.01,0 0.02,0 0.03,-0.01 -0.06,0.01 -0.11,0.02 -0.17,0.03 0,0 0,0 0.01,0 -0.01,0 -0.01,0 -0.02,0 0,0 0.01,0 0.01,0 -0.01,0 -0.01,0 -0.02,0 v 0 0 c -0.1,0.01 -0.2,0.02 -0.3,0.01 0.01,0 0.02,0 0.03,0 -0.18,-0.01 -0.36,-0.02 -0.54,-0.04 -0.23,-0.02 -0.46,-0.05 -0.7,-0.09 0,0 0,0 0.01,0 0,0 -0.01,0 -0.02,0 0,0 0,0 0.01,0 0,0 -0.01,0 -0.01,0 v 0 0 c -0.04,-0.01 -0.08,-0.02 -0.12,-0.03 v 0 c -0.09,-0.03 -0.18,-0.06 -0.27,-0.1 0.01,0 0.02,0.01 0.03,0.01 -0.09,-0.04 -0.18,-0.09 -0.27,-0.14 0.01,0 0.02,0.01 0.03,0.02 -0.16,-0.11 -0.32,-0.24 -0.47,-0.38 0,0 0.01,0.01 0.02,0.01 -0.04,-0.04 -0.09,-0.08 -0.13,-0.12 -0.1,-0.11 -0.19,-0.21 -0.28,-0.32 0,0 0,-0.01 -0.01,-0.01 0,0 0,-0.01 -0.01,-0.01 0,0 0,0 0,0.01 -0.08,-0.12 -0.15,-0.25 -0.22,-0.38 0.01,0.01 0.01,0.02 0.02,0.03 -0.07,-0.16 -0.15,-0.32 -0.2,-0.49 -0.03,-0.09 -0.06,-0.18 -0.09,-0.27 0,0.01 0.01,0.02 0.01,0.03 -0.03,-0.11 -0.06,-0.23 -0.1,-0.34 0,0.01 0.01,0.02 0.01,0.03 -0.08,-0.36 -0.16,-0.71 -0.23,-1.07 -0.04,-0.2 -0.07,-0.4 -0.09,-0.6 -0.02,-0.14 -0.03,-0.28 -0.04,-0.43 0,0 0,0.01 0,0.01 -0.02,-0.41 -0.04,-0.83 -0.04,-1.24 0,-0.16 0.03,-0.32 0.03,-0.48 0,-0.11 -0.02,-0.23 -0.12,-0.29 -0.11,-0.07 -0.23,-0.02 -0.34,0.03 -0.27,0.12 -0.54,0.24 -0.82,0.34 -0.15,0.04 -0.29,0.08 -0.44,0.11 -0.2,0.04 -0.39,0.08 -0.59,0.11 -0.12,0.02 -0.25,0.02 -0.38,0.03 -0.2,-0.01 -0.4,-0.04 -0.6,-0.06 0.01,0 0.02,0 0.03,0.01 -0.11,-0.02 -0.22,-0.04 -0.33,-0.06 -0.19,-0.04 -0.38,-0.09 -0.56,-0.14 0.01,0 0.02,0 0.03,0.01 -0.14,-0.05 -0.27,-0.1 -0.39,-0.16 -0.12,-0.07 -0.24,-0.14 -0.36,-0.22 0,0 0.01,0.01 0.02,0.02 -0.04,-0.03 -0.07,-0.05 -0.11,-0.08 0,0 -0.01,0 -0.01,-0.01 v 0 0 c -0.07,-0.05 -0.13,-0.11 -0.19,-0.16 0.01,0.01 0.01,0.01 0.02,0.02 -0.06,-0.06 -0.12,-0.12 -0.18,-0.19 0.01,0.01 0.02,0.02 0.02,0.02 -0.05,-0.06 -0.1,-0.13 -0.14,-0.2 -0.02,-0.04 -0.04,-0.07 -0.06,-0.11 -0.03,-0.05 -0.06,-0.11 -0.08,-0.17 -0.02,-0.03 -0.03,-0.07 -0.04,-0.11 -0.04,-0.09 -0.06,-0.19 -0.09,-0.29 -0.02,-0.11 -0.05,-0.22 -0.07,-0.34 -0.02,-0.11 -0.03,-0.21 -0.04,-0.32 0,0 0,0.01 0,0.01 0,-0.07 -0.01,-0.15 -0.01,-0.23 0,-0.06 0,-0.12 0.01,-0.18 0,-0.12 0.02,-0.25 0.02,-0.37 0,0.01 0,0.02 0,0.04 0.01,-0.09 0.02,-0.19 0.03,-0.29 0,0 0,-0.01 0,-0.01 0,-0.01 0,-0.01 0,-0.02 0,0 0,0 0,0 0.1,-0.66 0.2,-1.32 0.38,-1.96 0,0.01 -0.01,0.02 -0.01,0.03 0.04,-0.13 0.08,-0.27 0.13,-0.4 0.05,-0.13 0.09,-0.25 0.15,-0.38 0,0.01 0,0.01 -0.01,0.02 0.05,-0.1 0.1,-0.21 0.16,-0.31 0.06,-0.11 0.12,-0.22 0.17,-0.34 0.04,-0.1 0.03,-0.21 -0.04,-0.29 -0.04,-0.05 -0.12,-0.09 -0.19,-0.09 -0.1,0 -0.21,0 -0.31,0 0.01,0 0.02,0 0.02,0 -0.11,-0.01 -0.22,-0.02 -0.33,-0.04 0,0 0,0 0,0 0,0 0,0 0,0 -0.01,0 -0.01,0 -0.02,0 -0.09,-0.02 -0.17,-0.04 -0.25,-0.07 0.01,0 0.02,0.01 0.04,0.01 -0.09,-0.03 -0.18,-0.07 -0.27,-0.1100004 0,0 0,0 0,0 -0.05,-0.03 -0.09,-0.06 -0.14,-0.09 0.01,0 0.02,0.01 0.03,0.02 -0.04,-0.03 -0.09,-0.06 -0.13,-0.1 -0.04,-0.04 -0.08,-0.07 -0.11,-0.11 -0.06,-0.07 -0.11,-0.13 -0.14,-0.2 -0.06,-0.1 -0.12,-0.21 -0.17,-0.31 0,0.01 0.01,0.02 0.02,0.03 -0.02,-0.04 -0.04,-0.08 -0.05,-0.12 0,0.01 0.01,0.02 0.01,0.03 -0.02,-0.07 -0.05,-0.13 -0.07,-0.2 -0.01,-0.03 -0.01,-0.05 -0.02,-0.08 -0.02,-0.07 -0.03,-0.14 -0.04,-0.22 0,-0.04 -0.01,-0.09 -0.02,-0.13 0,0 0,0.01 0,0.02 -0.01,-0.09 -0.01,-0.18 0,-0.27 0,0.01 0,0.02 0,0.03 0.01,-0.09 0.01,-0.19 0.02,-0.28 0,0.01 0,0.02 0,0.03 0.02,-0.25 0.05,-0.49 0.08,-0.74 0.03,-0.18 0.07,-0.37 0.11,-0.55 v 0 c 0,-0.01 0,-0.02 0.01,-0.03 0,0.01 0,0.01 0,0.02 0.05,-0.15 0.09,-0.3 0.15,-0.45 0.05,-0.13 0.11,-0.26 0.17,-0.39 0,0 0,0 0,0 0.04,-0.09 0.08,-0.17 0.12,-0.25 0.05,-0.08 0.1,-0.16 0.15,-0.25 0.18,-0.26 0.38,-0.52 0.57,-0.77 0.18,-0.24 0.37,-0.47 0.55,-0.71 0.07,-0.09 0.13,-0.17 0.2,-0.26 v 0 c 0.11,-0.14 0.22,-0.28 0.34,-0.41 0.12,-0.13 0.24,-0.25 0.36,-0.38 0.24,-0.25 0.47,-0.51 0.7,-0.78 0.42,-0.5 0.86,-0.97 1.32,-1.42999999 0.84,-0.14 1.68,-0.26 2.53,-0.36 0.02,0 0.04,0 0.06,-0.01 0.06,-0.01 0.12,-0.03 0.19,-0.04 1.63,-0.33 3.31,-0.25 4.98,-0.15 4.79,-0.25 9.68,-0.05 13.09,3.63999999 1.09,0.92 2,1.95 2.76,3.06 -0.09,0.02 -0.18,0.04 -0.26,0.06 -0.17,0.05 -0.34,0.11 -0.51,0.17 -0.12,0.05 -0.19,0.2 -0.14,0.32 0.04,0.1 0.13,0.16 0.23,0.16 0.03,0 0.07,-0.01 0.1,-0.02 0.07,-0.03 0.15,-0.05 0.22,-0.08 -0.01,0 -0.02,0 -0.03,0.01 0.2,-0.06 0.4,-0.11 0.6,-0.16 0.03,-0.01 0.06,-0.01 0.08,-0.02 0.15,0.24 0.3,0.48 0.44,0.72 -0.21,0.04 -0.41,0.1 -0.62,0.16 -0.21,0.07 -0.43,0.15 -0.62,0.26 -0.12,0.07 -0.16,0.22 -0.1,0.34 0.04,0.08 0.13,0.13 0.22,0.13 0.04,0 0.08,-0.01 0.12,-0.03 0.05,-0.03 0.11,-0.06 0.17,-0.09 -0.01,0 -0.02,0.01 -0.03,0.01 0.13,-0.05 0.26,-0.1 0.39,-0.15 -0.01,0 -0.02,0.01 -0.03,0.01 0.22,-0.07 0.45,-0.13 0.68,-0.18 0,0 0,0 0,0 0.03,0 0.05,-0.01 0.08,-0.01 0.13,0.24 0.25,0.49 0.38,0.74 -0.35,0.05 -0.7,0.11 -1.05,0.17 -0.14,0.02 -0.22,0.16 -0.2,0.29 0.02,0.12 0.13,0.2 0.25,0.2 0.02,0 0.03,0 0.05,0 0.31,-0.06 0.63,-0.11 0.95,-0.16 0,0 -0.01,0 -0.01,0 0,0 0.01,0 0.01,0 0,0 0,0 0.01,0 0.07,-0.01 0.15,-0.02 0.22,-0.02 0.14,0.32 0.28,0.6400004 0.41,0.9600004 -0.03,0.01 -0.06,0.02 -0.09,0.03 -0.1,0.02 -0.2,0.05 -0.3,0.07 0,0 0,0 0,0 -0.01,0 -0.02,0 -0.02,0 0,0 -0.01,0 -0.01,0 0,0 0,0 0.01,0 -0.22,0.04 -0.44,0.09 -0.66,0.12 -0.13,0.03 -0.23,0.14 -0.21,0.29 0.02,0.12 0.12,0.21 0.24,0.21 0.02,0 0.03,0 0.04,0 0.23,-0.04 0.45,-0.09 0.68,-0.13 0.12,-0.03 0.25,-0.05 0.36,-0.09 0.04,-0.01 0.09,-0.03 0.13,-0.04 0.67,1.79 1.15,3.7 1.55,5.69 0.41,1.59 0.74,3.19 1.05,4.79 -0.13,0.02 -0.26,0.04 -0.38,0.06 -0.09,0.02 -0.18,0.03 -0.27,0.05 -0.09,0.02 -0.18,0.03 -0.27,0.05 -0.11,0.02 -0.21,0.05 -0.32,0.07 -0.09,0.02 -0.18,0.03 -0.27,0.04 -0.05,0 -0.1,0.01 -0.15,0.02 -0.14,0.02 -0.24,0.13 -0.23,0.27 0.01,0.13 0.12,0.23 0.25,0.23 0.01,0 0.02,0 0.02,0 0.15,-0.02 0.3,-0.04 0.46,-0.07 0.09,-0.02 0.19,-0.04 0.29,-0.06 0.19,-0.04 0.38,-0.07 0.57,-0.11 -0.01,0 -0.02,0 -0.04,0.01 0.14,-0.02 0.29,-0.04 0.43,-0.07 0.07,0.38 0.14,0.75 0.22,1.12 0,0 0,0.01 0,0.01 0.02,0.07 0.04,0.16 0.05,0.24 0,0.01 0,0.02 0,0.03 0.01,0.07 0.02,0.13 0.04,0.2 0,0 0,0 0.01,0.01 0.01,0.08 0.02,0.16 0.03,0.25 0.02,0.14 0.03,0.29 0.05,0.43 0.01,0.07 0.02,0.13 0.04,0.2 -0.02,0 -0.04,0 -0.06,0 -0.04,0.01 -0.09,0.02 -0.13,0.02 -0.24,0.03 -0.48,0.05 -0.72,0.07 -0.22,0.02 -0.43,0.04 -0.65,0.06 -0.17,0.02 -0.34,0.04 -0.5,0.07 -0.2,0.03 -0.41,0.07 -0.61,0.14 -0.06,0.02 -0.14,0.04 -0.21,0.07 -0.01,0.01 -0.03,0.01 -0.04,0.02 -0.12,0.07 -0.17,0.21 -0.11,0.34 0.04,0.08 0.14,0.13 0.23,0.13 0.03,0 0.06,0 0.09,-0.02 0,0 0,0 0,0 0.07,-0.03 0.15,-0.05 0.22,-0.07 -0.01,0 -0.02,0.01 -0.03,0.01 0.18,-0.05 0.36,-0.09 0.55,-0.12 -0.01,0 -0.02,0 -0.03,0 0.36,-0.05 0.72,-0.09 1.08,-0.12 0.33,-0.03 0.66,-0.04 0.99,-0.11 0.02,0 0.03,-0.01 0.04,-0.01 0.02,0.1 0.04,0.21 0.06,0.31 0,-0.01 0,-0.02 -0.01,-0.03 0.04,0.17 0.07,0.34 0.11,0.51 -0.02,0 -0.05,0.01 -0.08,0.01 -0.18,0.02 -0.36,0.03 -0.53,0.05 -0.14,0.02 -0.29,0.03 -0.43,0.05 -0.18,0.02 -0.36,0.05 -0.54,0.08 -0.09,0.02 -0.17,0.03 -0.25,0.05 -0.04,0.01 -0.09,0.02 -0.13,0.04 -0.07,-0.02 -0.15,-0.01 -0.21,0.03 -0.11,0.08 -0.13,0.21 -0.07,0.33 0.05,0.07 0.11,0.13 0.2,0.14 0.02,0 0.03,0 0.05,0 0.06,0 0.12,-0.02 0.18,-0.04 0.14,-0.04 0.29,-0.07 0.44,-0.09 0,0 0.01,0 0.02,0 0,0 0,0 -0.01,0 0.27,-0.04 0.54,-0.07 0.8,-0.1 0.23,-0.02 0.47,-0.03 0.7,-0.08 0.07,0.23 0.14,0.45 0.21,0.68 -0.47,0.06 -0.95,0.14 -1.41,0.23 -0.22,0.04 -0.45,0.08 -0.67,0.13 -0.14,0.03 -0.28,0.05 -0.42,0.09 -0.11,0.03 -0.2,0.05 -0.3,0.1 -0.1,0.05 -0.14,0.18 -0.12,0.28 0.02,0.1 0.12,0.19 0.23,0.19 v 0 c 0.06,0 0.12,-0.02 0.16,-0.04 0,0 0.01,0 0.01,-0.01 0.19,-0.06 0.39,-0.09 0.59,-0.13 0.21,-0.04 0.42,-0.08 0.63,-0.12 -0.01,0 -0.02,0 -0.03,0 0.48,-0.09 0.96,-0.17 1.44,-0.23 0.01,0 0.01,0 0.02,0 0.06,0.27 0.12,0.54 0.19,0.8 -0.04,0.01 -0.07,0.02 -0.11,0.02 -0.25,0.06 -0.5,0.12 -0.75,0.17 -0.24,0.06 -0.48,0.11 -0.71,0.18 -0.4,0.11 -0.79,0.22 -1.19,0.34 -0.13,0.04 -0.21,0.17 -0.18,0.3 0.03,0.11 0.14,0.19 0.24,0.19 0.02,0 0.04,0 0.06,-0.01 0.25,-0.07 0.49,-0.15 0.73,-0.21 0.18,-0.05 0.35,-0.09 0.53,-0.14 0.24,-0.06 0.48,-0.11 0.72,-0.17 0.24,-0.06 0.48,-0.11 0.72,-0.17 0.02,0 0.03,-0.01 0.05,-0.01 0.05,0.22 0.1,0.44 0.15,0.66 0,0 -0.01,0 -0.02,0 -0.42,0.12 -0.84,0.27 -1.24,0.46 -0.19,0.09 -0.37,0.18 -0.55,0.28 -0.18,0.1 -0.36,0.2 -0.54,0.3 0.01,0 0.02,-0.01 0.03,-0.01 -0.03,0.01 -0.06,0.02 -0.09,0.04 v 0 c -0.12,0.04 -0.21,0.16 -0.18,0.29 0.03,0.11 0.13,0.2 0.24,0.2 0.02,0 0.04,0 0.06,-0.01 0.16,-0.04 0.3,-0.13 0.44,-0.21 0.12,-0.07 0.25,-0.15 0.38,-0.22 0.13,-0.07 0.27,-0.13 0.4,-0.2 v 0 0 c 0,0 0,0 0,0 0.21,-0.09 0.41,-0.18 0.62,-0.26 0.18,-0.06 0.35,-0.12 0.53,-0.18 0.08,0.34 0.15,0.68 0.22,1.02 -0.17,0.06 -0.34,0.11 -0.51,0.17 -0.25,0.09 -0.5,0.18 -0.75,0.28 -0.26,0.1 -0.51,0.21 -0.77,0.32 -0.06,-0.01 -0.12,0 -0.17,0.03 -0.12,0.07 -0.16,0.23 -0.09,0.34 0.02,0.03 0.04,0.05 0.06,0.08 0.05,0.05 0.11,0.08 0.18,0.08 0.02,0 0.04,0 0.06,-0.01 0.14,-0.04 0.26,-0.11 0.39,-0.16 0.14,-0.06 0.27,-0.12 0.41,-0.17 0.22,-0.08 0.44,-0.17 0.66,-0.25 -0.01,0 -0.02,0.01 -0.03,0.01 0.22,-0.07 0.44,-0.15 0.65,-0.22 0.04,0.21 0.09,0.41 0.12,0.61 -0.06,0.02 -0.12,0.05 -0.18,0.07 -0.49,0.19 -0.98,0.39 -1.46,0.6 -0.12,0.05 -0.2,0.19 -0.14,0.32 0.04,0.09 0.13,0.16 0.23,0.16 0.03,0 0.06,0 0.09,-0.02 0.5,-0.21 1,-0.42 1.51,-0.62 0.02,0 0.03,-0.01 0.05,-0.02 0.05,0.27 0.09,0.53 0.14,0.8 -0.04,0.01 -0.08,0.03 -0.12,0.04 -0.19,0.07 -0.38,0.16 -0.57,0.23 -0.32,0.13 -0.64,0.27 -0.97,0.41 -0.12,0.05 -0.18,0.21 -0.12,0.33 0.04,0.09 0.13,0.14 0.22,0.14 0.04,0 0.07,-0.01 0.11,-0.02 0.5,-0.21 0.99,-0.41 1.49,-0.62 -0.01,0 -0.02,0.01 -0.03,0.01 0.02,-0.01 0.04,-0.02 0.06,-0.02 0.04,0.22 0.07,0.44 0.1,0.66 0.02,0.09 0.04,0.17 0.05,0.26 -0.2,0.08 -0.41,0.16 -0.61,0.24 -0.18,0.07 -0.36,0.14 -0.53,0.21 -0.14,0.07 -0.29,0.14 -0.44,0.2 -0.13,0.06 -0.26,0.13 -0.38,0.2 -0.12,0.06 -0.23,0.13 -0.35,0.2 -0.12,0.07 -0.16,0.21 -0.1,0.34 0.04,0.08 0.13,0.13 0.22,0.13 0.04,0 0.08,-0.01 0.11,-0.03 0.22,-0.12 0.44,-0.25 0.66,-0.37 v 0 c 0.23,-0.11 0.46,-0.21 0.69,-0.3 0.26,-0.11 0.52,-0.21 0.79,-0.32 0.02,0 0.03,-0.01 0.04,-0.02 0.05,0.25 0.09,0.49 0.14,0.74 -0.17,0.11 -0.34,0.2 -0.52,0.3 -0.38,0.22 -0.77,0.43 -1.15,0.65 0,0 0,0 0,0 -0.37,0.2 -0.74,0.39 -1.11,0.61 -0.12,0.07 -0.15,0.23 -0.07,0.34 0.05,0.08 0.12,0.12 0.21,0.12 0.05,0 0.09,-0.01 0.14,-0.04 0.09,-0.05 0.18,-0.1 0.27,-0.15 -0.01,0 -0.02,0.01 -0.03,0.01 0.53,-0.29 1.06,-0.57 1.58,-0.87 0.26,-0.15 0.52,-0.3 0.79,-0.45 0.05,0.23 0.1,0.46 0.15,0.68 -0.16,0.11 -0.33,0.23 -0.49,0.34 -0.41,0.28 -0.81,0.58 -1.18,0.91 -0.1,0.09 -0.09,0.26 0,0.35 0.05,0.05 0.11,0.07 0.17,0.07 0.07,0 0.13,-0.03 0.19,-0.08 0,0 0,0 0,0 0,0 0.01,-0.01 0.01,-0.01 0,0 -0.01,0.01 -0.01,0.01 0,0 0.01,0 0.01,-0.01 0,0 0,0 0,0 0.45,-0.39 0.93,-0.73 1.42,-1.07 0.1,0.39 0.21,0.78 0.34,1.16 -0.04,0.04 -0.09,0.07 -0.13,0.11 v 0 c -0.23,0.18 -0.46,0.37 -0.7,0.57 -0.11,0.09 -0.22,0.2 -0.32,0.3 -0.09,0.09 -0.17,0.18 -0.25,0.27 -0.09,0.09 -0.18,0.17 -0.28,0.26 -0.11,0.09 -0.11,0.25 -0.02,0.35 0.05,0.05 0.12,0.08 0.19,0.08 0.06,0 0.12,-0.02 0.16,-0.06 0.2,-0.17 0.37,-0.35 0.54,-0.53 0.06,-0.06 0.12,-0.11 0.18,-0.17 0.04,-0.04 0.08,-0.08 0.12,-0.12 0.1,-0.09 0.21,-0.17 0.31,-0.26 v 0 c 0,0 0,0 0.01,0 0.01,0 0.01,-0.01 0.02,-0.02 0,0 0,0 0,0.01 0.12,-0.09 0.24,-0.19 0.36,-0.29 0.12,0.32 0.25,0.64 0.4,0.95 -0.11,0.14 -0.21,0.29 -0.32,0.44 -0.14,0.21 -0.29,0.42 -0.42,0.63 -0.08,0.12 -0.16,0.25 -0.23,0.37 -0.07,0.13 -0.15,0.26 -0.23,0.39 -0.1,0.07 -0.14,0.21 -0.08,0.33 0.05,0.09 0.14,0.14 0.23,0.14 0.05,0 0.1,-0.02 0.14,-0.05 0.08,-0.06 0.12,-0.15 0.17,-0.23 0.06,-0.11 0.12,-0.21 0.18,-0.31 0.09,-0.16 0.2,-0.32 0.3,-0.48 0.11,-0.18 0.23,-0.34 0.35,-0.52 0.05,-0.07 0.1,-0.15 0.16,-0.22 0.2,0.36 0.42,0.7 0.66,1.04 -0.04,0.07 -0.08,0.13 -0.12,0.2 -0.14,0.23 -0.27,0.45 -0.41,0.67 -0.14,0.23 -0.28,0.45 -0.42,0.67 -0.1,0.16 -0.2,0.32 -0.28,0.48 0,0 0,0 0,0.01 -0.06,0.09 -0.06,0.21 0.01,0.3 0.05,0.06 0.12,0.09 0.19,0.09 0.05,0 0.11,-0.02 0.16,-0.06 0.06,-0.05 0.09,-0.12 0.12,-0.19 0.07,-0.13 0.15,-0.27 0.23,-0.39 0.2,-0.32 0.41,-0.64 0.61,-0.96 0.08,-0.14 0.16,-0.27 0.25,-0.4 0.18,0.2 0.37,0.4 0.57,0.59 0.04,0.04 0.09,0.07 0.13,0.11 -0.07,0.22 -0.14,0.44 -0.21,0.66 -0.1,0.34 -0.22,0.67 -0.33,1.01 -0.09,0.27 -0.19,0.54 -0.27,0.8 -0.04,0.07 -0.05,0.17 0,0.25 0,0.01 0.01,0.02 0.02,0.04 0.05,0.07 0.12,0.09 0.2,0.09 0.08,0 0.16,-0.04 0.21,-0.12 0.04,-0.05 0.04,-0.12 0.06,-0.18 0.02,-0.07 0.04,-0.15 0.07,-0.23 0.05,-0.15 0.11,-0.3 0.16,-0.46 0.12,-0.35 0.24,-0.7 0.35,-1.05 0.05,-0.17 0.11,-0.35 0.16,-0.52 1.49,0.93 3.3,0.98 4.99,1.24 0.67,0.02 0.67,1.04 0.75,1.55 -0.03,0.2 0.02,0.48 -0.06,0.67 0,0 0,0 0,0.01 0,0.11 -0.08,0.21 -0.18,0.24 -1.3,0.22 -2.57,0.61 -3.89,0.61 -4.84,-0.46 -7.16,-5.66 -8.58,-9.71 -1.3,-3.47 -2.5,-6.99 -4.3,-10.24 -0.04,-0.03 -0.09,-0.05 -0.13,-0.08 0.03,0 0.05,0 0.08,0 -0.01,0 -0.02,0 -0.04,0 0.01,0 0.02,0 0.04,0 0.07,0 0.14,0 0.21,0 0.27,0 0.52,0 0.79,-0.02 0.27,-0.01 0.54,-0.06 0.81,-0.11 -0.01,0 -0.02,0 -0.03,0.01 0.16,-0.03 0.33,-0.06 0.5,-0.09 0.15,-0.02 0.3,-0.04 0.45,-0.07 0.14,-0.02 0.27,-0.06 0.34,-0.19 0.05,-0.11 0,-0.25 -0.1,-0.32 -0.04,-0.02 -0.09,-0.03 -0.13,-0.04 0.01,0 0.02,0 0.04,0 -0.04,0 -0.08,-0.01 -0.12,-0.02 -0.15,-0.04 -0.3,-0.08 -0.45,-0.11 -0.16,-0.04 -0.33,-0.09 -0.49,-0.14 -0.26,-0.11 -0.52,-0.23 -0.77,-0.36 -0.13,-0.07 -0.26,-0.15 -0.39,-0.23 -0.3,-0.21 -0.61,-0.43 -0.92,-0.65 v 0 c 0,0 0,0 0,0 0,0 -0.01,-0.01 -0.02,-0.01 0,0 0,0 0,0 0,0 0,0 0,0 -0.05,-0.04 -0.09,-0.07 -0.14,-0.11 0,0 0.01,0.01 0.01,0.01 -0.01,-0.01 -0.02,-0.01 -0.02,-0.02 -0.05,-0.04 -0.09,-0.08 -0.14,-0.12 -0.2,-0.17 -0.41,-0.34 -0.6,-0.53 -0.18,-0.17 -0.36,-0.35 -0.55,-0.51 -0.2,-0.16 -0.39,-0.33 -0.59,-0.49 -0.2,-0.17 -0.39,-0.34 -0.58,-0.52 -0.07,-0.07 -0.12,-0.16 -0.2,-0.21 -0.08,-0.05 -0.16,-0.08 -0.25,-0.1 -0.05,-0.01 -0.1,-0.02 -0.15,-0.02 -0.19,-0.02 -0.38,-0.04 -0.57,-0.05 -0.21,-0.02 -0.42,-0.01 -0.63,-0.01 -0.14,-0.11 -0.31,-0.21 -0.45,-0.3 -1.69,-0.95 -3.65,-1.4 -5.52,-1.96 -0.01,0.23 -0.06,0.47 -0.02,0.63 -0.07,7.36 -2.69,14.54 -2.15,21.92 0.89,4.44 2.81,8.72 2.87,13.32 0,0.3 0.02,0.82 -0.41,0.75 -0.01,0.01 -0.02,0.01 -0.04,0.01 -0.55,0.07 -1.07,0.07 -1.61,0.02 -0.62,0.02 -1.22,-0.11 -1.79,-0.32 -0.21,-0.05 -0.43,-0.12 -0.63,-0.2 -0.99,-0.5 -2.16,-0.89 -2.79,-1.83 -0.46,-1.04 -0.34,-2.25 -0.59,-3.36 -0.74,-5.43 -2.57,-10.61 -3.75,-15.95 0,-0.04 0,-0.07 0.01,-0.11 0,0 0,0 0,0 0.02,-0.21 0.03,-0.44 0.07,-0.66 0,0.01 0,0.02 0,0.03 0,-0.02 0.01,-0.04 0.02,-0.06 0,0 0,0 0,0 0.01,-0.04 0.02,-0.06 0.04,-0.09 0,0.01 -0.01,0.02 -0.02,0.03 0.01,-0.01 0.01,-0.02 0.02,-0.04 0.01,-0.02 0.03,-0.04 0.04,-0.05 0.03,-0.03 0.06,-0.06 0.09,-0.1 0.07,-0.07 0.14,-0.16 0.2,-0.24 0.04,-0.05 0.07,-0.11 0.11,-0.16 0.07,-0.12 0.15,-0.23 0.22,-0.34 0.16,-0.25 0.31,-0.5 0.48,-0.73 0.08,-0.11 0.17,-0.23 0.24,-0.34 0.08,-0.13 0.16,-0.26 0.23,-0.39 0.16,-0.26 0.34,-0.52 0.49,-0.78 0.06,-0.11 0.12,-0.22 0.18,-0.33 0.08,-0.15 0.16,-0.3 0.25,-0.44 0.16,-0.27 0.32,-0.55 0.47,-0.83 0.14,-0.25 0.28,-0.51 0.41,-0.77 0.16,-0.31 0.31,-0.62 0.46,-0.93 0,0 0,0 0,0 0.18,-0.36 0.34,-0.72 0.51,-1.08 0.16,-0.33 0.31,-0.67 0.47,-1 0.06,-0.12 0.02,-0.27 -0.1,-0.34 -0.11,-0.06 -0.28,-0.02 -0.34,0.1 -0.16,0.33 -0.32,0.67 -0.48,1 -0.18,0.37 -0.35,0.74 -0.52,1.1 0,-0.01 0.01,-0.02 0.01,-0.03 -0.23,0.45 -0.45,0.91 -0.69,1.36 0,0 0,0 0,0.01 0,0 0,0 0,0 0,0 0,0 0,0 -0.18,0.32 -0.35,0.65 -0.54,0.96 -0.18,0.3 -0.34,0.59 -0.51,0.9 v 0 c 0,0.01 -0.01,0.01 -0.01,0.02 0,0 0,0 0,0 0,0 0,0 0,0.01 -0.06,0.11 -0.12,0.21 -0.18,0.31 -0.07,0.1 -0.13,0.2 -0.2,0.3 -0.12,0.2 -0.24,0.4 -0.36,0.59 0,0 0,0 0,-0.01 -0.17,0.25 -0.35,0.49 -0.52,0.75 -0.17,0.27 -0.34,0.54 -0.52,0.8 0,0 0,0.01 -0.01,0.01 -0.05,0.08 -0.12,0.16 -0.18,0.23 0.01,-0.01 0.02,-0.02 0.02,-0.02 -0.09,0.09 -0.18,0.18 -0.23,0.29 -0.02,0.06 -0.05,0.12 -0.07,0.19 -0.02,0.12 -0.04,0.25 -0.05,0.38 -0.02,0.18 -0.04,0.37 -0.04,0.55 0,0.17 0.01,0.34 0.01,0.52 0,-0.01 0,-0.02 0,-0.03 0,0.05 -0.01,0.11 -0.02,0.16 -0.01,0.02 -0.01,0.04 -0.02,0.06 0,0.03 0,0.05 0,0.08 -0.16,1.39 -0.31,2.78 -0.62,4.14 -0.44,1.79 -1.2,3.48 -1.63,5.28 -0.75,4.16 -3.52,7.7 -7.82,8.05 0.07,-0.08 0.14,-0.17 0.19,-0.26 0.06,-0.1 0.12,-0.2 0.17,-0.3 0.02,-0.05 0.04,-0.1 0.06,-0.15 0.02,-0.06 0.05,-0.15 0.04,-0.22 0,-0.06 -0.02,-0.12 -0.03,-0.19 -0.02,-0.07 -0.08,-0.12 -0.12,-0.18 -0.02,-0.03 -0.05,-0.05 -0.08,-0.07 -0.11,-0.06 -0.14,-0.08 -0.25,-0.12 -0.04,-0.02 -0.09,-0.03 -0.13,-0.04 0.04,-0.05 0.07,-0.1 0.11,-0.15 0.03,-0.05 0.04,-0.12 0.05,-0.17 0.01,-0.03 0.01,-0.06 0.01,-0.09 -0.02,-0.08 -0.02,-0.13 -0.05,-0.2 -0.05,-0.12 -0.06,-0.13 -0.14,-0.23 -0.05,-0.06 -0.1,-0.09 -0.16,-0.14 -0.06,-0.05 -0.13,-0.09 -0.2,-0.12 -0.05,-0.02 -0.09,-0.04 -0.14,-0.05 0.07,-0.05 0.13,-0.11 0.2,-0.16 0.09,-0.08 0.18,-0.17 0.26,-0.26 0.05,-0.05 0.09,-0.11 0.12,-0.16 0.03,-0.05 0.08,-0.12 0.1,-0.19 0.03,-0.07 0.07,-0.14 0.06,-0.21 0,-0.06 0,-0.12 -0.01,-0.17 -0.02,-0.05 -0.04,-0.09 -0.06,-0.13 -0.04,-0.08 -0.1,-0.13 -0.16,-0.19 -0.05,-0.05 -0.13,-0.09 -0.19,-0.12 0.01,-0.01 0.02,-0.03 0.03,-0.04 0.04,-0.05 0.07,-0.11 0.1,-0.17 0.05,-0.12 0.11,-0.23 0.11,-0.36 0.01,-0.14 -0.02,-0.3 -0.12,-0.4 -0.04,-0.03 -0.07,-0.06 -0.11,-0.09 -0.04,-0.02 -0.08,-0.03 -0.12,-0.04 -0.04,-0.01 -0.08,-0.02 -0.12,-0.03 -0.07,-0.02 -0.14,-0.03 -0.21,-0.05 -0.13,-0.03 -0.27,0.05 -0.3,0.19 -0.03,0.13 0.06,0.27 0.19,0.3 0.1,0.02 0.2,0.04 0.3,0.06 0,0 0,0.01 0,0.01 -0.01,0.02 -0.01,0.05 -0.02,0.07 -0.01,0.04 -0.03,0.07 -0.04,0.11 0,0 0.01,-0.01 0.01,-0.01 0,0 -0.01,0.01 -0.01,0.02 0,0 0,0 0,0 v 0 c 0,0 0,0.01 0,0.01 0,0 0,-0.01 0,-0.01 -0.02,0.04 -0.05,0.08 -0.07,0.12 -0.02,0.03 -0.05,0.06 -0.07,0.09 -0.03,0.03 -0.06,0.05 -0.09,0.09 -0.03,0.02 -0.05,0.04 -0.09,0.05 -0.02,0.01 -0.04,0.02 -0.07,0.03 -0.01,0 -0.01,0 -0.02,0.01 0,0 0.01,0 0.02,-0.01 v 0 c -0.09,0.04 -0.2,0.07 -0.26,0.16 -0.05,0.05 -0.07,0.13 -0.06,0.21 0.01,0.11 0.11,0.21 0.22,0.22 0.1,0.01 0.2,-0.04 0.29,-0.07 0,0 0,0 0,0 0.02,-0.01 0.05,-0.02 0.08,-0.03 0.04,0 0.07,-0.01 0.11,-0.01 0.03,0.01 0.06,0.01 0.09,0.02 0.03,0.02 0.07,0.04 0.1,0.05 0.01,0.02 0.03,0.03 0.04,0.05 0,0.01 0.01,0.02 0.01,0.03 0,0 0,0.01 0,0.02 0,0.01 -0.01,0.03 -0.01,0.04 -0.02,0.03 -0.04,0.06 -0.05,0.09 -0.04,0.04 -0.06,0.09 -0.1,0.13 -0.07,0.08 -0.15,0.16 -0.23,0.23 -0.11,0.09 -0.21,0.17 -0.32,0.27 -0.05,0.04 -0.1,0.09 -0.15,0.13 0,0 0,0 0,0 0,0 -0.01,0 -0.01,0.01 0,0 0,0 -0.01,0 0,0 0,0 0.01,0 -0.04,0.02 -0.07,0.05 -0.1,0.09 -0.08,0.11 -0.04,0.28 0.07,0.34 0.05,0.03 0.11,0.04 0.17,0.05 0,0 -0.01,0 -0.01,0 0,0 0.01,0 0.01,0 0,0 0.01,0 0.01,0 0.09,0.03 0.18,0.05 0.27,0.08 -0.01,0 -0.02,-0.01 -0.03,-0.01 0.05,0.02 0.11,0.04 0.16,0.07 -0.01,-0.01 -0.02,-0.01 -0.03,-0.02 0.05,0.02 0.09,0.05 0.14,0.07 0.03,0.02 0.06,0.05 0.09,0.07 0.01,0.01 0.02,0.03 0.04,0.04 0.01,0.02 0.02,0.04 0.02,0.05 0,0.01 0,0.02 0.01,0.03 0,0.01 0,0.02 -0.01,0.02 -0.01,0.02 -0.02,0.04 -0.03,0.05 -0.02,0.03 -0.05,0.05 -0.07,0.07 0.01,0 0.02,-0.01 0.03,-0.02 -0.07,0.06 -0.13,0.11 -0.21,0.16 0.01,-0.01 0.02,-0.01 0.03,-0.02 -0.09,0.05 -0.17,0.1 -0.26,0.14 0,0 0.01,-0.01 0.01,-0.01 -0.05,0.03 -0.1,0.05 -0.15,0.08 -0.11,0.06 -0.15,0.2 -0.1,0.31 0.05,0.12 0.18,0.17 0.3,0.14 0.04,-0.01 0.09,-0.03 0.13,-0.05 -0.01,0 -0.02,0.01 -0.03,0.01 0.03,-0.01 0.06,-0.02 0.1,-0.03 0.04,-0.01 0.08,-0.02 0.12,-0.02 0.04,0 0.07,0 0.1,0 -0.01,0 -0.02,0 -0.03,0 0.06,0 0.13,0.01 0.2,0.02 v 0 c 0.06,0.01 0.12,0.02 0.18,0.04 0,0 0,0 0,0 0.02,0.01 0.05,0.02 0.07,0.02 0.02,0.01 0.04,0.02 0.06,0.04 0,0 0.01,0.01 0.01,0.01 0,0 0,0.01 0,0.02 -0.01,0.03 -0.01,0.05 -0.02,0.08 0,0 0,0 0,0 v 0 c 0,0 0,0 0,0 0,0.02 -0.01,0.03 -0.02,0.05 0,0 0,0 0,0 0,0.01 -0.01,0.02 -0.01,0.02 -0.03,0.05 -0.05,0.11 -0.09,0.16 0.01,-0.01 0.01,-0.02 0.02,-0.03 -0.11,0.16 -0.22,0.31 -0.34,0.46 -0.05,0.07 -0.11,0.14 -0.16,0.2 -0.04,0 -0.08,0 -0.12,0 -0.02,0 -0.03,0 -0.05,-0.01 0,0.01 -0.01,0.02 -0.02,0.03 -0.12,0.05 -0.28,0 -0.33,-0.13 -0.83,-1.7 -0.96,-3.57 -1.15,-5.4 0.04,-0.32 0.44,-0.31 0.81,-0.29 0.19,0.01 0.37,0.01 0.48,-0.02 0.95,0 1.78,-0.49 2.54,-1.01 0.36,-0.24 0.49,-0.67 0.49,-1.07 -0.93,-3.87 -2.12,-7.72 -2.84,-11.66 0.01,-0.38 0.02,-0.75 0.04,-1.12 v 0 c 0.01,-0.12 0.02,-0.25 0.03,-0.37 0,0 0,0.01 0,0.01 0.01,-0.11 0.02,-0.22 0.03,-0.32 0,0 0,0.01 0,0.01 0.02,-0.26 0.04,-0.52 0.05,-0.78 0.01,-0.27 0.02,-0.55 0.05,-0.82 0.02,-0.15 0.03,-0.29 0.04,-0.44 0.01,-0.12 0.01,-0.23 0.01,-0.35 0.01,-0.24 0.02,-0.48 0.04,-0.71 0,0 0,0 0,0 0,-0.01 0,-0.01 0,-0.02 v 0 c 0.01,-0.05 0.02,-0.11 0.02,-0.17 v 0 c 0,0 0,0 0,0 0,0 0,0 0,0 0,-0.01 0,-0.02 0,-0.02 0,0 0,0.01 0,0.02 0,-0.02 0,-0.04 0.01,-0.06 0,0.01 0,0.02 0,0.03 0,-0.02 0.01,-0.05 0.01,-0.07 0.02,-0.13 -0.1,-0.26 -0.23,-0.27 -0.14,-0.01 -0.25,0.09 -0.27,0.23 0,0.03 -0.01,0.06 -0.01,0.09 0,-0.01 0,-0.02 0,-0.04 -0.06,0.42 -0.07,0.84 -0.08,1.27 0,0 0,-0.01 0,-0.02 -0.02,0.19 -0.03,0.38 -0.05,0.57 -0.02,0.15 -0.03,0.31 -0.04,0.46 -0.01,0.35 -0.02,0.7 -0.05,1.04 v 0 c 0,0.01 0,0.02 0,0.02 0,0 0,-0.01 0,-0.01 -0.03,0.27 -0.05,0.54 -0.07,0.82 -0.01,0.28 -0.02,0.56 -0.03,0.84 0,0.04 0,0.08 0,0.12 -0.11,0.09 -0.21,0.18 -0.31,0.27 -1.75,1.71 -4.11,2.56 -6.55,2.23 -1.61,0 -3.09,-0.71 -4.44,-1.55 0,-0.08 0,-0.16 0.01,-0.23 0,-0.11 -0.01,-0.21 -0.01,-0.31 -0.01,-0.2 -0.03,-0.4 -0.05,-0.6 -0.02,-0.25 -0.04,-0.5 -0.05,-0.75 -0.04,-0.43 -0.09,-0.86 -0.16,-1.28 -0.03,-0.21 -0.08,-0.42 -0.11,-0.63 -0.04,-0.21 -0.07,-0.43 -0.11,-0.65 -0.07,-0.43 -0.13,-0.86 -0.22,-1.28 -0.09,-0.43 -0.19,-0.87 -0.29,-1.3 -0.09,-0.43 -0.2,-0.86 -0.33,-1.28 -0.06,-0.2 -0.12,-0.4 -0.18,-0.6 -0.07,-0.18 -0.13,-0.36 -0.2,-0.53 0,0.01 0.01,0.02 0.01,0.03 -0.02,-0.07 -0.05,-0.15 -0.08,-0.23 0,0.01 0,0.01 0,0.02 -0.03,-0.08 -0.05,-0.16 -0.08,-0.25 -0.04,-0.13 -0.16,-0.22 -0.3,-0.18 -0.13,0.03 -0.22,0.17 -0.18,0.3 0.04,0.13 0.08,0.27 0.13,0.4 0.05,0.12 0.09,0.25 0.14,0.37 0,-0.01 -0.01,-0.02 -0.01,-0.03 0.08,0.23 0.16,0.46 0.23,0.7 0.07,0.23 0.14,0.46 0.2,0.7 0.13,0.51 0.23,1.03 0.35,1.54 0,-0.01 0,-0.02 -0.01,-0.03 0.06,0.3 0.13,0.59 0.18,0.89 0.05,0.28 0.09,0.55 0.13,0.83 0.09,0.57 0.2,1.12 0.29,1.69 0,0 0,0 0,0 0,0 0,0 0,0 0,0.01 0,0.02 0,0.02 0.05,0.4 0.09,0.8 0.12,1.21 0.02,0.2 0.03,0.4 0.05,0.6 0.01,0.09 0.02,0.19 0.02,0.28 0,0.11 0.01,0.22 0.01,0.33 0,0.02 0,0.05 0,0.07 -0.47,4.53 -1.57,8.98 -1.32,13.55 0.18,2.25 0.68,4.48 1.17,6.68 0.03,0.38 0.49,2.04 0.15,2.27 -0.13,0.22 -0.57,0.27 -1.02,0.27 -0.06,0.05 -0.21,0.04 -0.35,0.03 z m 34.14,-1.05 c 0,0.04 0.01,0.07 0.02,0.1 0.03,0.06 0.05,0.12 0.11,0.16 0.04,0.03 0.08,0.05 0.12,0.05 0.01,0 0.03,0 0.04,0 0.14,0 0.27,-0.14 0.25,-0.28 -0.01,-0.06 -0.03,-0.11 -0.06,-0.16 0,0 0,0 0,0 0,-0.05 0,-0.11 0.01,-0.17 0.01,-0.04 0.01,-0.07 0.02,-0.11 0,0.01 0,0.02 -0.01,0.04 0.02,-0.09 0.04,-0.17 0.06,-0.25 0,0 0,-0.01 0,-0.02 0.04,-0.12 0.08,-0.24 0.14,-0.35 0.02,-0.03 0.03,-0.05 0.05,-0.09 0,0 0,0 0,0 0.03,-0.04 0.06,-0.09 0.1,-0.12 0.01,-0.01 0.02,-0.02 0.04,-0.04 0.03,-0.02 0.06,-0.04 0.09,-0.07 0.04,-0.02 0.07,-0.04 0.11,-0.05 0.03,0 0.05,-0.01 0.07,-0.01 0.03,0.01 0.06,0.02 0.09,0.03 0.01,0 0.02,0.01 0.03,0.02 0.02,0.01 0.03,0.02 0.05,0.04 0.02,0.02 0.04,0.04 0.05,0.05 0.05,0.05 0.1,0.11 0.13,0.18 0.07,0.12 0.13,0.25 0.19,0.39 0.04,0.09 0.07,0.18 0.1,0.27 0,0 0,0 0,0 0.01,0.04 0.02,0.08 0.04,0.12 0,0.02 0,0.04 0.01,0.06 0,0.07 0,0.14 0.05,0.2 0.04,0.05 0.1,0.09 0.17,0.09 0.13,0.02 0.27,-0.08 0.28,-0.21 0.01,-0.13 -0.02,-0.25 -0.05,-0.38 -0.03,-0.12 -0.08,-0.23 -0.12,-0.35 -0.05,-0.13 -0.11,-0.26 -0.18,-0.38 -0.05,-0.07 -0.1,-0.17 -0.16,-0.24 -0.09,-0.1 -0.18,-0.2 -0.29,-0.27 -0.11,-0.06 -0.25,-0.12 -0.38,-0.12 -0.16,0 -0.3,0.04 -0.43,0.12 -0.27,0.17 -0.46,0.44 -0.57,0.74 -0.07,-0.14 -0.15,-0.29 -0.28,-0.39 -0.07,-0.05 -0.12,-0.1 -0.2,-0.12 -0.07,-0.02 -0.14,-0.05 -0.21,-0.04 -0.05,0.01 -0.09,0.02 -0.14,0.03 -0.04,0.01 -0.08,0.03 -0.12,0.05 -0.05,0.02 -0.1,0.07 -0.14,0.1 -0.04,0.03 -0.07,0.07 -0.1,0.11 -0.02,0.02 -0.03,0.04 -0.04,0.05 -0.03,0.05 -0.06,0.1 -0.08,0.15 -0.04,0.1 -0.08,0.21 -0.11,0.31 -0.06,0.2 -0.07,0.39 -0.06,0.59 0,0.14 0.12,0.25 0.26,0.24 0.14,-0.01 0.25,-0.12 0.24,-0.26 0,-0.07 0,-0.13 0,-0.19 0,0 0,0 0,0 0,0 0,-0.01 0,-0.02 v 0 c 0,-0.02 0.01,-0.05 0.01,-0.07 0.01,-0.05 0.02,-0.1 0.03,-0.15 0,0.01 -0.01,0.02 -0.01,0.03 0.03,-0.11 0.07,-0.21 0.11,-0.32 0,0.01 -0.01,0.02 -0.01,0.03 0.02,-0.03 0.04,-0.06 0.05,-0.09 0.01,-0.02 0.03,-0.03 0.04,-0.05 0.02,-0.01 0.03,-0.02 0.04,-0.03 0.01,0 0.03,-0.01 0.04,-0.02 0.01,0 0.02,0 0.02,0 0,0 0,0 0.01,0 0.01,0.01 0.02,0.02 0.04,0.03 0.03,0.04 0.06,0.07 0.09,0.1 0.01,0.02 0.02,0.04 0.04,0.07 0.04,0.09 0.08,0.18 0.11,0.27 0,-0.01 -0.01,-0.02 -0.01,-0.03 0.06,0.22 0.12,0.43 0.21,0.63 z m -34.85,0.07 c 0.04,0.07 0.08,0.15 0.16,0.18 0.03,0.01 0.05,0.01 0.08,0.01 0.1,0 0.2,-0.05 0.24,-0.16 0.02,-0.04 0.02,-0.08 0.02,-0.12 0,-0.1 0.01,-0.19 0.02,-0.29 0,-0.05 0.02,-0.1 0.02,-0.14 0,0 0,-0.01 0,-0.01 0,0 0,-0.01 0,-0.01 v 0 0 c 0.01,-0.05 0.03,-0.1 0.04,-0.15 v 0 c 0.02,-0.04 0.03,-0.08 0.04,-0.12 0,0 0,-0.01 0,-0.01 0.02,-0.03 0.04,-0.06 0.05,-0.09 0,0 0.01,-0.01 0.01,-0.02 0,0 0.01,0 0.01,0.01 0.02,0.02 0.05,0.04 0.07,0.06 -0.01,-0.01 -0.02,-0.02 -0.02,-0.02 0.05,0.04 0.09,0.09 0.14,0.14 0.08,0.1 0.16,0.2 0.23,0.31 0.06,0.09 0.12,0.18 0.18,0.27 0.03,0.04 0.05,0.08 0.09,0.11 0.08,0.06 0.18,0.07 0.27,0.02 0,0 0,0 0,0 0.12,-0.07 0.16,-0.22 0.1,-0.34 -0.02,-0.02 -0.03,-0.04 -0.05,-0.06 0,0 0,0 0,0 v 0 0 c 0,0 0,0 0,0 0,0 0,0 0,0 -0.03,-0.04 -0.06,-0.09 -0.09,-0.13 0,0.01 0.01,0.02 0.02,0.03 -0.06,-0.09 -0.12,-0.18 -0.18,-0.27 -0.05,-0.08 -0.11,-0.15 -0.17,-0.22 -0.03,-0.04 -0.07,-0.07 -0.1,-0.11 -0.1,-0.09 -0.2,-0.19 -0.32,-0.25 -0.06,-0.02 -0.14,-0.03 -0.2,-0.04 -0.02,0 -0.04,0 -0.06,0 -0.04,0 -0.07,0.02 -0.09,0.03 -0.05,0.02 -0.11,0.04 -0.14,0.08 -0.08,0.08 -0.16,0.18 -0.2,0.29 -0.02,0.06 -0.05,0.12 -0.07,0.19 0,0 0,0.01 0,0.02 -0.02,-0.03 -0.04,-0.06 -0.07,-0.09 -0.11,-0.13 -0.22,-0.24 -0.37,-0.32 -0.05,-0.03 -0.11,-0.04 -0.17,-0.04 -0.04,-0.01 -0.07,-0.01 -0.1,0 -0.12,0.02 -0.23,0.07 -0.33,0.15 -0.07,0.06 -0.13,0.14 -0.18,0.21 -0.02,-0.07 -0.04,-0.13 -0.07,-0.19 -0.03,-0.06 -0.06,-0.11 -0.09,-0.17 -0.01,-0.02 -0.03,-0.04 -0.04,-0.05 -0.03,-0.04 -0.07,-0.08 -0.11,-0.11 -0.04,-0.03 -0.11,-0.05 -0.15,-0.08 -0.06,-0.03 -0.14,-0.02 -0.2,-0.02 -0.07,0 -0.15,0.02 -0.21,0.05 -0.06,0.02 -0.13,0.06 -0.18,0.11 -0.04,0.04 -0.07,0.08 -0.1,0.12 -0.04,0.05 -0.07,0.11 -0.09,0.17 -0.05,0.09 -0.07,0.19 -0.1,0.29 0,0.02 -0.01,0.03 -0.01,0.05 -0.02,-0.02 -0.04,-0.04 -0.05,-0.05 -0.08,-0.07 -0.16,-0.15 -0.25,-0.22 -0.23,-0.19 -0.49,-0.35 -0.74,-0.5 -0.12,-0.07 -0.27,-0.05 -0.35,0.07 -0.07,0.11 -0.05,0.28 0.07,0.35 0.16,0.1 0.32,0.2 0.48,0.3 0.08,0.05 0.15,0.11 0.22,0.16 0,0 0,0 0,0 0,0 0,0.01 0.01,0.01 v 0 0 c 0,0 0,0 0,0 v 0 c 0.07,0.06 0.14,0.13 0.22,0.19 0.04,0.05 0.09,0.1 0.13,0.16 0.02,0.03 0.03,0.06 0.05,0.09 0.04,0.09 0.08,0.2 0.16,0.26 0.06,0.05 0.13,0.06 0.2,0.05 0.08,0 0.16,-0.06 0.2,-0.13 0.03,-0.05 0.04,-0.12 0.05,-0.18 0.01,-0.07 0.02,-0.13 0.04,-0.2 0,0.01 0,0.02 -0.01,0.03 0.02,-0.11 0.05,-0.22 0.08,-0.33 0,0 0,-0.01 0,-0.01 0,0 0,0 0,0 0,0 0,0 0,-0.01 v 0 c 0,0 0,-0.01 0,-0.02 0,0 0,0.01 0,0.01 0.02,-0.05 0.04,-0.11 0.05,-0.16 0,0 0,0 0,0 0.02,-0.04 0.03,-0.07 0.05,-0.1 0.01,-0.02 0.02,-0.04 0.04,-0.05 0.01,0 0.02,-0.01 0.03,-0.02 0.01,-0.01 0.02,-0.01 0.04,-0.01 0.01,0 0.02,0 0.02,0 0,0 0.01,0 0.01,0 0.01,0.01 0.02,0.02 0.03,0.04 0.02,0.04 0.04,0.08 0.06,0.12 0.02,0.04 0.03,0.08 0.05,0.12 0.06,0.18 0.12,0.36 0.16,0.55 v 0 c 0,0.07 0.03,0.13 0.08,0.18 0.07,0.06 0.16,0.09 0.25,0.06 0.06,-0.02 0.11,-0.05 0.15,-0.11 0.04,-0.05 0.07,-0.14 0.09,-0.2 0.04,-0.1 0.07,-0.2 0.11,-0.29 0.02,-0.04 0.05,-0.07 0.07,-0.12 0.02,-0.02 0.04,-0.05 0.06,-0.07 0.01,-0.01 0.02,-0.02 0.04,-0.02 0.04,0.02 0.07,0.03 0.11,0.04 0.02,0.02 0.04,0.04 0.06,0.06 0.02,0.02 0.04,0.05 0.06,0.07 v 0 c 0.03,0.04 0.06,0.09 0.09,0.14 0,-0.01 -0.01,-0.02 -0.02,-0.03 0.08,0.16 0.18,0.33 0.27,0.5 z m 58.94,-10.99 c -0.05,0.11 -0.11,0.21 -0.15,0.32 -0.04,0.12 0.01,0.25 0.12,0.31 0.04,0.02 0.07,0.03 0.11,0.03 0.07,0 0.14,-0.03 0.19,-0.09 0,0 0.01,-0.01 0.01,-0.02 0.03,-0.03 0.05,-0.07 0.06,-0.12 0.09,-0.18 0.18,-0.37 0.26,-0.55 0.05,-0.1 0.09,-0.2 0.13,-0.3 0.04,-0.05 0.06,-0.12 0.04,-0.19 0,0 0,-0.01 0,-0.01 -0.02,-0.1 -0.09,-0.18 -0.19,-0.2 -0.09,-0.02 -0.19,0.01 -0.24,0.08 -0.04,0.04 -0.05,0.09 -0.07,0.14 -0.03,0.08 -0.06,0.15 -0.09,0.22 0,0 0,0.01 0,0.01 0,0 0,0 0,-0.01 0,0.01 0,0.01 0,0.02 0,0 0,0 0,-0.01 -0.06,0.13 -0.12,0.25 -0.18,0.37 z m -7.12,-21.99 c -0.38,0.05 -0.77,0.11 -1.15,0.17 -0.13,0.02 -0.23,0.14 -0.21,0.29 0.02,0.12 0.12,0.21 0.24,0.21 0.01,0 0.02,0 0.04,0 0.38,-0.06 0.76,-0.12 1.15,-0.17 0.13,-0.02 0.23,-0.15 0.21,-0.28 -0.02,-0.12 -0.12,-0.21 -0.25,-0.21 -0.01,-0.01 -0.02,-0.01 -0.03,-0.01 z m -1.55,-0.73 c -0.29,0.02 -0.58,0.04 -0.86,0.08 -0.1,0.01 -0.19,0.04 -0.28,0.07 -0.1,0.03 -0.19,0.09 -0.28,0.14 -0.12,0.07 -0.14,0.24 -0.07,0.35 0.05,0.07 0.13,0.11 0.21,0.11 0.05,0 0.09,-0.02 0.14,-0.04 0.02,-0.01 0.04,-0.02 0.05,-0.03 0,0 0.01,-0.01 0.02,-0.01 0.04,-0.02 0.08,-0.04 0.11,-0.05 0.02,-0.01 0.04,-0.02 0.06,-0.02 0.03,-0.01 0.06,-0.01 0.09,-0.02 0.01,0 0.01,0 0.02,0 0.26,-0.03 0.52,-0.05 0.78,-0.07 0.16,-0.01 0.33,-0.03 0.49,-0.05 0.16,-0.02 0.32,-0.04 0.48,-0.05 0.2,-0.02 0.39,-0.05 0.57,-0.11 0.13,-0.04 0.22,-0.17 0.18,-0.3 -0.03,-0.13 -0.17,-0.22 -0.3,-0.18 -0.08,0.02 -0.16,0.04 -0.25,0.05 0.01,0 0.02,0 0.03,0 -0.05,0.01 -0.11,0.02 -0.16,0.03 0.01,0 0.02,0 0.04,-0.01 -0.36,0.04 -0.72,0.08 -1.07,0.11 z m -1.51,-1.51 c -0.01,0.13 0.09,0.26 0.23,0.27 0.04,0 0.07,0 0.11,0 0.06,0 0.11,0 0.18,-0.01 0.09,0 0.18,-0.04 0.28,-0.06 0.13,-0.02 0.26,-0.04 0.39,-0.07 0.27,-0.03 0.55,-0.06 0.82,-0.09 0.11,-0.01 0.23,-0.02 0.34,-0.04 0.09,-0.01 0.18,-0.03 0.27,-0.05 0.13,-0.04 0.21,-0.18 0.16,-0.31 -0.05,-0.13 -0.18,-0.21 -0.31,-0.16 0,0 0,0 -0.01,0 0,0 0,0 -0.01,0 0,0 0,0 0.01,0 0,0 0,0 -0.01,0 -0.13,0.02 -0.26,0.04 -0.39,0.05 -0.26,0.03 -0.52,0.05 -0.78,0.08 -0.1,0.01 -0.2,0.02 -0.29,0.04 -0.09,0.02 -0.18,0.03 -0.26,0.05 -0.09,0.02 -0.18,0.04 -0.27,0.06 -0.04,0 -0.09,0 -0.13,0.01 -0.02,0 -0.05,0 -0.07,0 0,0 -0.01,0 -0.02,0 -0.11,0 -0.23,0.09 -0.24,0.23 z m 0.39,-1.04 c -0.04,0 -0.07,0.01 -0.11,0.01 -0.14,0.01 -0.25,0.11 -0.25,0.25 0,0.13 0.11,0.25 0.24,0.25 0,0 0.01,0 0.01,0 0.14,-0.01 0.27,-0.02 0.4,-0.05 0.12,-0.02 0.23,-0.05 0.34,-0.07 0.12,-0.02 0.23,-0.04 0.35,-0.06 0.14,-0.02 0.28,-0.04 0.41,-0.05 0,0 0.01,0 0.01,0 0,0 0,0 0.01,0 0.23,-0.03 0.45,-0.05 0.68,-0.1 0.13,-0.03 0.22,-0.16 0.19,-0.3 -0.03,-0.13 -0.16,-0.22 -0.3,-0.19 -0.11,0.02 -0.21,0.04 -0.32,0.05 -0.29,0.04 -0.58,0.07 -0.86,0.11 -0.14,0.02 -0.29,0.05 -0.43,0.07 -0.07,0.02 -0.14,0.04 -0.22,0.05 -0.05,0 -0.1,0.01 -0.15,0.02 0.01,0.01 0.01,0.01 0,0.01 -0.01,0 -0.01,0 0,0 -0.01,0 0,0 0,0 z m 1.75,-1.37 c -0.04,0.01 -0.09,0.02 -0.14,0.03 -0.36,0.07 -0.72,0.12 -1.09,0.16 -0.29,0.04 -0.57,0.07 -0.84,0.14 -0.13,0.03 -0.21,0.17 -0.18,0.3 0.03,0.12 0.14,0.19 0.25,0.19 0.02,0 0.04,0 0.05,0 0.07,-0.02 0.14,-0.03 0.22,-0.05 -0.01,0 -0.02,0 -0.03,0.01 0.63,-0.1 1.26,-0.15 1.88,-0.29 0.13,-0.03 0.21,-0.18 0.18,-0.3 -0.03,-0.12 -0.13,-0.19 -0.24,-0.19 -0.02,-0.01 -0.04,0 -0.06,0 z m -0.97,-1.18 c -0.25,0.04 -0.49,0.11 -0.73,0.18 -0.13,0.04 -0.22,0.16 -0.18,0.3 0.03,0.11 0.14,0.2 0.25,0.2 0.02,0 0.04,0 0.06,-0.01 0.22,-0.07 0.45,-0.12 0.67,-0.17 -0.01,0 -0.02,0 -0.03,0 0.12,-0.02 0.25,-0.05 0.37,-0.06 0.14,-0.02 0.27,-0.03 0.41,-0.04 0,0 0,0 -0.01,0 0.02,0 0.05,0 0.08,0 0.14,0 0.25,-0.11 0.25,-0.25 0,-0.13 -0.11,-0.25 -0.24,-0.25 0,0 0,0 -0.01,0 -0.3,0 -0.59,0.05 -0.89,0.1 z m 0.3,-1.38 c -0.21,0.03 -0.43,0.05 -0.65,0.09 -0.12,0.02 -0.23,0.04 -0.35,0.07 -0.14,0.04 -0.29,0.07 -0.43,0.11 -0.13,0.04 -0.21,0.18 -0.17,0.31 0.03,0.11 0.13,0.18 0.24,0.18 0.02,0 0.05,0 0.07,-0.01 0.15,-0.04 0.3,-0.08 0.46,-0.12 -0.01,0 -0.02,0 -0.03,0 0.32,-0.05 0.63,-0.1 0.95,-0.14 0.14,-0.02 0.22,-0.17 0.2,-0.3 -0.02,-0.12 -0.13,-0.2 -0.25,-0.2 -0.01,0.01 -0.02,0.01 -0.04,0.01 z m -0.72,-1.08 c -0.19,0.04 -0.38,0.07 -0.57,0.11 -0.13,0.02 -0.23,0.14 -0.21,0.28 0.02,0.12 0.12,0.22 0.24,0.22 0.01,0 0.02,0 0.04,0 0.19,-0.04 0.39,-0.07 0.58,-0.11 0.12,-0.03 0.25,-0.05 0.38,-0.07 0,0 0.01,0 0.01,0 0.14,-0.01 0.25,-0.12 0.24,-0.26 -0.01,-0.12 -0.11,-0.24 -0.24,-0.24 -0.01,0 -0.01,0 -0.02,0 -0.16,0.01 -0.3,0.04 -0.45,0.07 z m -0.05,-1.61 c -0.13,0.02 -0.26,0.04 -0.38,0.08 -0.18,0.05 -0.37,0.11 -0.55,0.17 -0.13,0.04 -0.2,0.18 -0.16,0.31 0.04,0.11 0.13,0.18 0.24,0.18 0.03,0 0.05,0 0.08,-0.01 0.2,-0.06 0.39,-0.12 0.59,-0.18 -0.01,0 -0.02,0.01 -0.03,0.01 0.11,-0.03 0.22,-0.05 0.34,-0.07 0.13,-0.02 0.21,-0.17 0.19,-0.3 -0.03,-0.12 -0.13,-0.19 -0.25,-0.19 -0.04,0 -0.06,0 -0.07,0 z m -7.56,-0.82 c 0,0.14 0.12,0.25 0.25,0.25 0.03,0 0.06,0 0.09,0 0.02,0 0.04,0.01 0.06,0.01 0.3,0.08 0.59,0.17 0.89,0.23 0.2,0.04 0.4,0.06 0.6,0.06 0.1,0 0.2,-0.01 0.3,-0.02 0.13,-0.01 0.23,-0.15 0.21,-0.28 -0.02,-0.14 -0.14,-0.22 -0.28,-0.21 -0.02,0 -0.03,0 -0.05,0.01 v 0 c -0.11,0 -0.21,0 -0.32,0 0,0 0.01,0 0.02,0 -0.13,-0.01 -0.26,-0.03 -0.39,-0.05 0.01,0 0.02,0 0.03,0 -0.21,-0.04 -0.43,-0.1 -0.64,-0.16 -0.1,-0.03 -0.2,-0.07 -0.3,-0.08 -0.07,-0.01 -0.14,-0.01 -0.22,-0.01 -0.14,0 -0.25,0.11 -0.25,0.25 z m 6.98,-0.22 c -0.09,0.03 -0.18,0.05 -0.27,0.08 -0.11,0.03 -0.23,0.06 -0.34,0.09 -0.13,0.04 -0.21,0.18 -0.18,0.31 0.03,0.11 0.13,0.18 0.24,0.18 0.02,0 0.04,0 0.06,-0.01 0.2,-0.05 0.4,-0.11 0.6,-0.16 0,0 0.01,0 0.01,0 0.09,-0.02 0.17,-0.03 0.25,-0.04 0.14,-0.01 0.23,-0.14 0.22,-0.28 -0.02,-0.13 -0.12,-0.22 -0.25,-0.22 -0.01,0 -0.02,0 -0.03,0 -0.11,0.02 -0.21,0.02 -0.31,0.05 z"
   id="path35"
   style="fill:#fef8f3;fill-opacity:1" />&#10;&#10;&#10;&#10;&#10;&#10;&#10;&#10;&#10;&#10;&#10;&#10;&#10;&#10;&#10;&#10;&#10;&#10;&#10;&#10;</svg>
